STARTFONT 2.1
COMMENT
COMMENT Converted from OpenType font "Q:\font stuff\winfont\Alba Super.ttf" by "otf2bdf 3.0".
COMMENT
FONT -FreeType-Alba Super-Medium-R-Normal--64-640-72-72-P-405-ISO10646-1
SIZE 64 72 72
FONTBOUNDINGBOX 98 125 -12 -45
STARTPROPERTIES 19
FOUNDRY "FreeType"
FAMILY_NAME "Alba Super"
WEIGHT_NAME "Medium"
SLANT "R"
SETWIDTH_NAME "Normal"
ADD_STYLE_NAME ""
PIXEL_SIZE 64
POINT_SIZE 640
RESOLUTION_X 72
RESOLUTION_Y 72
SPACING "P"
AVERAGE_WIDTH 405
CHARSET_REGISTRY "ISO10646"
CHARSET_ENCODING "1"
FONT_ASCENT 65
FONT_DESCENT 34
COPYRIGHT "Alba ©2001, Font"a"licious Fonts."
_OTF_FONTFILE "Q:\font stuff\winfont\Alba Super.ttf"
_OTF_PSNAME "AlbaSuper"
ENDPROPERTIES
CHARS 239
STARTCHAR 0020
ENCODING 32
SWIDTH 296 0
DWIDTH 19 0
BBX 0 0 0 0
BITMAP
ENDCHAR
STARTCHAR 0021
ENCODING 33
SWIDTH 234 0
DWIDTH 15 0
BBX 19 60 -1 -11
BITMAP
01F000
07FC00
1FFF00
1FFF80
3E0F80
3C07C0
7803C0
7803C0
7803C0
7803C0
7803C0
7803C0
7803C0
7803C0
7803C0
7803C0
7803C0
7803C0
7803C0
7803C0
7803C0
7803C0
7803C0
7803C0
7803C0
7803C0
7803C0
7803C0
7803C0
7803C0
7803C0
7803C0
7C07C0
7E0FC0
7FFFC0
7FFFC0
7FFFC0
7FFFC0
7E0FC0
7C07C0
7803C0
F801E0
F001E0
F001E0
F001E0
F001E0
F801E0
F803C0
FC07E0
FE0FE0
FFFFE0
FFFFE0
FFFFE0
FFFFE0
7FFFC0
7FFFC0
3FFF80
1FFF00
0FFE00
03F800
ENDCHAR
STARTCHAR 0022
ENCODING 34
SWIDTH 468 0
DWIDTH 30 0
BBX 32 33 0 16
BITMAP
03F00FC0
0FFE7FF0
1FFFFFF8
3FFFFFFC
7E0FF87E
7C07F03E
F803E01F
F001C00F
F001C00F
F001C00F
F001C00F
F001C00F
F001C00F
F001C00F
F001C00F
F001C00F
F001C00F
F001C00F
F001C00F
F001C00F
F803E01F
FC07F03F
FE0FF87F
FFFFFFFF
FFFFFFFF
FFFFFFFF
FFFFFFFF
7FFFFFFE
7FFFFFFE
3FFFFFFC
1FFFFFF8
0FFC3FF0
03F00FC0
ENDCHAR
STARTCHAR 0023
ENCODING 35
SWIDTH 578 0
DWIDTH 37 0
BBX 39 45 0 4
BITMAP
003F83F800
00FFEFFE00
01FFFFFF00
03FFFFFF80
03E0FF0F80
07C07E07C0
1F803C03F0
3F803C03F8
7C0000007C
780000003C
F00000001E
F00000001E
F00000001E
F00000001E
F00000001E
F80000003E
7C0000007E
FF803C03FE
FF803C03FE
FF803C03FE
FF803C03FE
FC0000007E
780000003E
F00000001E
F00000001E
F00000001E
F00000001E
F00000001E
780000003E
FC0000007E
FF803C03FE
FF803C03FE
FF803C03FE
FFC07E07FE
FFE0FF0FFE
7FFFFFFFFC
7FFFFFFFFC
3FFFFFFFF8
1FFFFFFFF0
07FFFFFFC0
03FFFFFF80
03FFFFFF80
01FFFFFF00
00FFEFFE00
003F83F800
ENDCHAR
STARTCHAR 0024
ENCODING 36
SWIDTH 484 0
DWIDTH 31 0
BBX 33 60 0 -11
BITMAP
0007E00000
001FF80000
003FFC0000
003FFC0000
007E3E0000
007C1E0000
00780FF000
00780FF800
00780FFE00
007C1FFE00
007F781F00
007FE00F00
007F800780
007F000780
007E000780
007C000780
007C000780
0078000F80
0078001F80
00F001FF80
00F003FF80
00F007FF80
00F007FF80
00F007FF80
00F007FF00
00F007FF00
00F007FE00
00F007FC00
00F007F800
00F007E000
00F0078000
0FF0078000
1FF0078000
3FE0078000
7FC00F8000
7C000F8000
F8000F8000
F0001F8000
F0001F8000
F0003F8000
F0007F8000
F000FF0000
7803FF0000
FC0F7F0000
FFFC1E0000
FFF80F0000
FFF80F0000
FFF80F0000
FFFC1F0000
7FFE3E0000
3FFFFE0000
3FFFFF0000
0FFFFF0000
03FFFF0000
007FFF0000
007FFE0000
003FFE0000
001FFC0000
000FF80000
0003E00000
ENDCHAR
STARTCHAR 0025
ENCODING 37
SWIDTH 750 0
DWIDTH 48 0
BBX 51 72 0 -18
BITMAP
00000003F00000
00000007FC0000
0000000FFF0000
0000001FFF0000
0000003E1F8000
007F003C078000
03FFC07C03C000
07FFF07803C000
0FFFF87803C000
1FC1FCF803C000
3F007EF003C000
7C003EF007C000
7C001FF007C000
781E0FE007C000
F83F0FE00FC000
F07F8FC00FC000
F07F8FC00FC000
F07F87C01FC000
F07F8F801F8000
F03F0F801F8000
F01E0F803F8000
F8000F003F0000
FC001F003F0000
FC003F007F0000
FF007E007E0000
FF81FE007E0000
FFFFFE00FE0000
7FFFFC00FC0000
7FFFFC01FC0000
7FFFFC01FC0000
3FFFF801F80000
1FFFF803FFC000
0FFFF003FFF000
07FFF003FFFC00
03FFF007FFFE00
007FE007F07F00
0001E007C01F80
0003E00F8007C0
0003C00F0007C0
0003C00E0F03C0
0007C01E1F83E0
0007801C3FC1E0
0007803C3FC1E0
000F803C3FC1E0
000F003C3FC1E0
000F007C1F81E0
001E007E0F03C0
001E007E0003E0
003E00FF0007E0
003C00FF8007E0
003C00FFC01FE0
007C01FFF07FE0
007801FFFFFFE0
007801FFFFFFC0
00F803FFFFFFC0
00F003FFFFFFC0
00F007FFFFFF80
00F007F7FFFF00
00F007E3FFFE00
00780FE1FFFC00
00780FC0FFF800
00FE1FC01FC000
00FFFFC0000000
00FFFF80000000
00FFFF80000000
00FFFF80000000
00FFFF00000000
007FFF00000000
003FFE00000000
001FFE00000000
000FFC00000000
0003F000000000
ENDCHAR
STARTCHAR 0026
ENCODING 38
SWIDTH 859 0
DWIDTH 55 0
BBX 57 38 1 2
BITMAP
000000000001F800
000000000003FC00
000000000007FE00
00000000000FFF00
00000000000F0F00
00000000000F0F80
00000000000F0780
00FF007F01FF0780
03FFC3FFC3FF0780
0FFFF7FFEFFF0780
1FFFFFFFFFFF0780
3F81FF83FF870780
3E007F00FE070780
7C003E007C030780
F8003C0038070780
F83C1C1C301F0780
F07E083C307F0780
F0FE083E10FF0780
F0FF083E10FF0780
F0FF083E10FF0780
F0FF083E10FE0F80
F07F083E10FE0F80
F03F083E103C0F80
F807083E18000F80
F803083E18001F80
FC03083E1C003F80
FE03087E3E007F80
FF871C7E3F81FF00
FFFFFFFFFFFFFF00
FFFFFFFFFFFFFF00
7FFFFFFFFFFFFF00
7FFFFFFFFFFFFE00
3FFFFFFFFFFFFC00
3FFFFFFFFFFFFC00
1FFFFFFFFFFFF800
0FFFFFFFFFFFF000
03FFFFF7FBFFC000
00FCF7C3F07F0000
ENDCHAR
STARTCHAR 0027
ENCODING 39
SWIDTH 265 0
DWIDTH 17 0
BBX 19 33 0 16
BITMAP
03F800
0FFE00
1FFF00
3FFF80
7E0FC0
7C07C0
F803E0
F001E0
F001E0
F001E0
F001E0
F001E0
F001E0
F001E0
F001E0
F001E0
F001E0
F001E0
F001E0
F001E0
F803E0
FC07E0
FE0FE0
FFFFE0
FFFFE0
FFFFE0
FFFFE0
7FFFC0
7FFFC0
3FFF80
1FFF00
0FFE00
03F800
ENDCHAR
STARTCHAR 0028
ENCODING 40
SWIDTH 531 0
DWIDTH 34 0
BBX 36 70 0 -16
BITMAP
000003FC00
00003FFF00
0000FFFFC0
0003FFFFC0
000FFC03E0
001FE001F0
007F8000F0
00FE0000F0
01F80000F0
03F00000F0
03E00000F0
07C00001E0
0F800003F0
0F0000FFF0
1F0007FFF0
3E001FFFF0
3E003FFFF0
3C007FFFF0
7C00FFFFE0
7801FFFFC0
7801FFFFC0
7803FFFF00
F003FFFC00
F007FF0000
F007FC0000
F007F80000
F007F00000
F007E00000
F007C00000
F007C00000
F007800000
F007800000
F007800000
F007800000
F007800000
F007800000
F007800000
F007800000
F007800000
F007800000
F007C00000
F003C00000
F803E00000
F801E00000
F801F00000
FC00FC0000
FC007F0000
FE003FFC00
7E001FFF00
7F0007FFC0
7F0001FFC0
7F800003E0
3FC00001F0
3FE00000F0
3FF00000F0
1FF80000F0
0FFE0000F0
0FFF8000F0
07FFE001E0
03FFFC03F0
03FFFFFFF0
01FFFFFFF0
00FFFFFFF0
007FFFFFF0
001FFFFFF0
000FFFFFE0
0003FFFFE0
0001FFFFC0
00003FFF00
000003FC00
ENDCHAR
STARTCHAR 0029
ENCODING 41
SWIDTH 531 0
DWIDTH 34 0
BBX 36 70 0 -16
BITMAP
03FC000000
0FFFC00000
3FFFF00000
7FFFFC0000
7C03FF0000
F8007F8000
F0001FC000
F00007F000
F00001F800
F00000F800
F000007C00
7800003E00
FC00001F00
FFF0000F00
FFFE000F80
FFFF800780
FFFFC007C0
FFFFE003C0
7FFFF003E0
7FFFF801E0
3FFFF801E0
0FFFFC01E0
03FFFC00F0
000FFC00F0
0003FE00F0
0001FE00F0
0000FE00F0
00007E00F0
00003E00F0
00003E00F0
00001E00F0
00001E00F0
00001E00F0
00001E00F0
00001E00F0
00001E00F0
00001E00F0
00001E00F0
00001E00F0
00001E00F0
00003E00F0
00003C00F0
00007C01F0
0000F801F0
0000F801F0
0003F003F0
000FE003F0
03FFC007F0
0FFF8007E0
3FFE000FE0
7FF8000FE0
7C00001FE0
F800003FC0
F000007FC0
F00000FF80
F00001FF80
F00007FF00
F0001FFF00
78007FFE00
FC03FFFC00
FFFFFFFC00
FFFFFFF800
FFFFFFF000
FFFFFFE000
FFFFFF8000
7FFFFF0000
7FFFFC0000
3FFFF00000
1FFFC00000
03FC000000
ENDCHAR
STARTCHAR 002A
ENCODING 42
SWIDTH 468 0
DWIDTH 30 0
BBX 32 38 0 -6
BITMAP
0003C000
000FF000
001FF800
001FFC00
003E7C00
007C3E00
00FC1F00
07F81FE0
1FF00FF8
3FF007FC
7FC001FE
FC00003F
F000000F
F000000F
F000000F
7800001E
7C00003E
FC00007F
FE00007F
FF0000FF
FF0000FF
FF0000FF
7F0000FE
7F0000FE
3F0000FC
1F0000F8
1F0180F8
0F8FF1F0
0FFFFFF0
0FFFFFF0
0FFFFFF0
0FFFFFF0
0FFFFFF0
0FFFFFF0
0FFFFFF0
07FFFFE0
03FE7FE0
01F00F80
ENDCHAR
STARTCHAR 002B
ENCODING 43
SWIDTH 484 0
DWIDTH 31 0
BBX 32 40 0 -7
BITMAP
0007E000
001FF800
003FFC00
007FFE00
007C3E00
00F81F00
00F00F00
00F00F00
03F00FC0
0FF00FF0
3FF00FFC
3FF00FFC
7C00003E
7800001E
F000000F
F000000F
F000000F
F000000F
F000000F
F800001F
FC00003F
FFF00FFF
FFF00FFF
FFF00FFF
FFF00FFF
FFF00FFF
7FF00FFF
7FF00FFE
3FF81FFE
3FFC3FFC
0FFFFFF8
03FFFFE0
00FFFF00
00FFFF00
00FFFF00
007FFE00
007FFE00
003FFC00
001FF800
0007E000
ENDCHAR
STARTCHAR 002C
ENCODING 44
SWIDTH 265 0
DWIDTH 17 0
BBX 19 33 0 -18
BITMAP
03F800
0FFE00
1FFF00
3FFF80
7E0FC0
7C07C0
F803E0
F001E0
F001E0
F001E0
F001E0
F001E0
F001E0
F001E0
F001E0
F001E0
F001E0
F001E0
F001E0
F001E0
F803E0
FC07E0
FE0FE0
FFFFE0
FFFFE0
FFFFE0
FFFFE0
7FFFC0
7FFFC0
3FFF80
1FFF00
0FFE00
03F800
ENDCHAR
STARTCHAR 002D
ENCODING 45
SWIDTH 265 0
DWIDTH 17 0
BBX 19 25 0 4
BITMAP
03F800
0FFE00
1FFF00
3FFF80
7E0FC0
7C07C0
F803E0
F001E0
F001E0
F001E0
F001E0
F001E0
F803C0
FC07E0
FE0FE0
FFFFE0
FFFFE0
FFFFE0
FFFFE0
7FFFC0
7FFFC0
3FFF80
1FFF00
0FFE00
03F800
ENDCHAR
STARTCHAR 002E
ENCODING 46
SWIDTH 265 0
DWIDTH 17 0
BBX 19 26 0 -11
BITMAP
03F000
0FFE00
1FFF00
3FFF80
7E0FC0
7C07C0
F803C0
F003E0
F001E0
F001E0
F001E0
F001E0
F003C0
F803C0
FC07E0
FE0FE0
FFFFE0
FFFFE0
FFFFE0
FFFFE0
7FFFC0
7FFFC0
3FFF80
1FFF00
0FFE00
03F800
ENDCHAR
STARTCHAR 002F
ENCODING 47
SWIDTH 468 0
DWIDTH 30 0
BBX 34 72 -1 -18
BITMAP
000003F000
00000FFC00
00001FFE00
00003FFF00
00003E1F80
00007C0F80
0000780780
00007807C0
0000F803C0
0000F003C0
0000F00380
0001F00780
0001E00780
0001E00FC0
0003E00FC0
0003C00FC0
0007C01F80
0007801F80
0007801F80
000F803F80
000F003F00
000F003F00
001F007F00
001E007E00
001E007E00
003E00FE00
003C00FC00
003C01FC00
007C01F800
007801F800
00F803F800
00F003F000
00F003F000
01F007F000
01E007E000
01E007E000
03E00FE000
03C00FC000
03C00FC000
07C01FC000
07801F8000
07803F8000
0F003F8000
0F003F0000
1F007F0000
1E007E0000
1E007E0000
3E00FE0000
3C00FC0000
3C00FC0000
7C01FC0000
7801F80000
7801F80000
F803F80000
F003F00000
F007F00000
F007F00000
F007E00000
F00FE00000
F00FC00000
F81FC00000
FC3FC00000
FFFF800000
FFFF800000
FFFF800000
FFFF000000
FFFF000000
7FFF000000
7FFE000000
3FFC000000
1FF8000000
07E0000000
ENDCHAR
STARTCHAR 0030
ENCODING 48
SWIDTH 812 0
DWIDTH 52 0
BBX 54 60 0 -11
BITMAP
000007FF000000
00003FFFF00000
0001FFFFFC0000
0007FFFFFF0000
000FFC00FFC000
003FC0001FE000
007F000007F800
00FC000001FC00
01F80000007E00
03F00000003F00
07E00000001F00
0FC00000000F80
0F8000000007C0
1F0001FE0003C0
1E000FFFC003E0
3E001FFFE001E0
3C007FFFF001F0
7C00FFFFFC00F0
7800FFFFFC00F8
7801FFFFFE0078
F803FFFFFF0078
F003FFFFFF0078
F007FFFFFF0078
F007FE03FF803C
F007F800FF803C
F007F0003F803C
F007E0001F803C
F007C0001F803C
F00780000F803C
F00780000F803C
F00780000F803C
F00780000F007C
F003C0001F007C
F803E0001F007C
F801F0003E007C
F800F800FC00FC
FC00FE03FC00FC
FC007FFFF801FC
FE001FFFE001F8
FE000FFFC003F8
7F0001FE0003F8
7F8000000007F8
7FC00000000FF0
3FE00000001FF0
3FF00000003FE0
1FF80000007FE0
1FFC000001FFC0
0FFF000003FFC0
0FFFC0001FFF80
07FFFC00FFFF00
03FFFFFFFFFF00
01FFFFFFFFFE00
00FFFFFFFFFC00
007FFFFFFFF800
003FFFFFFFE000
000FFFFFFFC000
0007FFFFFF0000
0001FFFFFE0000
00007FFFF00000
000007FF000000
ENDCHAR
STARTCHAR 0031
ENCODING 49
SWIDTH 234 0
DWIDTH 15 0
BBX 17 60 0 -11
BITMAP
07E000
1FF800
3FFE00
7FFF00
7C1F00
F80F80
F00780
F00780
F00780
F00780
F00780
F00780
F00780
F00780
F00780
F00780
F00780
F00780
F00780
F00780
F00780
F00780
F00780
F00780
F00780
F00780
F00780
F00780
F00780
F00780
F00780
F00780
F00780
F00780
F00780
F00780
F00780
F00780
F00780
F00780
F00780
F00780
F00780
F00780
F00780
F00780
F00780
F00780
F80F80
FC1F80
FFFF80
FFFF80
FFFF80
FFFF80
FFFF80
7FFF00
7FFF00
3FFE00
1FF800
07E000
ENDCHAR
STARTCHAR 0032
ENCODING 50
SWIDTH 593 0
DWIDTH 38 0
BBX 41 60 -1 -11
BITMAP
00007FC00000
0007FFF80000
001FFFFE0000
003FFFFF8000
007F807FC000
01FC000FE000
03F80003F000
03E00001F800
07C000007C00
0F8000007C00
0F0000003E00
1F0000001F00
1E0000000F00
3E001F800F00
3C007FC00F80
3C00FFE00780
3C01FFF00780
7C01FFF80780
7801FFF80780
7803FFF80780
7803FFF80780
7803FFF80780
7C03FFF80780
7E07F1F80780
7FFFE3F00780
7FFFE3E00F80
7FFFCFE00F80
7FFFDFC00F80
3FFFFF801F80
3FFFFF003F80
3FFFFE003F80
1FFFFC007F80
1FFFF000FF80
0FFFE001FF00
03FFC003FF00
00FF8007FF00
01FE000FFE00
03FC001FFE00
0FF0003FFE00
1FE0007FFF00
3F8000FFFF00
3F0000001F80
7C0000000F80
780000000780
F80000000780
F00000000780
F00000000780
780000000780
780000000F80
7C0000001F80
7FFFFFFFFF80
FFFFFFFFFF80
FFFFFFFFFF80
FFFFFFFFFF80
7FFFFFFFFF80
7FFFFFFFFF80
7FFFFFFFFF00
3FFFFFFFFE00
0FFFFFFFFC00
03FFFFFFF000
ENDCHAR
STARTCHAR 0033
ENCODING 51
SWIDTH 515 0
DWIDTH 33 0
BBX 35 60 0 -11
BITMAP
0007FC0000
003FFF8000
00FFFFE000
01FFFFF000
03FC07F800
07E000FC00
0F80007E00
1F00001F00
3E00000F80
3C00000F80
7C000007C0
78000003C0
78000003C0
F001F803C0
F003FC01E0
F007FC01E0
F007FE01E0
F007FE01E0
F007FC01E0
F00FFC01E0
F80FFC01E0
FC3FF003E0
FFFF8003E0
FFFC0003E0
FFF80007E0
FFF8000FE0
FFF8001FE0
7FF8001FE0
7FF8000FC0
3FFC0007C0
1FFF0003C0
07FFE003C0
007FF803E0
007FFC01E0
007FFC01E0
007FFE01E0
007FFE01E0
07FFFC01E0
1FFFFC01E0
3FFFF801E0
7FFFF003E0
7C000003E0
F8000003E0
F0000007E0
F000000FE0
F000000FE0
F000001FE0
F000007FC0
780000FFC0
FC0007FFC0
FFFFFFFF80
FFFFFFFF80
FFFFFFFF00
FFFFFFFE00
FFFFFFFC00
7FFFFFF800
7FFFFFF000
3FFFFFE000
1FFFFF8000
07FFFC0000
ENDCHAR
STARTCHAR 0034
ENCODING 52
SWIDTH 531 0
DWIDTH 34 0
BBX 36 60 0 -11
BITMAP
07E0007C00
1FF801FF00
3FFE07FFC0
7FFE07FFE0
7C1F0F83E0
F80F1F01F0
F0079E00F0
F0079E00F0
F0079E00F0
F0079E00F0
F0079E00F0
F0079E00F0
F0079E00F0
F0079E00F0
F0079E00F0
F0079E00F0
F0079E00F0
F0079E00F0
F0079E00F0
F0079E00F0
F0079E00F0
F0079E00F0
F0079E00F0
F0079E00F0
F007FE00F0
F003FE00F0
F003FE00F0
F800FE00F0
F8000000F0
F8000000F0
FC000000F0
FE000000F0
FE000000F0
FF000000F0
7FC00000F0
7FE00000F0
7FFC0000F0
3FFFFE00F0
3FFFFE00F0
1FFFFE00F0
0FFFFE00F0
07FFFE00F0
03FFFE00F0
01FFFE00F0
007FFE00F0
003FFE00F0
0003FE00F0
00001E00F0
00001F01F0
00001F83F0
00001FFFF0
00001FFFF0
00001FFFF0
00001FFFF0
00001FFFF0
00000FFFE0
00000FFFE0
000007FFC0
000001FF80
0000007E00
ENDCHAR
STARTCHAR 0035
ENCODING 53
SWIDTH 515 0
DWIDTH 33 0
BBX 36 60 0 -11
BITMAP
07FFFFFC00
0FFFFFFF00
3FFFFFFF80
3FFFFFFFC0
7C000007C0
F8000003E0
F0000001E0
F0000001E0
F0000001E0
F0000001E0
F0000001E0
F0000003E0
F0000007E0
F007FFFFE0
F007FFFFE0
F007FFFFE0
F007FFFFE0
F0000FFFE0
F00001FFE0
F000007FC0
F000003FC0
F000001F80
F000000F80
F0000007C0
F8000003C0
FC000003E0
FFFFE001E0
FFFFF801E0
FFFFFC01F0
FFFFFE00F0
FFFFFE00F0
7FFFFF00F0
3FFFFF00F0
3FFFFF00F0
0FFFFF00F0
03FFFF00F0
00003E00F0
07FFFE00F0
1FFFFC01F0
3FFFF801F0
7FFFE001F0
7C000003F0
F8000003F0
F0000007F0
F000000FE0
F000001FE0
F000003FE0
F000007FE0
780001FFC0
FC000FFFC0
FFFFFFFF80
FFFFFFFF00
FFFFFFFF00
FFFFFFFE00
FFFFFFFC00
7FFFFFF800
7FFFFFE000
3FFFFFC000
1FFFFF0000
07FFF00000
ENDCHAR
STARTCHAR 0036
ENCODING 54
SWIDTH 609 0
DWIDTH 39 0
BBX 41 60 0 -11
BITMAP
0000FF800000
000FFFF00000
003FFFFE0000
007FFFFF0000
01FF007FC000
03F8000FE000
07F00003F000
0FC00001F800
0F800000F800
1F0000007C00
3E0000003C00
3C0000003C00
7C0000003C00
78003F003C00
7800FFC07C00
F801FFE0F800
F003FFFFFC00
F007807FFC00
F004000FFC00
F0000007FC00
F0000001FC00
F0000000F800
F00000007C00
F00000003E00
F00000003E00
F00000001F00
F0003E000F00
F000FF800F00
F001FFC00F00
F003FFE00780
F003FFE00780
F007FFF00780
F007FFF00780
F007FFF00780
F007FFF00780
F007FFF00780
F003FFE00780
F003FFE00780
F801FFC00F80
F800FF800F80
F8003E000F80
FC0000001F80
FC0000003F80
FE0000003F80
7F0000007F00
7F800000FF00
7FC00001FF00
7FE00007FF00
3FF8000FFE00
3FFF007FFE00
1FFFFFFFFC00
0FFFFFFFF800
0FFFFFFFF800
07FFFFFFF000
03FFFFFFE000
01FFFFFFC000
007FFFFF0000
003FFFFE0000
000FFFF80000
0000FF800000
ENDCHAR
STARTCHAR 0037
ENCODING 55
SWIDTH 546 0
DWIDTH 35 0
BBX 37 60 0 -11
BITMAP
07FFFFFF00
1FFFFFFFC0
3FFFFFFFE0
7FFFFFFFF0
7C000001F0
F8000000F8
F000000078
F000000078
F000000078
F000000078
F000000078
78000000F8
FC000000F8
FFFFFC00F8
FFFFFC00F8
FFFFFC01F8
FFFFF801F8
FFFFF801F8
7FFFF801F0
7FFFF003F0
3FFFF003F0
1FFFF003F0
07FFE007E0
0001E007E0
0003E007E0
0003C00FE0
0003C00FC0
0007C00FC0
0007801FC0
0007801F80
0007801F80
000F003F80
000F003F00
000F007F00
001E007F00
001E007E00
001E00FE00
003C00FE00
003C00FC00
003C01FC00
007C01F800
007801F800
007803F800
00F803F000
00F003F000
00F007F000
00F007E000
00F007E000
00780FE000
00FE1FC000
00FFFFC000
00FFFFC000
00FFFF8000
00FFFF8000
00FFFF8000
007FFF0000
007FFF0000
003FFE0000
000FFC0000
0003F00000
ENDCHAR
STARTCHAR 0038
ENCODING 56
SWIDTH 546 0
DWIDTH 35 0
BBX 37 60 0 -11
BITMAP
0003FC0000
001FFF8000
007FFFE000
01FFFFF000
03FC03FC00
07F000FE00
0FC0003E00
0F80001F00
1F00000F80
1E00000780
3E000007C0
3C000003C0
3C00F003C0
7801FC01E0
7801FC01E0
7803FE01E0
7803FE01E0
7803FE01E0
7801FC01E0
7801FC01E0
7C007001E0
7C000003E0
7C000003E0
7E000007E0
7F000007E0
7F000007E0
3E000003E0
3E000003E0
7C000001F0
78000000F0
7800F800F0
F801FC00F8
F003FE0078
F007FF0078
F007FF0078
F007FF0078
F007FF0078
F007FF0078
F003FE0078
F001FC00F8
F800F800F8
F8000000F8
FC000001F8
FC000001F8
FE000003F8
FF000007F8
7F80000FF0
7FC0001FF0
7FF0007FF0
3FFC01FFE0
3FFFFFFFE0
1FFFFFFFC0
1FFFFFFFC0
0FFFFFFF80
07FFFFFF00
03FFFFFE00
01FFFFFC00
007FFFF000
001FFFC000
0003FE0000
ENDCHAR
STARTCHAR 0039
ENCODING 57
SWIDTH 609 0
DWIDTH 39 0
BBX 41 60 0 -11
BITMAP
0000FF800000
000FFFF80000
003FFFFE0000
007FFFFF0000
01FF007FC000
03F8000FE000
07E00007F000
0FC00001F800
0F800000F800
1F0000007C00
3E0000003E00
3C0000001E00
7C0000001F00
78003E000F00
7800FF800F00
F801FFC00F00
F003FFE00780
F003FFE00780
F007FFF00780
F007FFF00780
F007FFF00780
F007FFF00780
F007FFF00780
F003FFE00780
F003FFE00780
F801FFC00780
F800FF800780
F8003E000780
FC0000000780
FC0000000780
FE0000000780
7F0000000780
7F8000000780
7FC000000780
7FE000000780
3FF800100780
3FFF00E00780
1FCFFFE00780
0F03FFC00F80
1F00FF800F80
1E007E000F80
1E0000001F80
1E0000003F80
1E0000003F80
0F0000007F00
0F800000FF00
1FC00001FF00
1FE00007FF00
1FF8000FFE00
1FFF007FFE00
1FFFFFFFFC00
0FFFFFFFF800
0FFFFFFFF800
07FFFFFFF000
03FFFFFFE000
01FFFFFF8000
007FFFFF0000
003FFFFE0000
000FFFF00000
0000FF800000
ENDCHAR
STARTCHAR 003A
ENCODING 58
SWIDTH 265 0
DWIDTH 17 0
BBX 19 40 0 -11
BITMAP
03F800
0FFE00
1FFF00
3FFF80
7E0FC0
7C07C0
F803E0
F001E0
F001E0
F001E0
F001E0
F803E0
FC07C0
FE0FC0
FFFFE0
FFFFE0
FFFFE0
FFFFE0
FE0FE0
7C07C0
7803C0
F003E0
F001E0
F001E0
F001E0
F001E0
F003C0
F803C0
FC07E0
FE0FE0
FFFFE0
FFFFE0
FFFFE0
FFFFE0
7FFFC0
7FFFC0
3FFF80
1FFF00
0FFE00
03F800
ENDCHAR
STARTCHAR 003B
ENCODING 59
SWIDTH 265 0
DWIDTH 17 0
BBX 19 47 0 -18
BITMAP
03F800
0FFE00
1FFF00
3FFF80
7E0FC0
7C07C0
F803E0
F001E0
F001E0
F001E0
F001E0
F803E0
FC07C0
FE0FE0
FFFFE0
FFFFE0
FFFFE0
FFFFE0
FE0FE0
7C07C0
7803C0
F001E0
F001E0
F001E0
F001E0
F001E0
F001E0
F001E0
F001E0
F001E0
F001E0
F001E0
F001E0
F001E0
F803E0
FC07E0
FE0FE0
FFFFE0
FFFFE0
FFFFE0
FFFFE0
7FFFC0
7FFFC0
3FFF80
1FFF00
0FFE00
03F800
ENDCHAR
STARTCHAR 003C
ENCODING 60
SWIDTH 328 0
DWIDTH 21 0
BBX 23 36 0 -5
BITMAP
000F80
003FE0
007FF0
00FFF8
01F8FC
03E03C
07C03E
0F801E
1F801E
3F001E
7E001E
7C003E
F8007E
F000FE
F001FE
F001FE
F000FE
78007E
7C003E
FE001E
FF001E
FF001E
FF801E
FFC03E
7FE03E
7FF8FE
3FFFFE
1FFFFE
0FFFFE
07FFFE
07FFFC
03FFFC
01FFF8
007FF0
003FE0
000F80
ENDCHAR
STARTCHAR 003D
ENCODING 61
SWIDTH 484 0
DWIDTH 31 0
BBX 32 36 0 -5
BITMAP
07FFFFE0
1FFFFFF8
3FFFFFFC
7FFFFFFE
7C00003E
F800001F
F000000F
F000000F
F000000F
F000000F
F000000F
F800001F
FC00003F
FFFFFFFF
FFFFFFFF
FFFFFFFF
FFFFFFFF
FC00003F
F800001F
F000000F
F000000F
F000000F
F000000F
F000000F
F800001F
FC00003F
FFFFFFFF
FFFFFFFF
FFFFFFFF
FFFFFFFF
FFFFFFFF
7FFFFFFE
7FFFFFFE
3FFFFFFC
1FFFFFF8
07FFFFE0
ENDCHAR
STARTCHAR 003E
ENCODING 62
SWIDTH 328 0
DWIDTH 21 0
BBX 23 36 0 -5
BITMAP
03E000
0FF800
1FFC00
3FFE00
7E3F00
780F80
F807C0
F003E0
F003F0
F001F8
F000FC
78007C
FC003E
FE001E
FF001E
FF001E
FE001E
FC003E
F8007E
F000FE
F001FE
F003FE
F007FE
F807FE
780FFC
FE3FFC
FFFFF8
FFFFF0
FFFFE0
FFFFC0
7FFFC0
7FFF80
3FFF00
1FFC00
0FF800
03E000
ENDCHAR
STARTCHAR 003F
ENCODING 63
SWIDTH 609 0
DWIDTH 39 0
BBX 41 60 0 -11
BITMAP
0000FF800000
000FFFF80000
003FFFFE0000
007FFFFF0000
01FF007FC000
03F8000FE000
07E00007F000
0FC00001F800
0F800000F800
1F0000007C00
3E0000003E00
3C0000003E00
7C0000001F00
78003E000F00
7800FF800F00
7801FFC00F00
F003FFE00780
F003FFE00780
F007FFF00780
F007FFF00780
F007FFF00780
F007FFF00780
F80FFFF00780
F80FE3E00780
FF7FFFE00780
FFFFFFC00F80
FFFFFF800F80
FFFFFE000F80
FFF800001F80
FFF000003F80
7FF000003F80
7FE000007F80
3FE00000FF00
1FE00001FF00
07E00007FF00
01F0000FFE00
01F8007FFE00
01FFFFFFFC00
01FFFFFFFC00
01FC3FFFF800
01F80FFFF000
01F007FFE000
01E007FFC000
01E007FF8000
01E007FE0000
01E007F80000
01E007E00000
01F007800000
01F80FC00000
01FC3FC00000
01FFFFC00000
01FFFFC00000
01FFFFC00000
01FFFFC00000
00FFFF800000
00FFFF800000
007FFF000000
003FFE000000
001FFC000000
0007F0000000
ENDCHAR
STARTCHAR 0040
ENCODING 64
SWIDTH 812 0
DWIDTH 52 0
BBX 54 60 0 -11
BITMAP
000003FF000000
00003FFFF00000
0001FFFFFE0000
0007FFFFFF8000
000FFC00FFC000
003FE0001FF000
007F000003F800
00FE000001FC00
01F80000007E00
03F00000003F00
07E00000001F80
07C00000000F80
0F8000000007C0
1F0001FE0003E0
1F000FFFC003E0
3E001FFFE001F0
3C007F03F000F0
3C00F8007800F0
7800F0003C00F8
7801E0001E0078
7803C0000F0078
F803807C07007C
F00380FE07003C
F00781FF07803C
F00703FF83803C
F00703FF83803C
F00703FF83803C
F00703FF83803C
F00703FF83803C
F00701FF83803C
F00780FF83003C
F003807F83003C
F803800383007C
F803C00182007C
F801E00180007C
F800F0018000FC
FC007C018000FC
FC003F038000FC
FE001FFF8001FC
7E0007FF8003F8
7F0001FE0003F8
7F8000000007F8
3FC00000000FF0
3FE00000001FF0
3FF00000003FF0
1FF80000007FE0
1FFC000001FFE0
0FFF000003FFC0
07FFC0000FFF80
07FFFC00FFFF80
03FFFFFFFFFF00
01FFFFFFFFFE00
00FFFFFFFFFC00
007FFFFFFFF800
003FFFFFFFF000
000FFFFFFFC000
0007FFFFFF8000
0001FFFFFE0000
00003FFFF00000
000007FF800000
ENDCHAR
STARTCHAR 0041
ENCODING 65
SWIDTH 609 0
DWIDTH 39 0
BBX 51 74 0 -25
BITMAP
0000FF80000000
000FFFF8000000
003FFFFE000000
007FFFFF000000
01FF007FC00000
03F8000FE00000
07E00003F00000
0FC00001F00000
0F800000F80000
1F0000007C0000
3E0000003E0000
3C0000001E0000
7C0000001F0000
78003E000F0000
7800FF800F0000
F801FFC00F0000
F003FFE0078000
F003FFE0078000
F007FFF0078000
F007FFF0078000
F007FFF0078000
F007FFF0078000
F007FFF0078000
F007E3F0078000
F007FFE0078000
F007FFC0078000
F007FFC0078000
F007FF00078000
F007F000078000
F007C000078000
F0078000078000
F0078000078000
F0078000078000
F0078000078000
F0078000078000
F007C010078000
F007E0F0078000
F007FFF0078000
F007FFF0078000
F007FFF0078000
F007FFF0078000
F007FFF0078000
F007FFF0078000
F007FFF0078000
F007FFF0078000
F007FFF0078000
F007FFF0078000
F00780F0078000
F80F80F0078000
FC1F80F0078000
FFFF80F0078000
FFFF80F007F800
FFFF80F003FE00
FFFF80F003FF80
FFFF80F800FF80
7FFF00F80007C0
7FFF00F80003E0
3FFE00FC0001E0
1FFC00FE0001E0
07E000FF0001E0
000000FF8001E0
0000007FC001E0
0000007FF003C0
0000007FFC07E0
0000003FFFFFE0
0000001FFFFFE0
0000001FFFFFE0
0000000FFFFFE0
00000007FFFFE0
00000003FFFFC0
00000001FFFFC0
000000007FFF80
000000001FFE00
0000000003F800
ENDCHAR
STARTCHAR 0042
ENCODING 66
SWIDTH 515 0
DWIDTH 33 0
BBX 35 60 0 -11
BITMAP
0007FC0000
003FFF8000
00FFFFE000
01FFFFF000
03FC07F800
07E000FC00
0FC0007E00
1F00001F00
3E00000F80
3C00000F80
7C000007C0
78000003C0
78000003C0
F801F803E0
F003FC01E0
F007FE01E0
F007FE01E0
F007FE01E0
F007FE01E0
F007FE01E0
F007FC01E0
F007F803E0
F0078003E0
F0060003E0
F0040007E0
F008000FE0
F008000FE0
F008001FE0
F008000FC0
F0040007C0
F0060003C0
F007E003C0
F007F803E0
F007FC01E0
F007FE01E0
F007FE01E0
F007FE01E0
F007FE01E0
F007FC01E0
F007FC01E0
F007F803E0
F0070003E0
F0040003E0
F0040007E0
F008000FE0
F008000FE0
F008001FE0
F008007FC0
F80C00FFC0
FC1E07FFC0
FFFFFFFF80
FFFFFFFF80
FFFFFFFF00
FFFFFFFE00
FFFFFFFC00
7FFFFFF800
7FFFFFF000
3FFFFFE000
1FFFFF8000
07F3FC0000
ENDCHAR
STARTCHAR 0043
ENCODING 67
SWIDTH 531 0
DWIDTH 34 0
BBX 36 60 0 -11
BITMAP
000003FC00
00003FFF00
0001FFFFC0
0003FFFFC0
000FFC03E0
001FE001F0
007F8000F0
00FE0000F0
01F80000F0
03F00000F0
07E00001F0
07C00001E0
0F800007F0
1F0003FFF0
1F000FFFF0
3E001FFFF0
3C007FFFF0
3C00FFFFF0
7C00FFFFE0
7801FFFFE0
7803FFFFC0
F803FFFF80
F003FFFE00
F007FF8000
F007FC0000
F007F00000
F007E00000
F007C00000
F007C00000
F007800000
F007800000
F003C00000
F803C00000
F803E00000
F801F00000
F800FC0000
FC00FF8000
FC007FFE00
FE001FFF00
7F000FFFC0
7F0003FFC0
7F800007E0
3FC00001F0
3FE00001F0
3FF00000F0
1FF80000F0
1FFE0000F0
0FFF0000F0
07FFE001E0
07FFFC03F0
03FFFFFFF0
01FFFFFFF0
00FFFFFFF0
007FFFFFF0
003FFFFFF0
000FFFFFE0
0007FFFFE0
0001FFFFC0
00003FFF00
000003FC00
ENDCHAR
STARTCHAR 0044
ENCODING 68
SWIDTH 671 0
DWIDTH 43 0
BBX 45 60 0 -11
BITMAP
03FFFF000000
0FFFFFE00000
3FFFFFFC0000
3FFFFFFF0000
7C0001FF8000
7800001FE000
F0000007F000
F0000003F800
F0000000FC00
F00000007E00
F00000003F00
F00000001F00
F00000000F80
F007FC0007C0
F007FF8007C0
F007FFC003E0
F007FFE001E0
F007FFF001E0
F007FFF801F0
F007FFFC00F0
F007FFFE00F0
F007FFFE00F8
F007FFFE0078
F00787FF0078
F00780FF0078
F007807F0078
F007803F0078
F007801F0078
F007801F0078
F007800F0078
F007800F0078
F007801E0078
F007801E00F8
F007803E00F8
F007807C00F8
F00780F800F8
F00787F001F8
F007FFE001F8
F007FFC003F8
F007FF8003F0
F007FC0007F0
F00700000FF0
F00600001FE0
F00400003FE0
F00400007FE0
F0040000FFC0
F0040001FFC0
F0040007FF80
F80E001FFF00
FC1F01FFFF00
FFFFFFFFFE00
FFFFFFFFFC00
FFFFFFFFF800
FFFFFFFFF000
FFFFFFFFE000
7FFFFFFF8000
7FFFFFFF0000
3FFFFFFC0000
1FFFFFE00000
07F1FF000000
ENDCHAR
STARTCHAR 0045
ENCODING 69
SWIDTH 531 0
DWIDTH 34 0
BBX 36 60 0 -11
BITMAP
000003FC00
00003FFF00
0001FFFFC0
0003FFFFC0
000FFC03E0
001FE001F0
007F8000F0
00FE0000F0
01F80000F0
03F00000F0
07E00000F0
07C00001E0
0F800003F0
1F0000FFF0
1F0007FFF0
3E001FFFF0
3C003FFFF0
3C007FFFF0
7C00FFFFE0
7801FFFFC0
7801FFFF80
F803FFFFC0
F003FFFFE0
F0000003E0
F0000001F0
F0000000F0
F0000000F0
F0000000F0
F0000000F0
F0000001E0
F0000003E0
F003FFFFF0
F803FFFFF0
F803FFFFF0
F801FFFFF0
F800FFFFF0
FC007FFFE0
FC003FFFE0
FE001FFFC0
7F0007FF80
7F0000FFC0
7F800003E0
3FC00001F0
3FE00000F0
3FF00000F0
1FF80000F0
1FFE0000F0
0FFF0000F0
07FFE001E0
07FFFC03F0
03FFFFFFF0
01FFFFFFF0
00FFFFFFF0
007FFFFFF0
003FFFFFF0
000FFFFFE0
0007FFFFE0
0001FFFFC0
00003FFF00
000003FC00
ENDCHAR
STARTCHAR 0046
ENCODING 70
SWIDTH 468 0
DWIDTH 30 0
BBX 32 60 0 -11
BITMAP
0007FFE0
003FFFF0
00FFFFFC
01FFFFFE
03FC003E
07E0001F
0FC0000F
1F00000F
3E00000F
3E00000F
7C00000F
7800001F
7800003F
F800FFFF
F003FFFF
F003FFFF
F007FFFF
F007FFFF
F007FFFE
F007FFFE
F007FFFC
F007FFF8
F007FFFC
F007FFFE
F000003E
F000001F
F000000F
F000000F
F000000F
F000000F
F000000F
F000001F
F000003F
F007FFFF
F007FFFF
F007FFFF
F007FFFF
F007FFFF
F007FFFE
F007FFFE
F007FFFC
F007FFF8
F007FFE0
F0078000
F0078000
F0078000
F0078000
F0078000
F80F8000
FC1F8000
FFFF8000
FFFF8000
FFFF8000
FFFF8000
FFFF8000
7FFF0000
7FFF0000
3FFE0000
1FFC0000
07E00000
ENDCHAR
STARTCHAR 0047
ENCODING 71
SWIDTH 812 0
DWIDTH 52 0
BBX 54 60 0 -11
BITMAP
000003FF000000
00003FFFF00000
0001FFFFFE0000
0003FFFFFF8000
000FFC00FFE000
001FE0000FF000
007F000003FC00
00FE000000FE00
01F80000007F00
03F00000003F00
07E00000000F80
07C00000000780
0F8000000007C0
1F0001FE0003C0
1F0007FFC003C0
3E001FFFF003C0
3C003FFFF803C0
3C007FFFFC0780
7C00FFFFFF1F80
7801FFFFFFFFC0
7803FFFFFFFFE0
F803FFFFFFFFF0
F003FFFFFFFFF8
F007FEFC0000F8
F007F8F800007C
F007F0F000003C
F007E0F000003C
F007C0F000003C
F007C0F000003C
F00780F800003C
F00780FC00003C
F003C0FFFF803C
F803C0FFFF007C
F803E0FFFF007C
F801F0FFFE007C
F800F8FFFC007C
FC007EFFFC00FC
FC003FFFF800FC
FE001FFFE001FC
7E000FFFC001F8
7F0001FE0003F8
7F8000000007F8
3FC00000000FF0
3FE00000001FF0
3FF00000003FF0
1FF80000007FE0
1FFC000000FFE0
0FFF000003FFC0
07FFC0000FFF80
07FFFC00FFFF80
03FFFFFFFFFF00
01FFFFFFFFFE00
00FFFFFFFFFC00
007FFFFFFFF800
003FFFFFFFF000
000FFFFFFFC000
0007FFFFFF8000
0001FFFFFE0000
00003FFFF00000
000007FF800000
ENDCHAR
STARTCHAR 0048
ENCODING 72
SWIDTH 640 0
DWIDTH 41 0
BBX 53 74 0 -25
BITMAP
07F00001F80000
1FFC0007FE0000
3FFE000FFF8000
7FFF001FFF8000
7C1F001F07C000
F80F803E03E000
F007803C01E000
F007803C01E000
F007803C01E000
F007803C01E000
F007803C01E000
F007803C01E000
F007803C01E000
F007803C01E000
F007803C01E000
F007803C01E000
F007FFFC01E000
F007FFFC01E000
F007FFFC01E000
F007FFFC01E000
F000000001E000
F000000001E000
F000000001E000
F000000001E000
F000000001E000
F000000001E000
F000000001E000
F000000001E000
F000000001E000
F007FFFC01E000
F007FFFC01E000
F007FFFC01E000
F007FFFC01E000
F007FFFC01E000
F007FFFC01E000
F007FFFC01E000
F007FFFC01E000
F007FFFC01E000
F007FFFC01E000
F007803C01E000
F007803C01E000
F007803C01E000
F007803C01E000
F007803C01E000
F007803C01E000
F007803C01E000
F007803C01E000
F007803C01E000
F80F803C01E000
FC1F803C01E000
FFFF803C01E000
FFFF803C01FE00
FFFF803C00FF80
FFFF803C00FFE0
FFFF003E003FE0
7FFF003E0001F0
7FFE003E0000F8
3FFE003F000078
1FF8003F800078
07E0003FC00078
0000001FE00078
0000001FF00078
0000001FF800F8
0000000FFF01F8
0000000FFFFFF8
00000007FFFFF8
00000007FFFFF8
00000003FFFFF8
00000001FFFFF8
00000000FFFFF0
000000007FFFF0
000000001FFFE0
0000000007FF80
0000000000FE00
ENDCHAR
STARTCHAR 0049
ENCODING 73
SWIDTH 234 0
DWIDTH 15 0
BBX 17 60 0 -11
BITMAP
07E000
1FF800
3FFE00
7FFF00
7C1F00
F80F80
F00780
F00780
F00780
F00780
F00780
F00780
F00780
F00780
F00780
F00780
F00780
F00780
F00780
F00780
F00780
F00780
F00780
F00780
F00780
F00780
F00780
F00780
F00780
F00780
F00780
F00780
F00780
F00780
F00780
F00780
F00780
F00780
F00780
F00780
F00780
F00780
F00780
F00780
F00780
F00780
F00780
F00780
F80F80
FC1F80
FFFF80
FFFF80
FFFF80
FFFF80
FFFF80
7FFF00
7FFF00
3FFE00
1FF800
07E000
ENDCHAR
STARTCHAR 004A
ENCODING 74
SWIDTH 531 0
DWIDTH 34 0
BBX 37 60 0 -11
BITMAP
0000007E00
000001FF80
000003FFE0
000007FFF0
000007C1F0
00000F80F8
00000F0078
00000F0078
00000F0078
00000F0078
00000F0078
00000F0078
00000F0078
00000F0078
00000F0078
00000F0078
00000F0078
00000F0078
00000F0078
00000F0078
00000F0078
00000F0078
00000F0078
00000F0078
00000F0078
00000F0078
00000F0078
03E00F0078
0FF80F0078
3FFE0F0078
7FFE0F0078
7C1F0F0078
F80F0F0078
F0078F0078
F0078F0078
F0078F0078
F0078F0078
F007FF0078
F003FE0078
F001FC0078
F800F800F8
F8000000F8
FC000001F8
FC000001F8
FE000003F8
FF000007F8
7F80000FF0
7FC0001FF0
7FF0007FF0
3FFC03FFE0
3FFFFFFFE0
1FFFFFFFC0
1FFFFFFFC0
0FFFFFFF80
07FFFFFF00
03FFFFFE00
01FFFFFC00
007FFFF000
001FFFC000
0003FE0000
ENDCHAR
STARTCHAR 004B
ENCODING 75
SWIDTH 562 0
DWIDTH 36 0
BBX 47 74 0 -25
BITMAP
07E000000000
1FF800000000
3FFE00000000
7FFE00000000
7C1F00000000
F80F80000000
F00780000000
F00780000000
F00783F00000
F0078FFC0000
F0079FFF0000
F007BFFF0000
F007BE0F8000
F007FC078000
F007F803C000
F007F803C000
F007F803C000
F007F803C000
F007F803C000
F007F0038000
F007E0078000
F007C007C000
F000000FC000
F000000FC000
F000000FC000
F0000003E000
F0000001F000
F0000001F000
F0000000F800
F00000007800
F00000007800
F007FC007C00
F007FE003C00
F007FF003C00
F007FF803C00
F007FF803C00
F007FF803C00
F007FF803C00
F007FF803C00
F007FF803C00
F007FF803C00
F00787803C00
F00787803C00
F00787803C00
F00787803C00
F00787803C00
F00787803C00
F00787803C00
F80F87803C00
FC1F87803C00
FFFF87803C00
FFFF87803FC0
FFFF87801FF0
FFFF87801FF8
FFFF87C007FC
7FFF07C0007C
7FFF07C0003E
3FFE07E0001E
1FFC07E0001E
07E007F0001E
000007F8001E
000003FC001E
000003FF003E
000003FFE07E
000001FFFFFE
000001FFFFFE
000000FFFFFE
0000007FFFFE
0000003FFFFE
0000001FFFFC
0000000FFFFC
00000007FFF8
00000001FFF0
000000003FC0
ENDCHAR
STARTCHAR 004C
ENCODING 76
SWIDTH 421 0
DWIDTH 27 0
BBX 29 60 0 -11
BITMAP
07E00000
1FF80000
3FFE0000
7FFE0000
7C1F0000
F80F8000
F0078000
F0078000
F0078000
F0078000
F0078000
F0078000
F0078000
F0078000
F0078000
F0078000
F0078000
F0078000
F0078000
F0078000
F0078000
F0078000
F0078000
F0078000
F0078000
F0078000
F0078000
F0078000
F0078000
F0078000
F0078000
F0078000
F0078000
F0078000
F0078000
F0078000
F0078000
F007FF00
F003FFC0
F003FFE0
F800FFF0
F80001F0
F80000F8
FC000078
FE000078
FE000078
FF000078
7FC00078
7FE000F8
7FFC01F8
3FFFFFF8
3FFFFFF8
1FFFFFF8
0FFFFFF8
07FFFFF8
03FFFFF0
01FFFFF0
00FFFFE0
003FFFC0
0007FF00
ENDCHAR
STARTCHAR 004D
ENCODING 77
SWIDTH 812 0
DWIDTH 52 0
BBX 64 74 0 -25
BITMAP
0003FE01FF000000
001FFFCFFFE00000
007FFFFFFFF80000
01FFFFFFFFFE0000
03FC03FF00FF0000
07E00078001F8000
0FC00030000FC000
1F8000000007E000
1F0000000003E000
3E0000000001F000
7C0000000000F000
7800000000007800
7800000000007800
F800F0003C007800
F003F800FE003C00
F003FC00FF003C00
F007FE00FF803C00
F007FE00FF803C00
F007FE00FF803C00
F007FE00FF803C00
F007FE00FF803C00
F007FE00FF803C00
F007FE00FF803C00
F0079E00F7803C00
F0079E00F7803C00
F0079E00F7803C00
F0079E00F7803C00
F0079E00F7803C00
F0079E00F7803C00
F0079E00F7803C00
F0079E00F7803C00
F0079E00F7803C00
F0079E00F7803C00
F0079E00F7803C00
F0079E00F7803C00
F0079E00F7803C00
F0079E00F7803C00
F0079E00F7803C00
F0079E00F7803C00
F0079E00F7803C00
F0079E00F7803C00
F0079E00F7803C00
F0079E00F7803C00
F0079E00F7803C00
F0079E00F7803C00
F0079E00F7803C00
F0079E00F7803C00
F0079E00F7803C00
F80F9F01F7803C00
FC1F9F83F7803C00
FFFF9FFFF7803C00
FFFF9FFFF7803FC0
FFFF9FFFF7801FF0
FFFF9FFFF7800FFC
FFFF9FFFF7C007FC
7FFF0FFFE7C0003E
7FFF0FFFE7C0001F
3FFE07FFC7E0000F
1FFC03FF87F0000F
03F000FC07F8000F
0000000007FC000F
0000000003FE000F
0000000003FF001E
0000000003FFE03F
0000000001FFFFFF
0000000000FFFFFF
0000000000FFFFFF
00000000007FFFFF
00000000003FFFFF
00000000001FFFFE
00000000000FFFFE
000000000003FFFC
000000000000FFF8
0000000000001FC0
ENDCHAR
STARTCHAR 004E
ENCODING 78
SWIDTH 531 0
DWIDTH 34 0
BBX 46 74 0 -25
BITMAP
0003FC000000
001FFF800000
007FFFE00000
01FFFFF80000
03FC03FC0000
07E000FE0000
0FC0003F0000
1F80001F8000
1F00000FC000
3E000007C000
7C000003E000
78000001E000
78000001E000
F800F001F000
F003F800F000
F003FC00F000
F007FE00F000
F007FE00F000
F007FE00F000
F007FE00F000
F007FE00F000
F007FE00F000
F007FE00F000
F0079E00F000
F0079E00F000
F0079E00F000
F0079E00F000
F0079E00F000
F0079E00F000
F0079E00F000
F0079E00F000
F0079E00F000
F0079E00F000
F0079E00F000
F0079E00F000
F0079E00F000
F0079E00F000
F0079E00F000
F0079E00F000
F0079E00F000
F0079E00F000
F0079E00F000
F0079E00F000
F0079E00F000
F0079E00F000
F0079E00F000
F0079E00F000
F0079E00F000
F80F9E00F000
FC1F9E00F000
FFFF9E00F000
FFFF9E00FF00
FFFF9E007FC0
FFFF9E003FF0
FFFF9F001FF0
7FFF1F0000F8
7FFF1F00007C
3FFE1F80003C
1FFC1FC0003C
07E01FC0003C
00001FE0003C
00000FF8003C
00000FFC0078
00000FFF80FC
000007FFFFFC
000007FFFFFC
000003FFFFFC
000001FFFFFC
000000FFFFFC
0000007FFFF8
0000003FFFF8
0000000FFFF0
00000003FFC0
000000007F00
ENDCHAR
STARTCHAR 004F
ENCODING 79
SWIDTH 812 0
DWIDTH 52 0
BBX 54 60 0 -11
BITMAP
000007FF000000
00003FFFF00000
0001FFFFFC0000
0007FFFFFF0000
000FFC00FFC000
003FC0001FE000
007F000007F800
00FC000001FC00
01F80000007E00
03F00000003F00
07E00000001F00
0FC00000000F80
0F8000000007C0
1F0001FE0003C0
1E000FFFC003E0
3E001FFFE001E0
3C007FFFF001F0
7C00FFFFFC00F0
7800FFFFFC00F8
7801FFFFFE0078
F803FFFFFF0078
F003FFFFFF0078
F007FFFFFF0078
F007FE03FF803C
F007F800FF803C
F007F0003F803C
F007E0001F803C
F007C0001F803C
F00780000F803C
F00780000F803C
F00780000F803C
F00780000F007C
F003C0001F007C
F803E0001F007C
F801F0003E007C
F800F800FC00FC
FC00FE03FC00FC
FC007FFFF801FC
FE001FFFE001F8
FE000FFFC003F8
7F0001FE0003F8
7F8000000007F8
7FC00000000FF0
3FE00000001FF0
3FF00000003FE0
1FF80000007FE0
1FFC000001FFC0
0FFF000003FFC0
0FFFC0001FFF80
07FFFC00FFFF00
03FFFFFFFFFF00
01FFFFFFFFFE00
00FFFFFFFFFC00
007FFFFFFFF800
003FFFFFFFE000
000FFFFFFFC000
0007FFFFFF0000
0001FFFFFE0000
00007FFFF00000
000007FF000000
ENDCHAR
STARTCHAR 0050
ENCODING 80
SWIDTH 609 0
DWIDTH 39 0
BBX 41 60 0 -11
BITMAP
0000FF800000
000FFFF80000
003FFFFE0000
007FFFFF0000
01FF007FC000
03F8000FE000
07E00007F000
0FC00001F800
0F800000F800
1F0000007C00
3E0000003E00
3C0000003E00
7C0000001F00
78003E000F00
7800FF800F00
F801FFC00F00
F003FFE00780
F003FFE00780
F007FFF00780
F007FFF00780
F007FFF00780
F007FFF00780
F007FFF00780
F007E3F00780
F007FFE00780
F007FFC00F80
F007FF800F80
F007FF000F80
F007F0001F80
F00780003F80
F00780003F80
F00700007F00
F0070000FF00
F0070001FF00
F0078007FF00
F007800FFE00
F007C07FFE00
F007FFFFFC00
F007FFFFF800
F007FFFFF800
F007FFFFF000
F007FFFFE000
F007FFFFC000
F007FFFF0000
F007FFFE0000
F007FFF80000
F007FF800000
F00780000000
F80F80000000
FC1F80000000
FFFF80000000
FFFF80000000
FFFF80000000
FFFF80000000
FFFF80000000
7FFF00000000
7FFE00000000
3FFE00000000
1FF800000000
07E000000000
ENDCHAR
STARTCHAR 0051
ENCODING 81
SWIDTH 812 0
DWIDTH 52 0
BBX 54 75 0 -26
BITMAP
000003FF000000
00003FFFF00000
0001FFFFFE0000
0007FFFFFF8000
000FFC00FFC000
003FE0001FF000
007F000003F800
00FE000001FC00
01F80000007E00
03F00000003F00
07E00000001F80
07C00000000F80
0F8000000007C0
1F0003FF8003E0
1F000FFFE003E0
3E003FFFF001F0
3C007FFFF800F0
3C00FFFFFC00F0
7C01FFFFFE00F8
7801FFFFFE0078
7803FFFFFF0078
F803FFFFFF0078
F003FFFFFF803C
F00701FFFF803C
F006007EFF803C
F004001F3F803C
F004000F9F803C
F0040007CF803C
F0040003CF803C
F0060003EF803C
F0060001EF803C
F003C001EF803C
F803F801FF007C
F803FC00FF007C
F801FE00FE007C
F801FE00FE007C
FC00FE00FC00FC
FC007E00F800FC
FE003E00F001FC
7E001E00C001F8
7F001E000003F8
7F801E000007F8
7FC01E00000FF0
3FE01E00001FF0
3FF03E00003FF0
1FF87E00007FE0
1FFFFE0000FFE0
0FFFFE0003FFC0
07FFFE000FFF80
07FFFE007FFF80
03FFFE00FFFF00
01FFFE00FFFE00
00FFFE00FFFC00
007FFE00FFF800
003FFE00FFF000
000FDE00FFE000
00001E00FF8000
00001E00FE0000
00001E00F80000
00001E00F00000
00001E00F00000
00001E00F00000
00001E00F00000
00001F01F00000
00001F83F00000
00001FFFF00000
00001FFFF00000
00001FFFF00000
00001FFFE00000
00001FFFE00000
00000FFFE00000
00000FFFC00000
000007FFC00000
000003FF800000
0000007E000000
ENDCHAR
STARTCHAR 0052
ENCODING 82
SWIDTH 609 0
DWIDTH 39 0
BBX 41 60 0 -11
BITMAP
0000FF800000
000FFFF80000
003FFFFE0000
007FFFFF0000
01FF007FC000
03F8000FE000
07E00007F000
0FC00001F800
0F800000F800
1F0000007C00
3E0000003E00
3C0000003E00
7C0000001F00
78003E000F00
7800FF800F00
F801FFC00F00
F003FFE00780
F003FFE00780
F007FFF00780
F007FFF00780
F007FFF00780
F007FFF00780
F007FFF00780
F007E7F00780
F007FFE00F80
F007FFC00F80
F007FFC00F80
F007FF001F80
F007F0001F80
F007C0003F80
F007C0003F80
F00780007F00
F0078000FF00
F0078001FF00
F0078007FE00
F007801FFE00
F007807FFE00
F007807FFC00
F007807FF800
F007803FF800
F007C01FF800
F007C001F800
F007C0007C00
F007E0003C00
F007E0003C00
F007F0003C00
F007F8003C00
F007FC003C00
F80FFF007C00
FC1FFFC0FC00
FFFFFFFFFC00
FFFFFFFFFC00
FFFFFFFFFC00
FFFFFFFFFC00
FFFF7FFFFC00
7FFF3FFFF800
7FFE1FFFF800
3FFC0FFFF000
1FF803FFE000
07E0007F8000
ENDCHAR
STARTCHAR 0053
ENCODING 83
SWIDTH 484 0
DWIDTH 31 0
BBX 33 60 0 -11
BITMAP
00000FE000
00007FF800
0000FFFE00
0003FFFF00
0007F81F00
000FC00F80
001F800780
001F000780
003E000780
007C000780
0078000780
0078000F80
00F8003F80
00F003FF80
00F007FF80
00F007FF80
00F007FF80
00F007FF80
00F007FF00
00F007FF00
00F007FE00
00F007FC00
00F007F000
00F0078000
00F0078000
00F0078000
00F0078000
00F0078000
00F0078000
00F0078000
00F0078000
00F0078000
00F0078000
00F0078000
00F0078000
00F0078000
00F0078000
07F0078000
1FF0078000
3FE0078000
7FE0078000
7E000F8000
F8000F8000
F0001F8000
F0001F8000
F0003F8000
F0007F8000
F000FF8000
7803FF0000
FC0FFF0000
FFFFFE0000
FFFFFE0000
FFFFFC0000
FFFFFC0000
FFFFF80000
7FFFF00000
7FFFE00000
3FFF800000
1FFE000000
07F8000000
ENDCHAR
STARTCHAR 0054
ENCODING 84
SWIDTH 546 0
DWIDTH 35 0
BBX 37 60 0 -11
BITMAP
07FFFFFF00
1FFFFFFF80
3FFFFFFFE0
7FFFFFFFF0
7C000001F0
F8000000F8
F000000078
F000000078
F000000078
F000000078
F000000078
78000000F8
FC000001F8
FFFC01FFF8
FFFC01FFF8
FFFC01FFF8
FFFC01FFF8
FFFC01FFF8
7FFC01FFF0
7FFC01FFF0
3FFC01FFE0
1FFC01FFC0
07FC01FF00
003C01E000
003C01E000
003C01E000
003C01E000
003C01E000
003C01E000
003C01E000
003C01E000
003C01E000
003C01E000
003C01E000
003C01E000
003C01E000
003C01E000
003C01E000
003C01E000
003C01E000
003C01E000
003C01E000
003C01E000
003C01E000
003C01E000
003C01E000
003C01E000
003C01E000
003E03E000
003F07E000
003FFFE000
003FFFE000
003FFFE000
003FFFE000
003FFFE000
001FFFC000
001FFFC000
000FFF8000
0007FF0000
0000FC0000
ENDCHAR
STARTCHAR 0055
ENCODING 85
SWIDTH 531 0
DWIDTH 34 0
BBX 36 60 0 -11
BITMAP
07E0007C00
1FF801FF00
3FFE07FFC0
7FFE07FFC0
7C1F0F83E0
F80F9F01F0
F0079E00F0
F0079E00F0
F0079E00F0
F0079E00F0
F0079E00F0
F0079E00F0
F0079E00F0
F0079E00F0
F0079E00F0
F0079E00F0
F0079E00F0
F0079E00F0
F0079E00F0
F0079E00F0
F0079E00F0
F0079E00F0
F0079E00F0
F0079E00F0
F0079E00F0
F0079E00F0
F0079E00F0
F0079E00F0
F0079E00F0
F0079E00F0
F0079E00F0
F0079E00F0
F0079E00F0
F0079E00F0
F0079E00F0
F0079E00F0
F0079E00F0
F007FE00F0
F003FC00F0
F003FC00F0
F800F001F0
F8000001F0
F8000001F0
FC000003F0
FE000007F0
FE00000FF0
FF00001FF0
7FC0003FE0
7FE0007FE0
7FFC03FFE0
3FFFFFFFC0
3FFFFFFF80
1FFFFFFF80
0FFFFFFF00
07FFFFFE00
03FFFFFC00
01FFFFF800
007FFFE000
003FFFC000
0003FC0000
ENDCHAR
STARTCHAR 0056
ENCODING 86
SWIDTH 609 0
DWIDTH 39 0
BBX 43 60 -2 -11
BITMAP
03F00000FC00
0FFC0003FF00
1FFE0007FF80
3FFF000FFFC0
7E1F001F87C0
780F801F03E0
7807C03E01E0
F007C03E01E0
F007C07C01E0
F803E07C01E0
7803E0FC01E0
7801F0F803E0
7C01F0F803E0
FC01F0F007E0
FC00F1F007E0
FE00F9F007E0
7E00F9E00FE0
7E007BE00FC0
7F007FE00FC0
3F007FC01FC0
3F003FC01F80
3F803FC01F80
1F803F803F80
1F801F803F00
1FC01F803F00
0FC00F007F00
0FC00F007E00
0FE00F007E00
07E00600FE00
07E00600FC00
03F00400FC00
03F00001FC00
03F00001F800
01F80001F800
01F80003F800
01FC0003F000
00FC0003F000
00FC0007F000
00FE0007E000
007E0007E000
007E000FE000
007F000FC000
003F001FC000
003F001FC000
003F801F8000
001F803F8000
001F803F0000
000FC03F0000
000FC07F0000
000FF0FE0000
0007FFFE0000
0007FFFE0000
0007FFFC0000
0003FFFC0000
0003FFFC0000
0003FFF80000
0001FFF80000
0000FFF00000
00007FE00000
00001F800000
ENDCHAR
STARTCHAR 0057
ENCODING 87
SWIDTH 812 0
DWIDTH 52 0
BBX 54 60 0 -11
BITMAP
03E000F8003F00
0FF803FE00FFC0
3FFE0FFF81FFF0
7FFE1FFF83FFF0
7C1F1F07C3E0F8
F80FBE03E7C07C
F007BC01E7803C
F007BC01E7803C
F007BC01E7803C
F007BC01E7803C
F007BC01E7803C
F007BC01E7803C
F007BC01E7803C
F007BC01E7803C
F007BC01E7803C
F007BC01E7803C
F007BC01E7803C
F007BC01E7803C
F007BC01E7803C
F007BC01E7803C
F007BC01E7803C
F007BC01E7803C
F007BC01E7803C
F007BC01E7803C
F007BC01E7803C
F007BC01E7803C
F007BC01E7803C
F007BC01E7803C
F007BC01E7803C
F007BC01E7803C
F007BC01E7803C
F007BC01E7803C
F007BC01E7803C
F007BC01E7803C
F007BC01E7803C
F007BC01E7803C
F007BC01E7803C
F007FC01FF803C
F003FC00FF003C
F003FC00FF003C
F800F0003C007C
F800000000007C
F800000000007C
FC0000000000FC
FE0000000001FC
FE0000000003FC
FF0000000007FC
7FC00030000FF8
7FE00078001FF8
7FFC03FF00FFF8
3FFFFFFFFFFFF0
3FFFFFFFFFFFE0
1FFFFFFFFFFFE0
0FFFFFFFFFFFC0
07FFFFFFFFFF80
03FFFFFFFFFF00
01FFFFFFFFFE00
007FFFFFFFF800
003FFFCFFFE000
0003FE01FF0000
ENDCHAR
STARTCHAR 0058
ENCODING 88
SWIDTH 531 0
DWIDTH 34 0
BBX 36 60 0 -11
BITMAP
07E0007C00
1FF801FF00
3FFE07FFC0
7FFF0FFFE0
7C1F0F83E0
F80F9F01F0
F0079E00F0
F0079E00F0
F0079E00F0
F0079E00F0
F0079E00F0
F0079E00F0
F0079E00F0
F0079E00F0
F0079E00F0
F0079E00F0
F0079E00F0
F0079E00F0
F007FE00F0
F003FC00F0
F003FC00F0
F800F001F0
F8000001F0
F8000001F0
FC000003F0
FE000007F0
FE000007F0
FF00000FF0
7E000007E0
7C000003E0
7C000003E0
78000001E0
F800F001F0
F003FC00F0
F003FC00F0
F007FE00F0
F007FE00F0
F007FE00F0
F007FE00F0
F007FE00F0
F007FE00F0
F007FE00F0
F0079E00F0
F0079E00F0
F0079E00F0
F0079E00F0
F0079E00F0
F0079E00F0
F80F9F01F0
FC1F9F83F0
FFFF9FFFF0
FFFF9FFFF0
FFFF9FFFF0
FFFF9FFFF0
FFFF9FFFF0
7FFF0FFFE0
7FFF0FFFE0
3FFE07FFC0
1FFC01FF80
07E0007E00
ENDCHAR
STARTCHAR 0059
ENCODING 89
SWIDTH 531 0
DWIDTH 34 0
BBX 36 60 0 -11
BITMAP
07E0007C00
1FF801FF00
3FFE07FFC0
7FFE07FFE0
7C1F0F83E0
F80F9F01F0
F0079E00F0
F0079E00F0
F0079E00F0
F0079E00F0
F0079E00F0
F0079E00F0
F0079E00F0
F0079E00F0
F0079E00F0
F0079E00F0
F0079E00F0
F0079E00F0
F007FE00F0
F003FC00F0
F003FC00F0
F800F000F0
F8000000F0
F8000000F0
FC000000F0
FE000000F0
FE000000F0
FF000000F0
7FC00000F0
7FE00000F0
7FFC0600F0
7C1FFE00F0
F80FFE00F0
F007FE00F0
F007FE00F0
F007FE00F0
F007FE00F0
F007FE00F0
F003FC00F0
F003FC00F0
F800F001F0
F8000001F0
F8000001F0
FC000003F0
FE000007F0
FF00000FF0
FF80001FF0
7FC0003FE0
7FE0007FE0
7FFC03FFE0
3FFFFFFFC0
3FFFFFFF80
1FFFFFFF80
0FFFFFFF00
07FFFFFE00
03FFFFFC00
01FFFFF800
007FFFE000
003FFFC000
0003FC0000
ENDCHAR
STARTCHAR 005A
ENCODING 90
SWIDTH 562 0
DWIDTH 36 0
BBX 39 60 -1 -11
BITMAP
003FFFFFC0
00FFFFFFF0
03FFFFFFF8
03FFFFFFFC
07C000007E
078000001E
0F0000001E
0F0000001E
0F0000001E
0F0000001E
0F8000001E
078000003E
0FF000003E
0FFFFC007E
0FFFFC00FE
0FFFF800FE
0FFFF801FE
07FFF001FE
07FFE003FC
03FFE007FC
03FFC007F8
01FFC00FF8
007F800FF0
000F001FE0
001F001FE0
001E003FC0
003E007FC0
007C007F80
007C00FF00
00F800FF00
00F001FE00
01F001FE00
01E003FC00
03E007FC00
07C007F800
07800FF000
0F800FF000
0F001FFFC0
1F003FFFF0
3E003FFFF8
3C007FFFFC
7C0000007C
780000003E
F80000001E
F00000001E
F00000001E
F00000001E
F00000001E
780000003E
7C0000007E
FFFFFFFFFE
FFFFFFFFFE
FFFFFFFFFE
FFFFFFFFFE
FFFFFFFFFE
7FFFFFFFFC
7FFFFFFFFC
3FFFFFFFF8
0FFFFFFFF0
03FFFFFFC0
ENDCHAR
STARTCHAR 005B
ENCODING 91
SWIDTH 437 0
DWIDTH 28 0
BBX 29 81 0 -24
BITMAP
0003FF00
001FFFC0
007FFFE0
01FFFFF0
03FC01F0
07E000F8
0FC00078
1F800078
1F000078
3E000078
3C000078
780000F8
780001F8
7800FFF8
F003FFF8
F003FFF8
F007FFF8
F007FFF8
F007FFF0
F007FFF0
F007FFE0
F007FFC0
F007FF00
F0078000
F0078000
F0078000
F0078000
F0078000
F0078000
F0078000
F0078000
F0078000
F0078000
F0078000
F0078000
F0078000
F0078000
F0078000
F0078000
F0078000
F0078000
F0078000
F0078000
F0078000
F0078000
F0078000
F0078000
F0078000
F0078000
F0078000
F0078000
F0078000
F0078000
F0078000
F0078000
F0078000
F0078000
F0078000
F007FF00
F003FFC0
F003FFE0
F800FFF0
F80001F0
F80000F8
FC000078
FE000078
FF000078
7F800078
7FC00078
7FE000F8
3FFC01F8
3FFFFFF8
1FFFFFF8
1FFFFFF8
0FFFFFF8
07FFFFF8
03FFFFF0
01FFFFF0
007FFFE0
003FFFC0
0007FF00
ENDCHAR
STARTCHAR 005C
ENCODING 92
SWIDTH 484 0
DWIDTH 31 0
BBX 34 72 -1 -18
BITMAP
07E0000000
1FF8000000
3FFC000000
7FFE000000
FC3E000000
F81F000000
F00F000000
F00F800000
F007800000
F007800000
F007C00000
F003C00000
F003C00000
F803E00000
F801E00000
FC01E00000
FC00F00000
FC00F00000
FE00F00000
7E00780000
7E00780000
7F007C0000
3F003C0000
3F003C0000
3F803E0000
1F801E0000
1F801E0000
1FC01F0000
0FC00F0000
0FE00F0000
07E0078000
07E0078000
07F0078000
03F003C000
03F003C000
03F803E000
01F801E000
01F801E000
01FC01F000
00FC00F000
00FC00F000
00FE00F800
007E007800
007F007800
007F003C00
003F003C00
003F803C00
001F801E00
001F801E00
001FC01F00
000FC00F00
000FC00F00
000FE00F80
0007E00780
0007E00780
0007F00780
0003F007C0
0003F803C0
0003F80780
0001F80780
0001FC0F80
0000FE1F80
0000FFFF80
0000FFFFC0
00007FFF80
00007FFF80
00007FFF80
00003FFF80
00003FFF00
00001FFE00
00000FFC00
000003F000
ENDCHAR
STARTCHAR 005D
ENCODING 93
SWIDTH 421 0
DWIDTH 27 0
BBX 29 81 0 -24
BITMAP
07FE0000
1FFFC000
3FFFF000
7FFFFC00
7C01FE00
F8007F00
F0001F80
F0000FC0
F00007C0
F00003E0
F00001E0
780001F0
FC0000F0
FFF800F0
FFFC0078
FFFE0078
FFFF0078
FFFF0078
7FFF0078
7FFF0078
3FFF0078
1FFF0078
07FF0078
000F0078
000F0078
000F0078
000F0078
000F0078
000F0078
000F0078
000F0078
000F0078
000F0078
000F0078
000F0078
000F0078
000F0078
000F0078
000F0078
000F0078
000F0078
000F0078
000F0078
000F0078
000F0078
000F0078
000F0078
000F0078
000F0078
000F0078
000F0078
000F0078
000F0078
000F0078
000F0078
000F0078
000F0078
000F0078
07FF0078
1FFE0078
3FFE0078
7FF800F8
7C0000F8
F80000F8
F00001F8
F00003F8
F00007F8
F0000FF0
F0001FF0
78003FF0
FC01FFE0
FFFFFFE0
FFFFFFC0
FFFFFFC0
FFFFFF80
FFFFFF00
7FFFFE00
7FFFFC00
3FFFF000
1FFFE000
07FF0000
ENDCHAR
STARTCHAR 005E
ENCODING 94
SWIDTH 421 0
DWIDTH 27 0
BBX 30 30 0 19
BITMAP
000F8000
001FE000
007FF800
00FFFC00
01F87E00
03F03F00
07E01F80
0FC00FC0
1F8007E0
3F0003F0
7E0001F8
7C0000F8
F800007C
F000003C
F000003C
F003003C
F007803C
F80F8078
780FC078
FE3FF1FC
FFFFFFFC
FFFFFFFC
FFFFFFFC
FFFFFFFC
7FFFFFF8
7FFFFFF8
3FFFFFF0
1FFCFFE0
0FF87FC0
03E01F00
ENDCHAR
STARTCHAR 005F
ENCODING 95
SWIDTH 609 0
DWIDTH 39 0
BBX 41 24 0 -11
BITMAP
03FFFFFFE000
0FFFFFFFF800
3FFFFFFFFE00
3FFFFFFFFE00
7C0000001F00
780000000F00
F80000000F80
F00000000780
F00000000780
F00000000780
F00000000780
F80000000F80
F80000000F80
FC0000001F80
FFFFFFFFFF80
FFFFFFFFFF80
FFFFFFFFFF80
FFFFFFFFFF80
7FFFFFFFFF00
7FFFFFFFFF00
3FFFFFFFFE00
3FFFFFFFFE00
0FFFFFFFF800
03FFFFFFE000
ENDCHAR
STARTCHAR 0060
ENCODING 96
SWIDTH 312 0
DWIDTH 20 0
BBX 22 33 0 16
BITMAP
03F800
0FFE00
1FFF00
3FFF80
7E0F80
7C07C0
F803E0
F001E0
F001E0
F001F0
F000F0
F000F8
F80078
F80078
F8007C
FC003C
FC003C
FE003C
FE003C
7E003C
7F0078
7F80FC
3FC1FC
3FFFFC
1FFFFC
1FFFFC
1FFFFC
0FFFF8
0FFFF8
07FFF0
03FFE0
01FFC0
007E00
ENDCHAR
STARTCHAR 0061
ENCODING 97
SWIDTH 609 0
DWIDTH 39 0
BBX 41 47 0 -11
BITMAP
0000FF800000
000FFFF80000
003FFFFE0000
007FFFFF0000
01FF007FC000
03F8000FE000
07E00007F000
0FC00001F800
0F800000F800
1F0000007C00
3E0000003E00
3C0000003E00
7C0000001F00
78003E000F00
7800FF800F00
F801FFC00F00
F003FFE00780
F003FFE00780
F007FFF00780
F007FFF00780
F007FFF00780
F007FFF00780
F007FFF00780
F007E3F00780
F003FFF00780
F801FFF00780
F801FFF00780
F8007FF00780
FC0007F00780
FC0001F00780
FE0000F00780
7F0000F00780
7F8000F00780
7FC000F00780
7FE000F00780
3FF801F80F80
3FFF03FC1F80
1FFFFFFFFF80
0FFFFFFFFF80
0FFFFFFFFF80
07FFFFFFFF80
03FFFFFFFF80
01FFFFFFFF00
007FFFFFFF00
003FFFFFFE00
000FFFDFF800
0000FF07E000
ENDCHAR
STARTCHAR 0062
ENCODING 98
SWIDTH 609 0
DWIDTH 39 0
BBX 41 60 0 -11
BITMAP
03E000000000
0FF800000000
3FFE00000000
7FFF00000000
7C1F00000000
F80F80000000
F00780000000
F00780000000
F00780000000
F00780000000
F00780000000
F00780000000
F00780000000
F007FF800000
F007FFF80000
F007FFFE0000
F007FFFF0000
F007E07FC000
F007C00FE000
F0078003F000
F0078001F800
F0078000F800
F00780007C00
F00780003E00
F007C0001E00
F007F0001F00
F007FF000F00
F007FFC00F00
F007FFC00F00
F007FFE00780
F007FFF00780
F007FFF00780
F007FFF00780
F007FFF00780
F007FFF00780
F007FFF00780
F003E3E00780
F003FFE00780
F801FFC00F80
F800FF800F80
F8003E000F80
FC0000001F80
FC0000003F80
FE0000003F80
7F0000007F00
7F800000FF00
7FC00001FF00
7FE00007FF00
3FF8000FFE00
3FFF007FFE00
1FFFFFFFFC00
0FFFFFFFF800
0FFFFFFFF800
07FFFFFFF000
03FFFFFFE000
01FFFFFFC000
007FFFFF0000
003FFFFE0000
000FFFF00000
0000FF800000
ENDCHAR
STARTCHAR 0063
ENCODING 99
SWIDTH 421 0
DWIDTH 27 0
BBX 29 47 0 -11
BITMAP
0000FE00
000FFF80
003FFFE0
007FFFE0
01FF01F0
03F800F8
07F00078
0FC00078
0F800078
1F000078
3E000078
3E0000F0
7C0001F8
78003FF8
7800FFF8
7801FFF8
F003FFF8
F003FFF8
F007FFF0
F007FFF0
F007FFE0
F007FFC0
F007FF00
F003E000
F003FE00
F801FF80
F800FFE0
F8003FE0
FC0001F0
FC0000F8
FE000078
7F000078
7F800078
7FC00078
7FF00078
3FF800F0
3FFF01F8
1FFFFFF8
0FFFFFF8
0FFFFFF8
07FFFFF8
03FFFFF8
01FFFFF0
007FFFF0
003FFFE0
000FFF80
0000FF00
ENDCHAR
STARTCHAR 0064
ENCODING 100
SWIDTH 609 0
DWIDTH 39 0
BBX 41 60 0 -11
BITMAP
00000003E000
0000000FF800
0000003FFE00
0000007FFE00
0000007C1F00
000000F80F80
000000F00780
000000F00780
000000F00780
000000F00780
000000F00780
000000F00780
000000F00780
0000FFF00780
000FFFF00780
003FFFF00780
007FFFF00780
01FF03F00780
03F801F00780
07E000F00780
0FC000F00780
0F8000F00780
1F0000F00780
3E0000F00780
3C0001F00780
7C0007F00780
78007FF00780
7801FFF00780
7801FFF00780
F003FFF00780
F007FFF00780
F007FFF00780
F007FFF00780
F007FFF00780
F007FFF00780
F007FFF00780
F003E3E00780
F003FFE00780
F801FFC00F80
F800FF800F80
F8003E000F80
FC0000001F80
FC0000003F80
FE0000003F80
7F0000007F00
7F800000FF00
7FC00001FF00
7FE00007FF00
3FF8000FFE00
3FFF007FFE00
1FFFFFFFFC00
0FFFFFFFF800
0FFFFFFFF000
07FFFFFFF000
03FFFFFFE000
01FFFFFF8000
007FFFFF0000
003FFFFE0000
000FFFF00000
0000FF800000
ENDCHAR
STARTCHAR 0065
ENCODING 101
SWIDTH 562 0
DWIDTH 36 0
BBX 38 47 0 -11
BITMAP
0000FF8000
000FFFF000
003FFFFE00
007FFFFF00
01FF007FC0
03F8000FE0
07F00003F0
0FC00001F8
0F800000F8
1F0000007C
3E0000003C
3E0000003C
7C0000003C
78003C003C
7800F80078
F801F000F8
F003E001FC
F003C003FC
F0078007FC
F007800FFC
F007803FFC
F007807FF8
F007C0FFF8
F003E1FFF0
F003FFFFE0
F801FFFFC0
F800FFFF80
F8003FFF80
FC000007C0
FE000003C0
FE000001E0
7F000001E0
7F800001E0
7FC00001E0
7FF00001E0
3FF80003C0
3FFF0007E0
1FFFFFFFE0
0FFFFFFFE0
0FFFFFFFE0
07FFFFFFE0
03FFFFFFE0
01FFFFFFC0
007FFFFFC0
003FFFFF80
0007FFFF00
0000FFF800
ENDCHAR
STARTCHAR 0066
ENCODING 102
SWIDTH 515 0
DWIDTH 33 0
BBX 36 60 0 -11
BITMAP
0003FC0000
001FFF8000
007FFFE000
01FFFFF800
03FC03FC00
07E000FE00
0FC0003F00
1F00001F80
3E00000F80
3E000007C0
7C000003C0
78000003E0
7800F001E0
F803FC01E0
F003FC01F0
F007FE00F0
F007FE00F0
F007FE00F0
F007FE00F0
F007FE01F0
F007FF01F0
F007FF83F0
F007FFFFF0
F007FFFFF0
F007FFFFF0
F007FFFFF0
F0000003F0
F0000001E0
F0000001F0
F0000000F0
F0000000F0
F0000000F0
F0000000F0
F0000000F0
F0000001F0
F0000003F0
F007FFFFF0
F007FFFFF0
F007FFFFF0
F007FFFFF0
F007FFFFF0
F007FFFFE0
F007FFFFE0
F007FFFFC0
F007FFFF80
F007FFFE00
F007800000
F007800000
F80F800000
FC1F800000
FFFF800000
FFFF800000
FFFF800000
FFFF800000
FFFF800000
7FFF000000
7FFF000000
3FFE000000
1FFC000000
07E0000000
ENDCHAR
STARTCHAR 0067
ENCODING 103
SWIDTH 609 0
DWIDTH 39 0
BBX 41 81 0 -45
BITMAP
0000FF800000
000FFFF80000
003FFFFE0000
007FFFFF0000
01FF007FC000
03F8000FE000
07F00007F000
0FC00001F800
0F800000F800
1F0000007C00
3E0000003E00
3C0000003E00
7C0000001F00
78003E000F00
7800FF800F00
F801FFC00F00
F003FFE00780
F003FFE00780
F007FFF00780
F007FFF00780
F007FFF00780
F007FFF00780
F007FFF00780
F007E3F00780
F003FFF00780
F801FFF00780
F801FFF00780
F8007FF00780
FC0007F00780
FC0001F00780
FE0000F00780
FF0000F00780
7F8000F00780
7FC000F00780
7FE000F00780
3FF801F00780
3FFF03F00780
1FFFFFE00780
0FFF00000780
0FF800000F80
07E000000F80
0FC000000F80
0F8000001F80
1F0000003F80
3E0000007F80
3E000000FF80
7C000003FF00
78003FFFFF00
7800FFFFFF00
F801FFFFFF00
F003FFFE1F00
F003FFF80F80
F007FFF80780
F007FFF00780
F007FFF00780
F007FFF00780
F007FFF00780
F003E3F00780
F003FFE00780
F801FFC00F80
F800FF800F80
F8003E000F80
FC0000001F80
FC0000003F80
FE0000003F80
7F0000007F00
7F800000FF00
7FC00001FF00
7FF00007FF00
3FF8000FFE00
3FFF007FFE00
1FFFFFFFFC00
0FFFFFFFF800
0FFFFFFFF800
07FFFFFFF000
03FFFFFFE000
01FFFFFFC000
007FFFFF0000
003FFFFE0000
000FFFF80000
0000FF800000
ENDCHAR
STARTCHAR 0068
ENCODING 104
SWIDTH 531 0
DWIDTH 34 0
BBX 46 74 0 -25
BITMAP
07E000000000
1FF800000000
3FFE00000000
7FFF00000000
7C1F00000000
F80F80000000
F00780000000
F00780000000
F00780000000
F00780000000
F00780000000
F00780000000
F00780000000
F007FC000000
F007FF800000
F007FFE00000
F007FFF80000
F00403FC0000
F000007E0000
F000003F0000
F000000F8000
F00000078000
F0000007C000
F0000003C000
F0000001E000
F0000001E000
F000F001E000
F003FC00F000
F003FC00F000
F007FE00F000
F007FE00F000
F007FE00F000
F007FE00F000
F007FE00F000
F007FE00F000
F007FE00F000
F0079E00F000
F0079E00F000
F0079E00F000
F0079E00F000
F0079E00F000
F0079E00F000
F0079E00F000
F0079E00F000
F0079E00F000
F0079E00F000
F0079E00F000
F0079E00F000
F80F9E00F000
FC1F9E00F000
FFFF9E00F000
FFFF9E00FF00
FFFF9E007FC0
FFFF9E003FF0
FFFF9F001FF0
7FFF1F0000F8
7FFF1F00007C
3FFE1F80003C
1FF81FC0003C
07E01FE0003C
00001FF0003C
00000FF8003C
00000FFE0078
00000FFF80FC
000007FFFFFC
000003FFFFFC
000003FFFFFC
000001FFFFFC
000000FFFFFC
0000007FFFF8
0000003FFFF8
0000000FFFF0
00000003FFE0
000000007F80
ENDCHAR
STARTCHAR 0069
ENCODING 105
SWIDTH 234 0
DWIDTH 15 0
BBX 19 61 -1 -11
BITMAP
03F800
0FFE00
1FFF00
3FFF80
7E0FC0
7C07C0
F803C0
F001E0
F001E0
F001E0
F001E0
F001E0
F803C0
FC07C0
FE0FE0
FFFFE0
FFFFE0
FFFFE0
FFFFE0
7E0FC0
7C07C0
7803C0
7803C0
7803C0
7803C0
7803C0
7803C0
7803C0
7803C0
7803C0
7803C0
7803C0
7803C0
7803C0
7803C0
7803C0
7803C0
7803C0
7803C0
7803C0
7803C0
7803C0
7803C0
7803C0
7803C0
7803C0
7803C0
7803C0
7803C0
7C07C0
7E0FC0
7FFFC0
7FFFC0
7FFFC0
7FFFC0
7FFFC0
3FFF80
3FFF00
1FFF00
0FFC00
03F000
ENDCHAR
STARTCHAR 006A
ENCODING 106
SWIDTH 250 0
DWIDTH 16 0
BBX 28 75 -9 -25
BITMAP
0001FC00
0007FF00
000FFF80
001FFFC0
003F07E0
003E03E0
007C01F0
007800F0
007800F0
007800F0
007800F0
007800F0
007C01E0
007E03E0
007F07F0
007FFFF0
007FFFF0
007FFFF0
007FFFF0
003F07E0
003E03E0
003C01E0
003C01E0
003C01E0
003C01E0
003C01E0
003C01E0
003C01E0
003C01E0
003C01E0
003C01E0
003C01E0
003C01E0
003C01E0
003C01E0
003C01E0
003C01E0
003C01E0
003C01E0
003C01E0
003C01E0
003C01E0
003C01E0
003C01E0
003C01E0
003C01E0
003C01E0
003C01E0
003C01E0
003C01E0
003C01E0
003C01E0
03FC01E0
0FF801E0
3FF801E0
3FE003E0
7C0003E0
F80003E0
F00007E0
F0000FE0
F0001FE0
F0003FC0
F0007FC0
7800FFC0
FC07FF80
FFFFFF80
FFFFFF00
FFFFFF00
FFFFFE00
FFFFFC00
7FFFF800
7FFFF000
3FFFC000
0FFF0000
03F80000
ENDCHAR
STARTCHAR 006B
ENCODING 107
SWIDTH 515 0
DWIDTH 33 0
BBX 45 74 0 -25
BITMAP
07E000000000
1FF800000000
3FFE00000000
7FFE00000000
7C1F00000000
F80F80000000
F00780000000
F00780000000
F00780000000
F00780000000
F00780000000
F00780000000
F00780000000
F00783F00000
F0078FFC0000
F0079FFF0000
F007BFFF0000
F007FE0F8000
F007FC07C000
F007F803C000
F007F803C000
F007F803C000
F007F803C000
F007F803C000
F007F003C000
F007E007C000
F0000007C000
F000000FC000
F000000FC000
F000001FC000
F000003FC000
F000003F8000
F000001F8000
F000000F8000
F00000078000
F0000007C000
F0000003C000
F007E003C000
F007F003E000
F007F801E000
F007FC01E000
F007FC01E000
F007FC01E000
F007FC01E000
F007FC01E000
F007FC01E000
F007FC01E000
F007FC01E000
F80FBC01E000
FC1FBC01E000
FFFFBC01E000
FFFFBC01FE00
FFFFBC00FF80
FFFFBC007FE0
FFFFBE003FE0
7FFF3E0001F0
7FFF3E0000F8
3FFE3F000078
1FFC3F800078
07E03FC00078
00003FE00078
00001FF00078
00001FFC00F0
00001FFF01F8
00000FFFFFF8
000007FFFFF8
000007FFFFF8
000003FFFFF8
000001FFFFF8
000000FFFFF0
0000007FFFF0
0000001FFFE0
00000007FFC0
00000000FE00
ENDCHAR
STARTCHAR 006C
ENCODING 108
SWIDTH 234 0
DWIDTH 15 0
BBX 17 60 0 -11
BITMAP
07F000
1FFC00
3FFE00
7FFF00
7C1F00
F80F80
F00780
F00780
F00780
F00780
F00780
F00780
F00780
F00780
F00780
F00780
F00780
F00780
F00780
F00780
F00780
F00780
F00780
F00780
F00780
F00780
F00780
F00780
F00780
F00780
F00780
F00780
F00780
F00780
F00780
F00780
F00780
F00780
F00780
F00780
F00780
F00780
F00780
F00780
F00780
F00780
F00780
F00780
F80F80
FC1F80
FFFF80
FFFF80
FFFF80
FFFF80
FFFF80
7FFF00
7FFF00
3FFE00
1FF800
07E000
ENDCHAR
STARTCHAR 006D
ENCODING 109
SWIDTH 812 0
DWIDTH 52 0
BBX 64 61 0 -25
BITMAP
0003FE01FF000000
001FFFCFFFE00000
007FFFFFFFF80000
01FFFFFFFFFE0000
03FC03FF00FF0000
07E00078001F8000
0FC00030000FC000
1F8000000003E000
1F0000000001E000
3E0000000001F000
7C0000000000F000
7800000000007800
7800000000007800
F800F0003C007800
F003F800FF003C00
F003FC00FF003C00
F007FE00FF803C00
F007FE00FF803C00
F007FE00FF803C00
F007FE00FF803C00
F007FE00FF803C00
F007FE00FF803C00
F007FE00FF803C00
F0079E00F7803C00
F0079E00F7803C00
F0079E00F7803C00
F0079E00F7803C00
F0079E00F7803C00
F0079E00F7803C00
F0079E00F7803C00
F0079E00F7803C00
F0079E00F7803C00
F0079E00F7803C00
F0079E00F7803C00
F0079E00F7803C00
F80F9F01F7803C00
FC1F9F83F7803C00
FFFF9FFFF7803C00
FFFF9FFFF7803FC0
FFFF9FFFF7801FF0
FFFF9FFFF7800FFC
FFFF9FFFF7C007FC
7FFF0FFFE7C0003E
7FFF0FFFE7C0001F
3FFE07FFC7E0000F
1FFC03FF07F0000F
03F000FC07F8000F
0000000007FC000F
0000000003FE000F
0000000003FF001E
0000000003FFE03F
0000000001FFFFFF
0000000000FFFFFF
0000000000FFFFFF
00000000007FFFFF
00000000003FFFFF
00000000001FFFFE
00000000000FFFFE
000000000003FFFC
000000000000FFF8
0000000000001FC0
ENDCHAR
STARTCHAR 006E
ENCODING 110
SWIDTH 531 0
DWIDTH 34 0
BBX 46 61 0 -25
BITMAP
0003FC000000
001FFF800000
007FFFE00000
01FFFFF80000
03FC03FC0000
07E0007E0000
0FC0003F0000
1F80001F8000
1F0000078000
3E000007C000
7C000003C000
78000001E000
78000001E000
F800F001E000
F003FC00F000
F003FC00F000
F007FE00F000
F007FE00F000
F007FE00F000
F007FE00F000
F007FE00F000
F007FE00F000
F007FE00F000
F0079E00F000
F0079E00F000
F0079E00F000
F0079E00F000
F0079E00F000
F0079E00F000
F0079E00F000
F0079E00F000
F0079E00F000
F0079E00F000
F0079E00F000
F0079E00F000
F80F9E00F000
FC1F9E00F000
FFFF9E00F000
FFFF9E00FF00
FFFF9E007FC0
FFFF9E003FF0
FFFF9F001FF0
7FFF1F0000F8
7FFF1F00007C
3FFE1F80003C
1FF81FC0003C
07E01FC0003C
00001FF0003C
00000FF8003C
00000FFC0078
00000FFF80FC
000007FFFFFC
000003FFFFFC
000003FFFFFC
000001FFFFFC
000000FFFFFC
0000007FFFF8
0000003FFFF8
0000000FFFF0
00000003FFC0
000000007F00
ENDCHAR
STARTCHAR 006F
ENCODING 111
SWIDTH 609 0
DWIDTH 39 0
BBX 41 47 0 -11
BITMAP
0000FF800000
000FFFF80000
003FFFFE0000
007FFFFF0000
01FF007FC000
03F8000FE000
07E00007F000
0FC00001F800
0F800000F800
1F0000007C00
3E0000003E00
3C0000003E00
7C0000001F00
78003E000F00
7800FF800F00
F801FFC00F00
F003FFE00780
F003FFE00780
F007FFF00780
F007FFF00780
F007FFF00780
F007FFF00780
F007FFF00780
F003FFE00780
F003FFE00780
F801FFC00F80
F800FF800F80
F8003E000F80
FC0000001F80
FC0000003F80
FE0000003F80
7F0000007F00
7F800000FF00
7FC00001FF00
7FE00007FF00
3FF8000FFE00
3FFF007FFE00
1FFFFFFFFC00
0FFFFFFFF800
0FFFFFFFF800
07FFFFFFF000
03FFFFFFE000
01FFFFFFC000
007FFFFF0000
003FFFFE0000
000FFFF80000
0000FF800000
ENDCHAR
STARTCHAR 0070
ENCODING 112
SWIDTH 609 0
DWIDTH 39 0
BBX 41 61 0 -25
BITMAP
0000FF800000
000FFFF80000
003FFFFE0000
007FFFFF0000
01FF007FC000
03F8000FE000
07F00007F000
0FC00001F800
0F800000F800
1F0000007C00
3E0000003E00
3E0000003E00
7C0000001F00
78003E000F00
7800FF800F00
7801FFC00F00
F003FFE00780
F003FFE00780
F007FFF00780
F007FFF00780
F007FFF00780
F007FFF00780
F007FFF00780
F007E3F00780
F007FFE00780
F007FFC00F80
F007FFC00F80
F007FF000F80
F007F0001F80
F007C0001F80
F00780003F80
F00780007F00
F0078000FF00
F0078001FF00
F0078003FF00
F007C00FFE00
F007E07FFE00
F007FFFFFC00
F007FFFFF800
F007FFFFF800
F007FFFFF000
F007FFFFE000
F007FFFFC000
F007FFFF0000
F007FFFE0000
F007FFF80000
F007FF800000
F00780000000
F00780000000
F80F80000000
FC1F80000000
FFFF80000000
FFFF80000000
FFFF80000000
FFFF80000000
FFFF00000000
7FFF00000000
3FFE00000000
3FFE00000000
1FF800000000
03E000000000
ENDCHAR
STARTCHAR 0071
ENCODING 113
SWIDTH 609 0
DWIDTH 39 0
BBX 41 61 0 -25
BITMAP
0000FF800000
000FFFF00000
003FFFFC0000
007FFFFF0000
01FF007F8000
03F8000FE000
07E00007F000
0FC00001F000
0F800000F800
1F0000007C00
3E0000003C00
3C0000003E00
7C0000001E00
78003E001F00
7800FF800F00
F801FFC00F00
F003FFE00780
F003FFE00780
F007FFF00780
F007FFF00780
F007FFF00780
F007FFF00780
F007FFF00780
F007E3F00780
F003FFF00780
F801FFF00780
F801FFF00780
F8007FF00780
FC0007F00780
FC0001F00780
FE0000F00780
7F0000F00780
7F8000F00780
7FC000F00780
7FE000F00780
3FF801F00780
3FFF03F00780
1FFFFFF00780
0FFFFFF00780
0FFFFFF00780
07FFFFF00780
03FFFFF00780
01FFFFF00780
007FFFF00780
003FFFF00780
000FFFF00780
0000FFF00780
000000F00780
000000F00780
000000F80F80
000000FC1F80
000000FFFF80
000000FFFF80
000000FFFF80
000000FFFF80
0000007FFF80
0000007FFF00
0000003FFE00
0000003FFE00
0000000FF800
00000003E000
ENDCHAR
STARTCHAR 0072
ENCODING 114
SWIDTH 375 0
DWIDTH 24 0
BBX 26 47 0 -11
BITMAP
0007F800
003FFC00
00FFFF00
01FFFF80
03FC0F80
07E007C0
0FC003C0
1F0003C0
3E0003C0
3E0003C0
7C0003C0
780007C0
78000FC0
F800FFC0
F003FFC0
F003FFC0
F007FFC0
F007FFC0
F007FF80
F007FF80
F007FF00
F007FE00
F007F800
F0078000
F0078000
F0078000
F0078000
F0078000
F0078000
F0078000
F0078000
F0078000
F0078000
F0078000
F0078000
F80F8000
FC1F8000
FFFF8000
FFFF8000
FFFF8000
FFFF8000
FFFF8000
7FFF0000
7FFF0000
3FFE0000
1FF80000
07E00000
ENDCHAR
STARTCHAR 0073
ENCODING 115
SWIDTH 484 0
DWIDTH 31 0
BBX 33 47 0 -11
BITMAP
00000FE000
00007FF800
0000FFFE00
0003FFFF00
0007F81F00
000FE00F80
001F800780
001F000780
003E000780
007C000780
007C000780
0078000F80
00F8003F80
00F001FF80
00F003FF80
00F007FF80
00F007FF80
00F007FF80
00F007FF00
00F007FF00
00F007FE00
00F007FC00
00F007F000
00F0078000
07F0078000
1FF0078000
3FE0078000
7FC0078000
7E000F8000
F8000F8000
F0001F8000
F0001F8000
F0003F8000
F0007F8000
F000FF8000
7803FF0000
FC0FFF0000
FFFFFF0000
FFFFFE0000
FFFFFC0000
FFFFFC0000
FFFFF80000
7FFFF00000
7FFFE00000
3FFF800000
1FFF000000
07F8000000
ENDCHAR
STARTCHAR 0074
ENCODING 116
SWIDTH 515 0
DWIDTH 33 0
BBX 36 55 0 -11
BITMAP
07E0000000
1FF8000000
3FFE000000
7FFE000000
7C1F000000
F80F000000
F00F800000
F007800000
F007FFFC00
F007FFFF00
F007FFFFC0
F007FFFFC0
F0000003E0
F0000001F0
F0000000F0
F0000000F0
F0000000F0
F0000000F0
F0000000F0
F0000001F0
F0000003F0
F007FFFFF0
F007FFFFF0
F007FFFFF0
F007FFFFF0
F007FFFFF0
F007FF83E0
F007FF01F0
F007FE00F0
F007FE00F0
F007FE00F0
F0079E00F0
F007FE00F0
F007FC00F0
F003FC00F0
F800F001F0
F8000001F0
F8000001F0
FC000003F0
FE000007F0
FF00000FF0
FF80001FF0
7FC0003FE0
7FE0007FE0
7FFC03FFC0
3FFFFFFFC0
1FFFFFFF80
1FFFFFFF80
0FFFFFFF00
07FFFFFE00
03FFFFFC00
01FFFFF800
007FFFE000
003FFF8000
0003FC0000
ENDCHAR
STARTCHAR 0075
ENCODING 117
SWIDTH 531 0
DWIDTH 34 0
BBX 36 47 0 -11
BITMAP
07E0007C00
1FF801FF00
3FFE07FFC0
7FFE0FFFE0
7C1F0F83E0
F80F1F01F0
F0079E00F0
F0079E00F0
F0079E00F0
F0079E00F0
F0079E00F0
F0079E00F0
F0079E00F0
F0079E00F0
F0079E00F0
F0079E00F0
F0079E00F0
F0079E00F0
F0079E00F0
F0079E00F0
F0079E00F0
F0079E00F0
F0079E00F0
F0079E00F0
F007FE00F0
F003FC00F0
F003FC00F0
F800F001F0
F8000001F0
F8000001F0
FC000003F0
FE000007F0
FF00000FF0
FF80001FF0
7FC0003FE0
7FE0007FE0
7FFC03FFC0
3FFFFFFFC0
3FFFFFFF80
1FFFFFFF80
0FFFFFFF00
07FFFFFE00
03FFFFFC00
01FFFFF800
007FFFE000
003FFF8000
0003FC0000
ENDCHAR
STARTCHAR 0076
ENCODING 118
SWIDTH 500 0
DWIDTH 32 0
BBX 36 47 -1 -11
BITMAP
03F000FC00
0FFC03FF00
1FFE07FFC0
3FFF07FFC0
7E1F0F83E0
780F9F01F0
F00F9F00F0
F0079E00F0
F007FE00F0
F003FC00F0
F003FC01F0
7801FC01E0
F801F801F0
F801F803F0
FC00F003F0
FC00F007F0
FE007007F0
7E006007E0
7E00600FE0
7F00000FC0
3F00000FC0
3F80001FC0
1F80001F80
1F80003F80
1FC0003F00
0FC0003F00
0FC0007F00
07E0007E00
07E000FE00
07F000FE00
03F000FC00
03F001FC00
01F801F800
01F803F800
01FC03F800
00FC07F000
00FF0FF000
00FFFFE000
007FFFE000
007FFFE000
003FFFC000
003FFFC000
001FFF8000
001FFF8000
000FFF0000
0007FE0000
0001F80000
ENDCHAR
STARTCHAR 0077
ENCODING 119
SWIDTH 812 0
DWIDTH 52 0
BBX 54 47 0 -11
BITMAP
07E000FE001F00
1FF803FF807FC0
3FFE07FFC1FFF0
7FFE0FFFE3FFF8
7C1F0F83E3E0F8
F80F9F01F7C07C
F0079E00F7803C
F0079E00F7803C
F0079E00F7803C
F0079E00F7803C
F0079E00F7803C
F0079E00F7803C
F0079E00F7803C
F0079E00F7803C
F0079E00F7803C
F0079E00F7803C
F0079E00F7803C
F0079E00F7803C
F0079E00F7803C
F0079E00F7803C
F0079E00F7803C
F0079E00F7803C
F0079E00F7803C
F0079E00F7803C
F007FE00FF803C
F003FC00FF003C
F003FC00FF003C
F800F0003C007C
F800000000007C
F800000000007C
FC0000000000FC
FE0000000001FC
FE0000000003FC
FF0000000007FC
7FC00030000FF8
7FE00078001FF8
7FFC03FF00FFF0
3FFFFFFFFFFFF0
3FFFFFFFFFFFE0
1FFFFFFFFFFFE0
0FFFFFFFFFFFC0
07FFFFFFFFFF80
03FFFFFFFFFF00
01FFFFFFFFFE00
007FFFFFFFF800
003FFFCFFFE000
0003FE01FF0000
ENDCHAR
STARTCHAR 0078
ENCODING 120
SWIDTH 531 0
DWIDTH 34 0
BBX 36 47 0 -11
BITMAP
07F0007C00
1FFC01FF00
3FFE07FFC0
7FFF0FFFE0
7C1F0F83E0
F80F9F01F0
F0079E00F0
F0079E00F0
F0079E00F0
F0079E00F0
F0079E00F0
F007FE00F0
F003FC00F0
F003FC00F0
F800F001F0
F8000001F0
F8000001F0
FC000003F0
FC000003F0
FE000007F0
FF00000FF0
7E000007F0
7C000003E0
7C000003E0
78000001E0
F8000001E0
F800F001F0
F003F800F0
F003FC00F0
F007FE00F0
F007FE00F0
F007FE00F0
F007FE00F0
F007FE00F0
F007FE00F0
F80FFF01F0
FC1F9F83F0
FFFF9FFFF0
FFFF9FFFF0
FFFF9FFFF0
FFFF9FFFF0
FFFF9FFFF0
7FFF0FFFE0
7FFF0FFFE0
3FFE07FFC0
1FFC01FF80
07F0007E00
ENDCHAR
STARTCHAR 0079
ENCODING 121
SWIDTH 531 0
DWIDTH 34 0
BBX 36 61 0 -25
BITMAP
07F0007C00
1FFC01FF00
3FFE07FFC0
7FFF0FFFE0
7C1F0F83E0
F80F9F01F0
F0079E00F0
F0079E00F0
F0079E00F0
F0079E00F0
F0079E00F0
F0079E00F0
F0079E00F0
F0079E00F0
F0079E00F0
F0079E00F0
F0079E00F0
F0079E00F0
F0079E00F0
F0079E00F0
F0079E00F0
F0079E00F0
F0079E00F0
F0079E00F0
F007FE00F0
F003FC00F0
F003FC00F0
F800F000F0
F8000000F0
F8000000F0
FC000000F0
FE000000F0
FE000000F0
FF000000F0
7FC00000F0
7FE00000F0
7FFC0600F0
3FFFFE00F0
3FFFFE00F0
1FFFFC00F0
0FFFF800F0
07FFF001F0
03FE0001F0
01FC0003F0
00F80003F0
00780007F0
0078000FF0
0078001FE0
0078003FE0
003C00FFE0
007E03FFC0
007FFFFFC0
007FFFFF80
007FFFFF80
007FFFFF00
007FFFFE00
003FFFFC00
003FFFF800
001FFFE000
0007FF8000
0001FC0000
ENDCHAR
STARTCHAR 007A
ENCODING 122
SWIDTH 531 0
DWIDTH 34 0
BBX 38 47 -1 -11
BITMAP
007FFFFF80
01FFFFFFE0
03FFFFFFF8
07FFFFFFF8
0FC000007C
0F0000003C
1F0000003C
1E0000003C
1E0000003C
1E0000003C
1F00000078
1F000000FC
1F800000FC
1FFFE001FC
1FFFE003FC
1FFFC003FC
1FFF8007FC
0FFF000FF8
0FFE001FF8
0FFC003FF0
07F8007FE0
03F000FFE0
03E001FFC0
07E003FF80
0FC003FF00
0F8007FF00
1F000FFF80
3E001FFFC0
3E000007E0
7C000003E0
78000001E0
78000001E0
F8000001E0
F0000001E0
F0000001E0
F8000003E0
7C000007E0
7FFFFFFFE0
FFFFFFFFE0
FFFFFFFFE0
FFFFFFFFE0
FFFFFFFFE0
7FFFFFFFC0
7FFFFFFFC0
3FFFFFFF80
1FFFFFFF00
07FFFFFC00
ENDCHAR
STARTCHAR 007B
ENCODING 123
SWIDTH 375 0
DWIDTH 24 0
BBX 29 81 0 -24
BITMAP
0003FF00
001FFFC0
007FFFE0
01FFFFF0
03FC01F0
07E000F8
0FC00078
1F800078
1F000078
3E000078
3C000078
780000F8
780001F8
7800FFF8
F003FFF8
F003FFF8
F007FFF8
F007FFF8
F007FFF0
F007FFF0
F007FFE0
F007FFC0
F007FF00
F0078000
F0078000
F0078000
F0078000
F0078000
F0078000
F0078000
F0078000
F0078000
F0078000
F0078000
F0078000
F0078000
F0078000
F0078000
F0078000
F0078000
F0078000
F0078000
F0078000
F0078000
F0078000
F0078000
F0078000
F0078000
F0078000
F0078000
F0078000
F0078000
F0078000
F0078000
F0078000
F0078000
F0078000
F0078000
F007FF00
F003FFC0
F003FFE0
F800FFF0
F80001F0
F80000F8
FC000078
FE000078
FF000078
7F800078
7FC00078
7FE000F8
3FFC01F8
3FFFFFF8
1FFFFFF8
1FFFFFF8
0FFFFFF8
07FFFFF8
03FFFFF0
01FFFFF0
007FFFE0
003FFFC0
0007FF00
ENDCHAR
STARTCHAR 007C
ENCODING 124
SWIDTH 234 0
DWIDTH 15 0
BBX 17 74 0 -18
BITMAP
07E000
1FF800
3FFE00
7FFE00
7C1F00
F80F00
F00780
F00780
F00780
F00780
F00780
F00780
F00780
F00780
F00780
F00780
F00780
F00780
F00780
F00780
F00780
F00780
F00780
F00780
F00780
F00780
F00780
F00780
F00780
F00780
F00780
F00780
F00780
F00780
F00780
F00780
F00780
F00780
F00780
F00780
F00780
F00780
F00780
F00780
F00780
F00780
F00780
F00780
F00780
F00780
F00780
F00780
F00780
F00780
F00780
F00780
F00780
F00780
F00780
F00780
F00780
F00780
F80F80
FC1F80
FFFF80
FFFF80
FFFF80
FFFF80
FFFF80
7FFF00
7FFE00
3FFE00
1FF800
07E000
ENDCHAR
STARTCHAR 007D
ENCODING 125
SWIDTH 375 0
DWIDTH 24 0
BBX 29 81 0 -24
BITMAP
07FE0000
1FFFC000
3FFFF000
7FFFFC00
7C01FE00
F8007F00
F0001F80
F0000FC0
F00007C0
F00003E0
F00001E0
780001F0
FC0000F0
FFF800F0
FFFC0078
FFFE0078
FFFF0078
FFFF0078
7FFF0078
7FFF0078
3FFF0078
1FFF0078
07FF0078
000F0078
000F0078
000F0078
000F0078
000F0078
000F0078
000F0078
000F0078
000F0078
000F0078
000F0078
000F0078
000F0078
000F0078
000F0078
000F0078
000F0078
000F0078
000F0078
000F0078
000F0078
000F0078
000F0078
000F0078
000F0078
000F0078
000F0078
000F0078
000F0078
000F0078
000F0078
000F0078
000F0078
000F0078
000F0078
07FF0078
1FFE0078
3FFE0078
7FF800F8
7C0000F8
F80000F8
F00001F8
F00003F8
F00007F8
F0000FF0
F0001FF0
78003FF0
FC01FFE0
FFFFFFE0
FFFFFFC0
FFFFFFC0
FFFFFF80
FFFFFF00
7FFFFE00
7FFFFC00
3FFFF000
1FFFE000
07FF0000
ENDCHAR
STARTCHAR 007E
ENCODING 126
SWIDTH 437 0
DWIDTH 28 0
BBX 30 26 0 23
BITMAP
00FE0000
03FFFF00
0FFFFFC0
1FFFFFE0
3F83FFF0
7E00F1F8
7C000078
F800007C
F000003C
F000003C
F000003C
F000003C
F800007C
781800FC
FE3E01FC
FFFF87FC
FFFFFFFC
FFFFFFFC
FFFFFFFC
7FFFFFF8
7FFFFFF8
3FFFFFF0
1FFFFFE0
0FFFFFC0
03E3FF00
0000FC00
ENDCHAR
STARTCHAR 00A1
ENCODING 161
SWIDTH 234 0
DWIDTH 15 0
BBX 19 60 -2 -11
BITMAP
01F800
07FE00
1FFF00
3FFF80
3E0FC0
7C03C0
7801E0
F801E0
F001E0
F001E0
F001E0
F801E0
FC03C0
FE0FE0
FFFFE0
FFFFE0
FFFFE0
FFFFE0
7F0FE0
7C07E0
7C03C0
7803C0
7803C0
7803C0
7803C0
7803C0
7803C0
7803C0
7803C0
7803C0
7803C0
7803C0
7803C0
7803C0
7803C0
7803C0
7803C0
7803C0
7803C0
7803C0
7803C0
7803C0
7803C0
7803C0
7803C0
7803C0
7803C0
7C03C0
7C07C0
7F0FC0
7FFFC0
7FFFC0
7FFFC0
7FFFC0
3FFFC0
3FFF80
1FFF80
0FFF00
07FE00
01F800
ENDCHAR
STARTCHAR 00A2
ENCODING 162
SWIDTH 375 0
DWIDTH 24 0
BBX 29 60 -1 -11
BITMAP
0003E000
000FF800
001FFC00
003FFE00
003E3E00
003C1F00
00781F00
00781F80
00781FE0
007C1FF0
00FEE1F0
01FD00F8
03F00078
07C00078
0F800078
0F000078
1F000078
3E0000F8
3C0001F8
3C003FF8
7800FFF8
7801FFF8
7801FFF8
7803FFF8
F003FFF0
F007FFF0
F007FFE0
F007FFC0
F007FF00
F803F000
F803F000
F801FF00
F801FFC0
FC00FFE0
FC003FF0
FE0001F0
7E0000F8
7F000078
7F800078
7FC00078
3FF00078
3FFC00F8
1FFF81F8
1FFF7FF8
0FFC1FF8
07FC1FF8
07F81FF8
03F81FF8
01FC1FF8
007E3FF0
007FFFE0
007FFFC0
007FFF80
007FFF00
007FFF00
003FFF00
003FFE00
001FFC00
000FF800
0003E000
ENDCHAR
STARTCHAR 00A3
ENCODING 163
SWIDTH 593 0
DWIDTH 38 0
BBX 43 60 -1 -11
BITMAP
0003FF000000
001FFFC00000
007FFFE00000
01FFFFF00000
03FC01F00000
07F000F80000
0FC000780000
0F8000780000
1F0000780000
3E0000780000
3C0000780000
7C0000F80000
780001F80000
7800FFF80000
7801FFF80000
F003FFF80000
F003FFF80000
F007FFFC0000
F007FFFC0000
F000007E0000
F000003E0000
F000001E0000
F000001E0000
F000001E0000
F000001FFC00
F000003FFF00
F000007FFF80
F007FFFFFFC0
F007FFFF87C0
F007FFFE03E0
F007FFFE01E0
F007FFFC01E0
F007FFFC01E0
F007FFFC01E0
F007FFFC01E0
F007FFFC01E0
F007FFFC01E0
F007FFFC01E0
F007FFF801E0
F007FFF001E0
F000000001E0
F000000003E0
F000000003E0
F000000007E0
F00000000FE0
F00000000FE0
F00000001FE0
F80000007FC0
F8000000FFC0
FC000007FFC0
FFFFFFFFFF80
FFFFFFFFFF80
FFFFFFFFFF00
7FFFFFFFFE00
7FFFFFFFFC00
7FFFFFFFF800
3FFFFFFFF000
3FFFFFFFE000
0FFFFFFF8000
03FFFFFC0000
ENDCHAR
STARTCHAR 00A4
ENCODING 164
SWIDTH 578 0
DWIDTH 37 0
BBX 41 60 -1 -11
BITMAP
0000001FE000
000001FFF800
000007FFFC00
00001FFFFE00
00007FE01F00
0001FF000F00
0003FC000780
0007F0000780
000FC0000780
001F80000780
003F00000F00
003E00001F00
07FC000FFF00
1FF8003FFF80
3FF000FFFF80
7FF001FFFF80
7C000000FF80
F80000007F00
F00000007F00
F00000003E00
F00000003C00
F00000003C00
F00000007C00
F80000007800
FC000000FC00
FF803FFFFC00
FF803FFFFC00
FF803FFFFC00
FF803FFFFC00
FC000000FC00
F80000007C00
F00000003C00
F00000003C00
F00000003C00
F00000003C00
F80000007C00
FC000000F800
FFF001FFFC00
FFF000FFFC00
FFF8003FFC00
FFFC000FFE00
FFFC00003F00
7FFE00000F00
7FFF00000F80
3FFF80000780
1FFFE0000780
07FFF0000780
007FFC000F00
003FFF000F00
001FFFE01F00
000FFFFFFF80
0007FFFFFF80
0003FFFFFF80
0001FFFFFF80
0000FFFFFF00
00007FFFFF00
00001FFFFE00
000007FFFE00
000001FFF800
0000001FE000
ENDCHAR
STARTCHAR 00A5
ENCODING 165
SWIDTH 578 0
DWIDTH 37 0
BBX 40 66 -1 -11
BITMAP
00F8001F80
03FE007FE0
07FF00FFF0
0FFF81FFF8
1F07C3F0F8
1E03C3C07C
1E03C3C03C
3C03C7803C
3C03C7803C
3C03C7803C
3C03C7803C
3C03C7803C
3C03C7803C
3C03C7803C
3C03C7803C
3C03C7803C
3C03C7803C
3C03C7803C
3C03E7803C
3C01FF803C
3E01FF803C
3E00FF003C
3E007C003C
3E0000007C
3F0000007C
3F000000FC
3F800001FC
3FC00003FC
7E0000007E
780000003E
780000001E
F00000001E
F00000001E
F80000001E
780000001E
7C0000003E
7FFF00FFFE
FFFF00FFFE
FE0000007E
F80000003E
F80000001E
F80000001F
F00000001E
F00000001E
F80000001E
780000001E
780000003E
7E0000007E
FFFF00FFFE
FFFF00FFFE
FFFF00FFFE
7FFF00FFFE
7FFF00FFFE
7FFF00FFFE
3FFF80FFFC
1FFFC3FFF8
0FFFFFFFF0
03FFFFFFC0
001FFFF000
000FFFF000
000FFFF000
000FFFE000
0007FFE000
0003FFC000
0001FF8000
00007E0000
ENDCHAR
STARTCHAR 00A7
ENCODING 167
SWIDTH 703 0
DWIDTH 45 0
BBX 47 60 -1 -11
BITMAP
000000FF0000
000007FFC000
00001FFFE000
00007FFFF000
0000FF03F000
0001FC00F800
0003F000F800
0007E0007FC0
0007C0007FF0
000F80007FF8
000F0000FFFC
001F0001C07C
001E0007003E
001E007C001E
003E00F8001E
003C00F0001E
003C01E0001E
003C01C0001E
003C01C0003C
003C0180007E
003C01800FFE
003C01801FFE
003C01003FFE
003C01007FFE
003C01007FFE
003C01007FFC
003C01007FFC
003C01007FF8
003C01007FF0
03FC01007FC0
0FFC01007800
1FF801007800
3FF001007800
7E0003007800
780003007800
F80007007800
F0000F007800
F0000F007800
F0001E007800
F0007E007800
7800F800F800
FC070000F800
FFFE0000F800
FFFE0001F800
FFFC0003F800
FFFC0003F800
7FFC0007F800
7FFE001FF000
3FFE003FF000
3FFF01FFF000
0FFFFFFFE000
03FFFFFFC000
003FFFFFC000
003FFFFF8000
001FFFFF0000
001FFFFE0000
000FFFFC0000
0007FFF00000
0003FFE00000
0000FF000000
ENDCHAR
STARTCHAR 00A8
ENCODING 168
SWIDTH 453 0
DWIDTH 29 0
BBX 31 26 -1 47
BITMAP
01F01F80
07FC7FE0
1FFEFFF0
3FFFFFF8
3E1FF0FC
7C07C07C
7807803E
F803801E
F003001E
F003001E
F003001E
F003001E
F803801E
F807803E
FC07C07E
FE1FF0FE
FFFFFFFE
FFFFFFFE
7FFFFFFE
7FFFFFFE
7FFFFFFC
3FFFFFFC
3FFFFFF8
1FFFFFF0
07FE7FE0
01F81F80
ENDCHAR
STARTCHAR 00A9
ENCODING 169
SWIDTH 812 0
DWIDTH 52 0
BBX 54 60 -1 -11
BITMAP
000003FF800000
00003FFFF00000
0000FFFFFE0000
0003FFFFFF8000
000FFC00FFC000
001FE0000FF000
007F800003F800
00FE000000FC00
01F80000007E00
03F00000003F00
03E00000001F80
07C00000000FC0
0F8000000007C0
0F8001FE0003E0
1F0007FFC001E0
1E001FFFE001F0
3E003F83F800F0
3C007E03FC00F8
7C00F803FE0078
7801F003FE0078
7801E07FFF007C
7803E1FFFF003C
7803C3FFFF803C
F803C7FFFF803C
F007C7FFFF803C
F0078FFFFF803C
F0078FFFFF803C
F0078FFFFF803C
F0078FFFFF803C
F007C7FFFF803C
F803C7FFFF803C
F803C3FFFF803C
F803E1FFFF003C
F801E07FFF007C
F801F003FE007C
FC00F803FE007C
FC007E03FC00FC
7E003F83F800FC
7E001FFFF001FC
7F0007FFC001FC
7F0001FE0003F8
7F8000000007F8
3FC00000000FF8
3FE00000001FF0
1FF00000003FF0
1FF80000007FE0
0FFE000000FFE0
0FFF000003FFC0
07FFE0000FFFC0
03FFFC00FFFF80
03FFFFFFFFFF00
01FFFFFFFFFE00
00FFFFFFFFFC00
007FFFFFFFF800
001FFFFFFFF000
000FFFFFFFC000
0003FFFFFF8000
0001FFFFFE0000
00003FFFF80000
000003FF800000
ENDCHAR
STARTCHAR 00AA
ENCODING 170
SWIDTH 1109 0
DWIDTH 71 0
BBX 71 65 3 2
BITMAP
0000001F0000000000
0000007FC000000000
000000FFFFE0000000
000001FFFFFC000000
000003FFFFFF000000
000007FFFFFFC00000
00000FFFFFFFE00000
00001FFFFFFFF00000
00003FFFFFFFF80000
00003FFFFFFFFC0000
00007FFFFFFFFE0000
00007FFFFFFFFF0000
0000FFFFFFFFFF8000
0000FFFF03FFFF8000
0001FFFC00FFFFC000
0001FFF8007FFFE000
0001FFF0003FFFE000
0003FFE0001FFFF000
0003FFE0000FFFF000
0007FFC00007FFF800
000FFFC00003FFF800
001FFFC00001FFF800
003FFF800000FFFC00
007FFF8000007FFC00
01FFFF8000007FFE00
0FFFFF8000003FFE00
FFFFFF8000001FFE00
FFFFFF8000001FFE00
7FFFFF8000000FFE00
3FFFFFFC003F8FFE00
1FFFFF0F00F06FFE00
01FFFF00000007FE00
00FFFE00000007FE00
01FFFE00000007FE04
03FFFC00000007FC0C
07FFFDFE007F87FE1E
0FFFF99F81F987FFFE
3FFFF01E807807FFFE
FFFFC00C003007FFFE
7FFF8000000007FFFE
7FFFC000000007FFFC
7FFFC000000007FFFC
3FFFC000000007FFF8
1FFFC000000007FFF0
03FFE000000007FFF0
07FFE00000000FFFF0
3FFFE00000000FFFF0
FFFFF0007C000FFFF0
7FFFF000FF001FFFC0
3FFFF801FF803FFF00
1FFFFC03FF807FFF00
0FFFFE0000007FFF00
0FFFFF030180FFFF00
07FFFF01FF81FFFE00
07FFFF81FF03FFFC00
03FFFFC0FE07FFF000
01FFFFE03C0FFFC000
00FFFFF0001FFFC000
003FF0F8003FFFC000
0000007E0079FF8000
0000003F81F03E0000
0000001FFFE0000000
00000007FF80000000
00000001FF00000000
000000007C00000000
ENDCHAR
STARTCHAR 00AB
ENCODING 171
SWIDTH 546 0
DWIDTH 35 0
BBX 37 36 -1 -5
BITMAP
000FC03F00
003FF0FFC0
007FF9FFE0
00FFFFFFF0
01F87FE1F0
03F03FC0F8
07E01F8078
0FC01F0078
1F801E0078
3F001C0078
3E00180078
7C003000F8
78006001F8
7800E003F8
F001C007F8
F001C007F8
7800E003F8
78006001F8
7C003000F8
7E00180078
FF001C0078
FF801E0078
7FC01F0078
7FE01F8078
7FF03FC0F8
3FF87FE1F8
3FFFFFFFF8
1FFFFFFFF8
0FFFFFFFF8
07FFFFFFF8
03FFFFFFF8
01FFFFFFF0
00FFFFFFF0
007FF9FFE0
003FF0FFC0
0007C03F00
ENDCHAR
STARTCHAR 00AC
ENCODING 172
SWIDTH 1343 0
DWIDTH 86 0
BBX 86 65 0 0
BITMAP
000000000E000000000000
000000007FC00000000000
00000001FFFFC000000000
00000003FFFFF800000000
00000007FFFFFF00000000
0000000FFFFFFFC0000000
0000001FFFFFFFF0000000
0000003FFFFFFFFC000000
0000007FFFFFFFFE000000
000000FFFFFFFFFF000000
000000FFFFFFFFFFC00000
000001FFFFFFFFFFE00000
000003FFFFFFFFFFF00000
000003FFFFC0FFFFF80000
000007FFFE003FFFF80000
000007FFFC000FFFFC0000
00000FFFF00007FFFE0000
00000FFFE00003FFFF0000
00001FFFE00000FFFF0000
00001FFFC000007FFF8000
00003FFF8000003FFFC000
00007FFF8000001FFFC000
0000FFFF0000000FFFE000
0001FFFF0000000FFFE000
0003FFFF00000007FFF000
000FFFFF00000003FFF000
007FFFFF00000003FFF800
07FFFFFE00000001FFF800
3FFFFFFE00000001FFF800
3FFFFFFE1FC0FC00FFF800
1FFFFFFE6001E300FFF800
0FFFFFFC000000007FF800
01FFFFFC000000007FF800
000FFFF8000000007FF800
001FFFF80F0078007FF818
007FFFF0FFC1FF807FF018
00FFFFE079E33F807FF83C
03FFFFC1EFE5FFC07FFFFC
0FFFFF80F3F63F007FFFFC
3FFFFF0023F63E007FFFFC
3FFFF80023F63E007FFFFC
1FFFFC003FE7FE007FFFFC
1FFFFC001FE3FC007FFFF8
0FFFFC000FC1F8007FFFF0
07FFFE00000000007FFFE0
00FFFE0000000000FFFFE0
03FFFF0000000000FFFFE0
FFFFFF8000000001FFFFE0
7FFFFF80003C0001FFFFC0
1FFFFFC000FF0003FFFE00
07FFFFE001FF8007FFFC00
03FFFFF003FFC00FFFFC00
03FFFFF80200401FFFFC00
03FFFFFC01C1C03FFFF800
01FFFF7E01FF807FFFF000
00FFFC3F00FF00FFFFC000
007FF00F803E01FFFE0000
001FC007E00007FFFE0000
00000003F0000FFFFC0000
00000000FC003F7FF80000
000000007FC1FC07E00000
000000001FFFF000000000
0000000007FFE000000000
0000000001FF8000000000
00000000003C0000000000
ENDCHAR
STARTCHAR 00AE
ENCODING 174
SWIDTH 812 0
DWIDTH 52 0
BBX 54 60 -1 -11
BITMAP
000003FF800000
00003FFFF00000
0000FFFFFE0000
0003FFFFFF8000
000FFC00FFC000
001FE0000FF000
007F800003F800
00FE000000FC00
01F80000007E00
03F00000003F00
03E00000001F80
07C00000000FC0
0F8000000007C0
0F8001FE0003E0
1F0007FFC001E0
1E001FFFE001F0
3E003F03F800F0
3C007E00FC00F8
7C00F8007E0078
7801F8003E0078
7801F0781F007C
7803F0FC1F003C
7803E0FE1F803C
F803E1FE1F803C
F007E1FE1F803C
F007E1FE1F803C
F007E1FC1F803C
F007E1F83F803C
F007E1C03F803C
F007E1807F803C
F803E180FF803C
F803E187FF803C
F803E183FF003C
F801E181FF007C
F801E1C03E007C
FC00E1E03E007C
FC0061F03C00FC
7E0031F83800FC
7E001FFFF001FC
7F0007FFC001FC
7F0001FE0003F8
7F8000000007F8
3FC00000000FF8
3FE00000001FF0
1FF00000003FF0
1FF80000007FE0
0FFE000000FFE0
0FFF000003FFC0
07FFE0000FFFC0
03FFFC00FFFF80
03FFFFFFFFFF00
01FFFFFFFFFE00
00FFFFFFFFFC00
007FFFFFFFF800
001FFFFFFFF000
000FFFFFFFC000
0003FFFFFF8000
0001FFFFFE0000
00003FFFF80000
000003FF800000
ENDCHAR
STARTCHAR 00AF
ENCODING 175
SWIDTH 578 0
DWIDTH 37 0
BBX 31 23 4 35
BITMAP
07FFFF80
1FFFFFE0
3FFFFFF0
7FFFFFF8
7C00007C
F800003C
F000003E
F000001E
F000001E
F000001E
F000003E
F800003E
FC00007E
FFFFFFFE
FFFFFFFE
FFFFFFFE
FFFFFFFE
FFFFFFFC
7FFFFFFC
7FFFFFF8
3FFFFFF0
1FFFFFE0
07FFFF80
ENDCHAR
STARTCHAR 00B0
ENCODING 176
SWIDTH 265 0
DWIDTH 17 0
BBX 22 28 0 22
BITMAP
00FC00
07FF80
0FFFC0
1FFFE0
3F03F0
7E01F8
7C00F8
F80078
F0003C
F0783C
F0783C
F0783C
F0783C
F0003C
F8007C
FC00FC
FE01FC
FF03FC
FFFFFC
FFFFFC
FFFFF8
7FFFF8
7FFFF8
3FFFF0
1FFFE0
0FFFC0
07FF80
00FC00
ENDCHAR
STARTCHAR 00B1
ENCODING 177
SWIDTH 468 0
DWIDTH 30 0
BBX 33 50 -1 -11
BITMAP
0003F00000
000FFC0000
003FFE0000
003FFF0000
007C1F0000
00780F8000
00F8078000
00F0078000
03F007F000
0FF007FC00
1FF007FE00
3FF007FF00
7C00001F00
7800000780
7800000780
F000000780
F000000780
F800000780
7800000780
7C00001F80
7FF007FF80
FFF007FF80
FFF007FF80
FFF007FF80
FFF007FF80
7FF807FF80
7FF80FFF80
3FFE1FFF00
3FFFFFFF00
3FFFFFFE00
7E00001F00
7800000F80
7800000780
F800000780
F000000780
F000000780
F800000780
7800000780
7800000F80
7E00001F80
FFFFFFFF80
FFFFFFFF80
FFFFFFFF80
7FFFFFFF80
7FFFFFFF80
7FFFFFFF80
3FFFFFFF00
1FFFFFFE00
0FFFFFFC00
03FFFFF000
ENDCHAR
STARTCHAR 00B4
ENCODING 180
SWIDTH 312 0
DWIDTH 20 0
BBX 22 33 -1 47
BITMAP
007F00
01FFC0
03FFE0
07FFF0
0FC1F8
0F80F8
1F0078
1E003C
3E003C
3E003C
3C003C
7C003C
780078
F8007C
F800FC
F000FC
F000FC
F001FC
F001FC
F003F8
F803F8
FC07F8
FE0FF0
FFFFF0
FFFFE0
FFFFE0
FFFFE0
7FFFC0
7FFF80
3FFF80
1FFF00
0FFE00
03F800
ENDCHAR
STARTCHAR 00B5
ENCODING 181
SWIDTH 718 0
DWIDTH 46 0
BBX 48 61 -1 -25
BITMAP
03F0007E0000
0FFC01FF8000
1FFE03FFC000
3FFF07FFE000
7E1F0FC3E000
780F8F01F000
F8079F00F000
F0079E00F000
F0079E00F000
F0079E00F000
F0079E00F000
F0079E00F000
F0079E00F000
F0079E00F000
F0079E00F000
F0079E00F000
F0079E00F000
F0079E00F000
F0079E00F000
F0079E00F000
F0079E00F000
F0079E00F000
F0079E00F000
F0079E00F000
F003FE007FE0
F003FE007FF8
F001FC003FFC
F000F0001FFE
F0000000003E
F0000000001F
F0000000000F
F0000000000F
F0000010000F
F0000038000F
F000007C000F
F00000FF001F
F00603FFC03F
F007FFFFFFFF
F007FFFFFFFF
F007FFFFFFFF
F007FFFFFFFF
F007FFFFFFFF
F007FFFFFFFE
F007FFFFFFFE
F007FFEFFFFC
F007FF83FFF8
F007FC007FE0
F00780000000
F80780000000
F80F80000000
FE1F80000000
FFFF80000000
FFFF80000000
FFFF80000000
FFFF80000000
7FFF80000000
7FFF00000000
3FFF00000000
1FFE00000000
0FFC00000000
03F000000000
ENDCHAR
STARTCHAR 00B6
ENCODING 182
SWIDTH 734 0
DWIDTH 47 0
BBX 49 60 -1 -11
BITMAP
0000FFFFFFF000
0007FFFFFFFC00
001FFFFFFFFE00
007FFFFFFFFF00
00FF8000001F00
01FC0000000F80
03F00000000780
07E00000000780
0F800000000780
1F000000000780
1F000000000780
3E000000000780
3C000000000780
7C007807F00780
7800F807F00780
7801F807F00780
7803F807F00780
F803F807F00780
F007F807F00780
F007F807F00780
F007F807F00780
F007F807F00780
F003F807F00780
F803F807F00780
F801F807F00780
F801F807F00780
F8007807F00780
FC001807F00780
FC000007F00780
FE000007F00780
7F000007F00780
7F800007F00780
7FC00007F00780
7FE00007F00780
3FF80007F00780
3FFE0007F00780
1FFFF007F00780
1FFFF807F00780
0FFFF807F00780
07FFF807F00780
03FFF807F00780
03FFF807F00780
00FFF807F00780
007FF807F00780
003FF807F00780
000FF807F00780
0000F807F00780
00007C07F80780
00007C0FF80F80
00007E1FFE1F80
00007FFFFFFF80
00007FFFFFFF80
00007FFFFFFF80
00007FFFFFFF80
00007FFFFFFF80
00003FFFFFFF00
00003FFF3FFF00
00001FFE1FFE00
00000FFC0FFC00
000003F003F000
ENDCHAR
STARTCHAR 00B7
ENCODING 183
SWIDTH 250 0
DWIDTH 16 0
BBX 19 26 0 -11
BITMAP
03F000
0FFE00
1FFF00
3FFF80
7E0FC0
7C07C0
F803C0
F003E0
F001E0
F001E0
F001E0
F001E0
F003C0
F803C0
FC07E0
FE0FE0
FFFFE0
FFFFE0
FFFFE0
FFFFE0
7FFFC0
7FFFC0
3FFF80
1FFF00
0FFE00
03F800
ENDCHAR
STARTCHAR 00B8
ENCODING 184
SWIDTH 390 0
DWIDTH 25 0
BBX 21 22 0 -22
BITMAP
000FF8
000FF8
000FF8
000FF8
000FF8
000FF8
000FF8
000FF8
000FF8
000FF8
001FF8
001FF8
007FF0
3FFFF0
7FFFF0
FFFFE0
FFFFC0
FFFF80
FFFF00
FFFE00
7FFC00
3FE000
ENDCHAR
STARTCHAR 00BA
ENCODING 186
SWIDTH 1109 0
DWIDTH 71 0
BBX 71 65 3 2
BITMAP
0000001F0000000000
0000007FC000000000
000000FFFFE0000000
000001FFFFFC000000
000003FFFFFF000000
000007FFFFFFC00000
00000FFFFFFFE00000
00001FFFFFFFF00000
00003FFFFFFFF80000
00003FFFFFFFFC0000
00007FFFFFFFFE0000
00007FFFFFFFFF0000
0000FFFFFFFFFF8000
0000FFFF03FFFF8000
0001FFFC00FFFFC000
0001FFF8007FFFE000
0001FFF0003FFFE000
0003FFE0001FFFF000
0003FFE0000FFFF000
0007FFC00007FFF800
000FFFC00003FFF800
001FFFC00001FFF800
003FFF800000FFFC00
007FFF8000007FFC00
01FFFF8000007FFE00
0FFFFF8000003FFE00
FFFFFF8000001FFE00
FFFFFF8000001FFE00
7FFFFF8000000FFE00
3FFFFFFC003F8FFE00
1FFFFF0F00F06FFE00
01FFFF00000007FE00
00FFFE00000007FE00
01FFFE00000007FE04
03FFFC00000007FC0C
07FFFDFE007F87FE1E
0FFFF99F81F987FFFE
3FFFF01E807807FFFE
FFFFC00C003007FFFE
7FFF8000000007FFFE
7FFFC000000007FFFC
7FFFC000000007FFFC
3FFFC000000007FFF8
1FFFC000000007FFF0
03FFE000000007FFF0
07FFE00000000FFFF0
3FFFE00000000FFFF0
FFFFF0007C000FFFF0
7FFFF000FF001FFFC0
3FFFF801FF803FFF00
1FFFFC03FF807FFF00
0FFFFE0000007FFF00
0FFFFF030180FFFF00
07FFFF01FF81FFFE00
07FFFF81FF03FFFC00
03FFFFC0FE07FFF000
01FFFFE03C0FFFC000
00FFFFF0001FFFC000
003FF0F8003FFFC000
0000007E0079FF8000
0000003F81F03E0000
0000001FFFE0000000
00000007FF80000000
00000001FF00000000
000000007C00000000
ENDCHAR
STARTCHAR 00BB
ENCODING 187
SWIDTH 546 0
DWIDTH 35 0
BBX 37 36 -1 -5
BITMAP
03E00F8000
0FF83FE000
1FFEFFF000
3FFFFFF800
7E3FF8FC00
780FE03E00
F807E01F00
F003C00F80
F001C007C0
F000C003E0
F8006001F0
78006001F0
7C003000F8
FE00180078
FF001C0078
FF001C0078
FE00180078
7C003000F8
78006001F8
F800E003F8
F000C003F8
F001C007F8
F003C00FF8
7807E01FF8
780FE03FF0
FE3FF8FFF0
FFFFFFFFE0
FFFFFFFFC0
FFFFFFFF80
FFFFFFFF80
7FFFFFFF00
7FFFFFFE00
3FFFFFFC00
1FFEFFF000
0FF83FE000
03E00F8000
ENDCHAR
STARTCHAR 00BF
ENCODING 191
SWIDTH 593 0
DWIDTH 38 0
BBX 41 60 -1 -11
BITMAP
000003F00000
00000FFC0000
00003FFE0000
00007FFF0000
00007C1F8000
0000F8078000
0000F003C000
0001F003C000
0001E003C000
0001E003C000
0001F003C000
0000F003C000
0000F807C000
0001FC1FC000
000FFFFFC000
003FFFFFC000
007F800FC000
01FC0007C000
03F00003C000
07E00003C000
07800003C000
0F800003C000
1F000003C000
1E000003C000
3C000007C000
3C00000FF800
78003FFFFC00
7800FFFFFE00
7801FFFFFF00
7803FFFC0F80
F003FFF80780
F003FFF80780
F007FFF00780
F007FFF00780
F007FFF00780
F003FFF00780
F803E3F00780
F803FFE00780
F801FFC00F80
F800FF800F80
FC003E000F80
FC0000001F80
FE0000001F80
7F0000003F80
7F0000007F80
7F800000FF00
7FC00001FF00
3FF00003FF00
3FFC000FFE00
1FFF807FFE00
1FFFFFFFFC00
0FFFFFFFFC00
07FFFFFFF800
03FFFFFFF000
01FFFFFFE000
00FFFFFFC000
007FFFFF0000
001FFFFE0000
0007FFF80000
0000FF800000
ENDCHAR
STARTCHAR 00C0
ENCODING 192
SWIDTH 625 0
DWIDTH 40 0
BBX 51 103 0 -25
BITMAP
0003F800000000
000FFE00000000
001FFF00000000
003FFF80000000
007E0F80000000
007C07C0000000
00F803E0000000
00F001E0000000
00F001E0000000
00F001F0000000
00F000F0000000
00F000F8000000
00F80078000000
00F80078000000
00F8007C000000
00FC003C000000
00FC003C000000
00FE003C000000
00FE003C000000
007E003C000000
007F0078000000
007F80FC000000
003FC1FC000000
003FFFFC000000
001FFFFC000000
001FFFFC000000
001FFFFC000000
000FFFF8000000
000FFFF8000000
0007FFF0000000
000FFFF8000000
003FFFFE000000
007FFFFF000000
01FF007FC00000
03F8000FE00000
07E00003F00000
0FC00001F00000
0F800000F80000
1F0000007C0000
3E0000003E0000
3C0000001E0000
7C0000001F0000
78003E000F0000
7800FF800F0000
F801FFC00F0000
F003FFE0078000
F003FFE0078000
F007FFF0078000
F007FFF0078000
F007FFF0078000
F007FFF0078000
F007FFF0078000
F007E3F0078000
F007FFE0078000
F007FFC0078000
F007FFC0078000
F007FF00078000
F007F000078000
F007C000078000
F0078000078000
F0078000078000
F0078000078000
F0078000078000
F0078000078000
F007C010078000
F007E0F0078000
F007FFF0078000
F007FFF0078000
F007FFF0078000
F007FFF0078000
F007FFF0078000
F007FFF0078000
F007FFF0078000
F007FFF0078000
F007FFF0078000
F007FFF0078000
F00780F0078000
F80F80F0078000
FC1F80F0078000
FFFF80F0078000
FFFF80F007F800
FFFF80F003FE00
FFFF80F003FF80
FFFF80F800FF80
7FFF00F80007C0
7FFF00F80003E0
3FFE00FC0001E0
1FFC00FE0001E0
07E000FF0001E0
000000FF8001E0
0000007FC001E0
0000007FF003C0
0000007FFC07E0
0000003FFFFFE0
0000001FFFFFE0
0000001FFFFFE0
0000000FFFFFE0
00000007FFFFE0
00000003FFFFC0
00000001FFFFC0
000000007FFF80
000000001FFE00
0000000003F800
ENDCHAR
STARTCHAR 00C1
ENCODING 193
SWIDTH 609 0
DWIDTH 39 0
BBX 51 105 0 -25
BITMAP
00007F00000000
0001FFC0000000
0003FFE0000000
0007FFF0000000
000FC1F8000000
000F80F8000000
001F007C000000
001F003C000000
001E003C000000
003E003C000000
003C003C000000
007C003C000000
00780078000000
0078007C000000
00F800FC000000
00F000FC000000
00F000FC000000
00F001FC000000
00F001FC000000
00F003F8000000
00F803F8000000
00FC07F8000000
00FE0FF0000000
00FFFFF0000000
00FFFFE0000000
00FFFFE0000000
00FFFFE0000000
007FFFC0000000
007FFF80000000
003FFF80000000
001FFF00000000
000FFF80000000
000FFFF8000000
003FFFFE000000
007FFFFF000000
01FF007FC00000
03F8000FE00000
07E00003F00000
0FC00001F00000
0F800000F80000
1F0000007C0000
3E0000003E0000
3C0000001E0000
7C0000001F0000
78003E000F0000
7800FF800F0000
F801FFC00F0000
F003FFE0078000
F003FFE0078000
F007FFF0078000
F007FFF0078000
F007FFF0078000
F007FFF0078000
F007FFF0078000
F007E3F0078000
F007FFE0078000
F007FFC0078000
F007FFC0078000
F007FF00078000
F007F000078000
F007C000078000
F0078000078000
F0078000078000
F0078000078000
F0078000078000
F0078000078000
F007C010078000
F007E0F0078000
F007FFF0078000
F007FFF0078000
F007FFF0078000
F007FFF0078000
F007FFF0078000
F007FFF0078000
F007FFF0078000
F007FFF0078000
F007FFF0078000
F007FFF0078000
F00780F0078000
F80F80F0078000
FC1F80F0078000
FFFF80F0078000
FFFF80F007F800
FFFF80F003FE00
FFFF80F003FF80
FFFF80F800FF80
7FFF00F80007C0
7FFF00F80003E0
3FFE00FC0001E0
1FFC00FE0001E0
07E000FF0001E0
000000FF8001E0
0000007FC001E0
0000007FF003C0
0000007FFC07E0
0000003FFFFFE0
0000001FFFFFE0
0000001FFFFFE0
0000000FFFFFE0
00000007FFFFE0
00000003FFFFC0
00000001FFFFC0
000000007FFF80
000000001FFE00
0000000003F800
ENDCHAR
STARTCHAR 00C2
ENCODING 194
SWIDTH 625 0
DWIDTH 40 0
BBX 51 99 0 -25
BITMAP
00003E00000000
0000FF80000000
0001FFE0000000
0003FFF0000000
0007E1F8000000
000FC0FC000000
001F807E000000
007F003F000000
007E001F800000
00FC000FC00000
01F00007E00000
01E00001E00000
03E00001F00000
03C00000F00000
03C00000F00000
03C00C00F00000
03C01E00F00000
01E03F01E00000
03F0FF87F00000
03FFFFFFF00000
03FFFFFFF00000
03FFFFFFF00000
03FFFFFFF00000
03FFFFFFE00000
01FFFFFFE00000
00FFFFFFC00000
007FFFFF800000
003FFFFF000000
007FFFFF000000
01FF007FC00000
03F8000FE00000
07E00003F00000
0FC00001F00000
0F800000F80000
1F0000007C0000
3E0000003E0000
3C0000001E0000
7C0000001F0000
78003E000F0000
7800FF800F0000
F801FFC00F0000
F003FFE0078000
F003FFE0078000
F007FFF0078000
F007FFF0078000
F007FFF0078000
F007FFF0078000
F007FFF0078000
F007E3F0078000
F007FFE0078000
F007FFC0078000
F007FFC0078000
F007FF00078000
F007F000078000
F007C000078000
F0078000078000
F0078000078000
F0078000078000
F0078000078000
F0078000078000
F007C010078000
F007E0F0078000
F007FFF0078000
F007FFF0078000
F007FFF0078000
F007FFF0078000
F007FFF0078000
F007FFF0078000
F007FFF0078000
F007FFF0078000
F007FFF0078000
F007FFF0078000
F00780F0078000
F80F80F0078000
FC1F80F0078000
FFFF80F0078000
FFFF80F007F800
FFFF80F003FE00
FFFF80F003FF80
FFFF80F800FF80
7FFF00F80007C0
7FFF00F80003E0
3FFE00FC0001E0
1FFC00FE0001E0
07E000FF0001E0
000000FF8001E0
0000007FC001E0
0000007FF003C0
0000007FFC07E0
0000003FFFFFE0
0000001FFFFFE0
0000001FFFFFE0
0000000FFFFFE0
00000007FFFFE0
00000003FFFFC0
00000001FFFFC0
000000007FFF80
000000001FFE00
0000000003F800
ENDCHAR
STARTCHAR 00C3
ENCODING 195
SWIDTH 562 0
DWIDTH 36 0
BBX 51 96 0 -25
BITMAP
0003F800000000
000FFFFC000000
003FFFFF000000
007FFFFF800000
00FE0FFFC00000
01F803C7E00000
01F00001E00000
03E00001F00000
03C00000F00000
03C00000F00000
03C00000F00000
03C00000F00000
03E00001F00000
01E06003F00000
03F8F807F00000
03FFFE1FF00000
03FFFFFFF00000
03FFFFFFF00000
03FFFFFFF00000
01FFFFFFE00000
01FFFFFFE00000
00FFFFFFC00000
007FFFFF800000
003FFFFF000000
003FFFFE000000
007FFFFF000000
01FF007FC00000
03F8000FE00000
07E00003F00000
0FC00001F00000
0F800000F80000
1F0000007C0000
3E0000003E0000
3C0000001E0000
7C0000001F0000
78003E000F0000
7800FF800F0000
F801FFC00F0000
F003FFE0078000
F003FFE0078000
F007FFF0078000
F007FFF0078000
F007FFF0078000
F007FFF0078000
F007FFF0078000
F007E3F0078000
F007FFE0078000
F007FFC0078000
F007FFC0078000
F007FF00078000
F007F000078000
F007C000078000
F0078000078000
F0078000078000
F0078000078000
F0078000078000
F0078000078000
F007C010078000
F007E0F0078000
F007FFF0078000
F007FFF0078000
F007FFF0078000
F007FFF0078000
F007FFF0078000
F007FFF0078000
F007FFF0078000
F007FFF0078000
F007FFF0078000
F007FFF0078000
F00780F0078000
F80F80F0078000
FC1F80F0078000
FFFF80F0078000
FFFF80F007F800
FFFF80F003FE00
FFFF80F003FF80
FFFF80F800FF80
7FFF00F80007C0
7FFF00F80003E0
3FFE00FC0001E0
1FFC00FE0001E0
07E000FF0001E0
000000FF8001E0
0000007FC001E0
0000007FF003C0
0000007FFC07E0
0000003FFFFFE0
0000001FFFFFE0
0000001FFFFFE0
0000000FFFFFE0
00000007FFFFE0
00000003FFFFC0
00000001FFFFC0
000000007FFF80
000000001FFE00
0000000003F800
ENDCHAR
STARTCHAR 00C4
ENCODING 196
SWIDTH 562 0
DWIDTH 36 0
BBX 51 102 0 -25
BITMAP
001F80FC000000
007FE3FF000000
00FFF7FF800000
01FFFFFFC00000
03F0FF07E00000
03E07E03E00000
07C03C01E00000
07801801F00000
07801800F00000
07801800F00000
07801800F00000
07801800F00000
07801800E00000
07C03C01E00000
07E07E03F00000
07F0FF07F00000
07FFFFFFF00000
07FFFFFFF00000
07FFFFFFF00000
07FFFFFFF00000
03FFFFFFE00000
03FFFFFFE00000
01FFFFFFC00000
00FFFFFF800000
007FF7FF000000
001FC1FC000000
00000000000000
00000000000000
0000FF80000000
000FFFF8000000
003FFFFE000000
007FFFFF000000
01FF007FC00000
03F8000FE00000
07E00003F00000
0FC00001F00000
0F800000F80000
1F0000007C0000
3E0000003E0000
3C0000001E0000
7C0000001F0000
78003E000F0000
7800FF800F0000
F801FFC00F0000
F003FFE0078000
F003FFE0078000
F007FFF0078000
F007FFF0078000
F007FFF0078000
F007FFF0078000
F007FFF0078000
F007E3F0078000
F007FFE0078000
F007FFC0078000
F007FFC0078000
F007FF00078000
F007F000078000
F007C000078000
F0078000078000
F0078000078000
F0078000078000
F0078000078000
F0078000078000
F007C010078000
F007E0F0078000
F007FFF0078000
F007FFF0078000
F007FFF0078000
F007FFF0078000
F007FFF0078000
F007FFF0078000
F007FFF0078000
F007FFF0078000
F007FFF0078000
F007FFF0078000
F00780F0078000
F80F80F0078000
FC1F80F0078000
FFFF80F0078000
FFFF80F007F800
FFFF80F003FE00
FFFF80F003FF80
FFFF80F800FF80
7FFF00F80007C0
7FFF00F80003E0
3FFE00FC0001E0
1FFC00FE0001E0
07E000FF0001E0
000000FF8001E0
0000007FC001E0
0000007FF003C0
0000007FFC07E0
0000003FFFFFE0
0000001FFFFFE0
0000001FFFFFE0
0000000FFFFFE0
00000007FFFFE0
00000003FFFFC0
00000001FFFFC0
000000007FFF80
000000001FFE00
0000000003F800
ENDCHAR
STARTCHAR 00C5
ENCODING 197
SWIDTH 562 0
DWIDTH 36 0
BBX 51 91 0 -25
BITMAP
00007E00000000
0003FFC0000000
0007FFE0000000
000FFFF0000000
001F81F8000000
003F00FC000000
003E007C000000
007C003C000000
0078001E000000
00783C1E000000
00783C1E000000
00783C1E000000
00783C1E000000
0078001E000000
007C003E000000
007E007E000000
007F00FE000000
007FFFFE000000
007FFFFE000000
007FFFFE000000
007FFFFF000000
01FFFFFFC00000
03FFFFFFE00000
07FFFFFBF00000
0FCFFFF1F00000
0F87FFE0F80000
1F03FFC07C0000
3E007E003E0000
3C0000001E0000
7C0000001F0000
78003E000F0000
7800FF800F0000
F801FFC00F0000
F003FFE0078000
F003FFE0078000
F007FFF0078000
F007FFF0078000
F007FFF0078000
F007FFF0078000
F007FFF0078000
F007E3F0078000
F007FFE0078000
F007FFC0078000
F007FFC0078000
F007FF00078000
F007F000078000
F007C000078000
F0078000078000
F0078000078000
F0078000078000
F0078000078000
F0078000078000
F007C010078000
F007E0F0078000
F007FFF0078000
F007FFF0078000
F007FFF0078000
F007FFF0078000
F007FFF0078000
F007FFF0078000
F007FFF0078000
F007FFF0078000
F007FFF0078000
F007FFF0078000
F00780F0078000
F80F80F0078000
FC1F80F0078000
FFFF80F0078000
FFFF80F007F800
FFFF80F003FE00
FFFF80F003FF80
FFFF80F800FF80
7FFF00F80007C0
7FFF00F80003E0
3FFE00FC0001E0
1FFC00FE0001E0
07E000FF0001E0
000000FF8001E0
0000007FC001E0
0000007FF003C0
0000007FFC07E0
0000003FFFFFE0
0000001FFFFFE0
0000001FFFFFE0
0000000FFFFFE0
00000007FFFFE0
00000003FFFFC0
00000001FFFFC0
000000007FFF80
000000001FFE00
0000000003F800
ENDCHAR
STARTCHAR 00C6
ENCODING 198
SWIDTH 890 0
DWIDTH 57 0
BBX 60 60 -1 -11
BITMAP
0000FFC00003FE00
0007FFF8003FFF80
001FFFFE00FFFFC0
007FFFFF83FFFFE0
00FF807FCFFE03E0
01FC000FFFE001F0
03F00003FF8000F0
07C00001FE0000F0
0F800000FC0000F0
1F000000780000F0
1E000000300000F0
3E000000000001E0
3C000000000003F0
7C003E000000FFF0
7800FF800007FFF0
7801FFC0000FFFF0
7803FFE0003FFFF0
F803FFF0007FFFF0
F003FFF000FFFFE0
F007FFF000FFFFE0
F007FFF001FFFFC0
F007FFF003FFFFC0
F007FFF003FFFFE0
F007E3F0000003F0
F007FFE0000001F0
F007FFC0000000F0
F007FF80000000F0
F007FF00000000F0
F007E000000000F0
F007C000000001E0
F007C000000003F0
F007800003FFFFF0
F007800003FFFFF0
F007800001FFFFF0
F007C00001FFFFF0
F007C01000FFFFF0
F007E070007FFFE0
F007FFF0003FFFE0
F007FFF0001FFFC0
F007FFF00007FFC0
F007FFF00000FFE0
F007FFF0000003E0
F007FFF0000001F0
F007FFF0000000F0
F007FFF0000000F0
F007FFF0040000F0
F007BFF0070000F0
F80780F0078000F0
F80F80F007F001E0
FE1F80F007FE03F0
FFFF80FFFFFFFFF0
FFFF80FFFFFFFFF0
FFFF80FFFFFFFFF0
FFFF80FFFFFFFFF0
7FFF80FFFFFFFFF0
7FFF00FFFFFFFFE0
3FFF00FFFFFFFFE0
1FFE00FFFFFFFFC0
0FFC00FFFFBFFF80
03F000FFFF83FE00
ENDCHAR
STARTCHAR 00C7
ENCODING 199
SWIDTH 484 0
DWIDTH 31 0
BBX 36 72 -1 -23
BITMAP
000003FE00
00003FFF80
0000FFFFC0
0003FFFFE0
000FFE03E0
001FE001F0
003F8000F0
00FE0000F0
01F80000F0
01F00000F0
03E00000F0
07C00001E0
0F80000FF0
0F0003FFF0
1F000FFFF0
1E001FFFF0
3E007FFFF0
3C007FFFF0
7C00FFFFE0
7801FFFFE0
7801FFFFC0
7803FFFF80
7803FFFE00
F003FF8000
F007FC0000
F007F00000
F007E00000
F007E00000
F007C00000
F003800000
F803800000
F803C00000
F801E00000
F801E00000
FC00F00000
FC00FC0000
FE007F8000
7E001FFE00
7F000FFF80
7F0003FFC0
7F80000FE0
3FC00001E0
3FE00000F0
3FF00000F0
1FF80000F0
1FFE0000F0
0FFF8000F0
0FFFE001F0
07FFFE03E0
03FFFFFFF0
01FFFFFFF0
00FFC1FFF0
007F80FFF0
003F007FF0
001F007FF0
001E003FE0
001E003FE0
001E003FC0
001F007F80
000F007C00
001F80FC00
001FC1FC00
001FFFFC00
001FFFFC00
001FFFFC00
000FFFFC00
000FFFF800
0007FFF800
0007FFF000
0003FFE000
0000FFC000
00003F0000
ENDCHAR
STARTCHAR 00C8
ENCODING 200
SWIDTH 468 0
DWIDTH 30 0
BBX 36 89 0 -11
BITMAP
0003F80000
000FFE0000
001FFF0000
003FFF8000
007E0F8000
007C07C000
00F803E000
00F001E000
00F001E000
00F001F000
00F000F000
00F000F800
00F8007800
00F8007800
00F8007C00
00FC003C00
00FC003C00
00FE003C00
00FE003C00
007E003C00
007F007800
007F80FC00
003FC1FC00
003FFFFC00
001FFFFC00
001FFFFC00
001FFFFC00
000FFFF800
000FFFF800
0007FFFC00
0003FFFF00
0001FFFFC0
0003FFFFC0
000FFC03E0
001FE001F0
007F8000F0
00FE0000F0
01F80000F0
03F00000F0
07E00000F0
07C00001E0
0F800003F0
1F0000FFF0
1F0007FFF0
3E001FFFF0
3C003FFFF0
3C007FFFF0
7C00FFFFE0
7801FFFFC0
7801FFFF80
F803FFFFC0
F003FFFFE0
F0000003E0
F0000001F0
F0000000F0
F0000000F0
F0000000F0
F0000000F0
F0000001E0
F0000003E0
F003FFFFF0
F803FFFFF0
F803FFFFF0
F801FFFFF0
F800FFFFF0
FC007FFFE0
FC003FFFE0
FE001FFFC0
7F0007FF80
7F0000FFC0
7F800003E0
3FC00001F0
3FE00000F0
3FF00000F0
1FF80000F0
1FFE0000F0
0FFF0000F0
07FFE001E0
07FFFC03F0
03FFFFFFF0
01FFFFFFF0
00FFFFFFF0
007FFFFFF0
003FFFFFF0
000FFFFFE0
0007FFFFE0
0001FFFFC0
00003FFF00
000003FC00
ENDCHAR
STARTCHAR 00C9
ENCODING 201
SWIDTH 468 0
DWIDTH 30 0
BBX 36 91 0 -11
BITMAP
0003F80000
000FFE0000
001FFF0000
003FFF8000
007E0FC000
007C07C000
00F803E000
00F801E000
00F001E000
01F001E000
01E001E000
03E001E000
03C003C000
03C003E000
07C007E000
078007E000
078007E000
07800FE000
07800FE000
07801FC000
07C01FC000
07E03FC000
07F07F8000
07FFFF8000
07FFFF0000
07FFFF0000
07FFFF0000
03FFFE0000
03FFFC0000
01FFFC0000
00FFF80000
007FF3FC00
001FFFFF00
0001FFFFC0
0003FFFFC0
000FFC03E0
001FE001F0
007F8000F0
00FE0000F0
01F80000F0
03F00000F0
07E00000F0
07C00001E0
0F800003F0
1F0000FFF0
1F0007FFF0
3E001FFFF0
3C003FFFF0
3C007FFFF0
7C00FFFFE0
7801FFFFC0
7801FFFF80
F803FFFFC0
F003FFFFE0
F0000003E0
F0000001F0
F0000000F0
F0000000F0
F0000000F0
F0000000F0
F0000001E0
F0000003E0
F003FFFFF0
F803FFFFF0
F803FFFFF0
F801FFFFF0
F800FFFFF0
FC007FFFE0
FC003FFFE0
FE001FFFC0
7F0007FF80
7F0000FFC0
7F800003E0
3FC00001F0
3FE00000F0
3FF00000F0
1FF80000F0
1FFE0000F0
0FFF0000F0
07FFE001E0
07FFFC03F0
03FFFFFFF0
01FFFFFFF0
00FFFFFFF0
007FFFFFF0
003FFFFFF0
000FFFFFE0
0007FFFFE0
0001FFFFC0
00003FFF00
000003FC00
ENDCHAR
STARTCHAR 00CA
ENCODING 202
SWIDTH 531 0
DWIDTH 34 0
BBX 36 87 0 -11
BITMAP
00003E0000
0000FF8000
0001FFE000
0003FFF000
0007E1F800
000FC0FC00
001F807E00
007F003F00
007E001F80
00FC000FC0
01F00007E0
01E00001E0
03E00001F0
03C00000F0
03C00000F0
03C00C00F0
03C01E00F0
01E03F01E0
03F0FF87F0
03FFFFFFF0
03FFFFFFF0
03FFFFFFF0
03FFFFFFF0
03FFFFFFE0
01FFFFFFE0
00FFFFFFC0
007FFFFF80
003FF3FF00
000FFFFF00
0001FFFFC0
0003FFFFC0
000FFC03E0
001FE001F0
007F8000F0
00FE0000F0
01F80000F0
03F00000F0
07E00000F0
07C00001E0
0F800003F0
1F0000FFF0
1F0007FFF0
3E001FFFF0
3C003FFFF0
3C007FFFF0
7C00FFFFE0
7801FFFFC0
7801FFFF80
F803FFFFC0
F003FFFFE0
F0000003E0
F0000001F0
F0000000F0
F0000000F0
F0000000F0
F0000000F0
F0000001E0
F0000003E0
F003FFFFF0
F803FFFFF0
F803FFFFF0
F801FFFFF0
F800FFFFF0
FC007FFFE0
FC003FFFE0
FE001FFFC0
7F0007FF80
7F0000FFC0
7F800003E0
3FC00001F0
3FE00000F0
3FF00000F0
1FF80000F0
1FFE0000F0
0FFF0000F0
07FFE001E0
07FFFC03F0
03FFFFFFF0
01FFFFFFF0
00FFFFFFF0
007FFFFFF0
003FFFFFF0
000FFFFFE0
0007FFFFE0
0001FFFFC0
00003FFF00
000003FC00
ENDCHAR
STARTCHAR 00CB
ENCODING 203
SWIDTH 468 0
DWIDTH 30 0
BBX 36 88 0 -11
BITMAP
001F80FC00
007FE3FF00
00FFF7FF80
01FFFFFFC0
03F0FF07E0
03E07E03E0
07C03C01E0
07801801F0
07801800F0
07801800F0
07801800F0
07801800F0
07801800E0
07C03C01E0
07E07E03F0
07F0FF07F0
07FFFFFFF0
07FFFFFFF0
07FFFFFFF0
07FFFFFFF0
03FFFFFFE0
03FFFFFFE0
01FFFFFFC0
00FFFFFF80
007FF7FF00
001FC1FC00
0000000000
0000000000
000003FC00
00003FFF00
0001FFFFC0
0003FFFFC0
000FFC03E0
001FE001F0
007F8000F0
00FE0000F0
01F80000F0
03F00000F0
07E00000F0
07C00001E0
0F800003F0
1F0000FFF0
1F0007FFF0
3E001FFFF0
3C003FFFF0
3C007FFFF0
7C00FFFFE0
7801FFFFC0
7801FFFF80
F803FFFFC0
F003FFFFE0
F0000003E0
F0000001F0
F0000000F0
F0000000F0
F0000000F0
F0000000F0
F0000001E0
F0000003E0
F003FFFFF0
F803FFFFF0
F803FFFFF0
F801FFFFF0
F800FFFFF0
FC007FFFE0
FC003FFFE0
FE001FFFC0
7F0007FF80
7F0000FFC0
7F800003E0
3FC00001F0
3FE00000F0
3FF00000F0
1FF80000F0
1FFE0000F0
0FFF0000F0
07FFE001E0
07FFFC03F0
03FFFFFFF0
01FFFFFFF0
00FFFFFFF0
007FFFFFF0
003FFFFFF0
000FFFFFE0
0007FFFFE0
0001FFFFC0
00003FFF00
000003FC00
ENDCHAR
STARTCHAR 00CC
ENCODING 204
SWIDTH 187 0
DWIDTH 12 0
BBX 22 89 -3 -11
BITMAP
03F800
0FFE00
1FFF00
3FFF80
7E0F80
7C07C0
F803E0
F001E0
F001E0
F001F0
F000F0
F000F8
F80078
F80078
F8007C
FC003C
FC003C
FE003C
FE003C
7E003C
7F0078
7F80FC
3FC1FC
3FFFFC
1FFFFC
1FFFFC
1FFFFC
0FFFF8
0FFFF8
07FFF0
03FFE0
07FFC0
0FFFE0
0F83E0
1F01F0
1E00F0
1E00F0
1E00F0
1E00F0
1E00F0
1E00F0
1E00F0
1E00F0
1E00F0
1E00F0
1E00F0
1E00F0
1E00F0
1E00F0
1E00F0
1E00F0
1E00F0
1E00F0
1E00F0
1E00F0
1E00F0
1E00F0
1E00F0
1E00F0
1E00F0
1E00F0
1E00F0
1E00F0
1E00F0
1E00F0
1E00F0
1E00F0
1E00F0
1E00F0
1E00F0
1E00F0
1E00F0
1E00F0
1E00F0
1E00F0
1E00F0
1E00F0
1F01F0
1F83F0
1FFFF0
1FFFF0
1FFFF0
1FFFF0
1FFFF0
0FFFE0
0FFFE0
07FFC0
03FF00
00FC00
ENDCHAR
STARTCHAR 00CD
ENCODING 205
SWIDTH 187 0
DWIDTH 12 0
BBX 22 91 -1 -11
BITMAP
007F00
01FFC0
03FFE0
07FFF0
0FC1F8
0F80F8
1F007C
1F003C
1E003C
3E003C
3C003C
7C003C
780078
78007C
F800FC
F000FC
F000FC
F001FC
F001FC
F003F8
F803F8
FC07F8
FE0FF0
FFFFF0
FFFFE0
FFFFE0
FFFFE0
7FFFC0
7FFF80
3FFF80
1FFF00
0FFE00
0FFC00
1FFF00
3FFF80
3E0F80
7C07C0
7803C0
7803C0
7803C0
7803C0
7803C0
7803C0
7803C0
7803C0
7803C0
7803C0
7803C0
7803C0
7803C0
7803C0
7803C0
7803C0
7803C0
7803C0
7803C0
7803C0
7803C0
7803C0
7803C0
7803C0
7803C0
7803C0
7803C0
7803C0
7803C0
7803C0
7803C0
7803C0
7803C0
7803C0
7803C0
7803C0
7803C0
7803C0
7803C0
7803C0
7803C0
7803C0
7C07C0
7E0FC0
7FFFC0
7FFFC0
7FFFC0
7FFFC0
7FFFC0
3FFF80
3FFF80
1FFF00
0FFC00
03F000
ENDCHAR
STARTCHAR 00CE
ENCODING 206
SWIDTH 187 0
DWIDTH 12 0
BBX 30 86 -6 -11
BITMAP
000F8000
003FE000
007FF800
00FFFC00
01F87E00
03F03F00
07E01F80
1FC00FC0
1F8007E0
3F0003F0
7C0001F8
78000078
F800007C
F000003C
F000003C
F003003C
F007803C
780FC078
FC3FE1FC
FFFFFFFC
FFFFFFFC
FFFFFFFC
FFFFFFFC
7FFFFFF8
7FFFFFF8
3FFFFFF0
1FFFFFE0
0FFFFFC0
03FFFF00
01FFFC00
01F07C00
03E03E00
03C01E00
03C01E00
03C01E00
03C01E00
03C01E00
03C01E00
03C01E00
03C01E00
03C01E00
03C01E00
03C01E00
03C01E00
03C01E00
03C01E00
03C01E00
03C01E00
03C01E00
03C01E00
03C01E00
03C01E00
03C01E00
03C01E00
03C01E00
03C01E00
03C01E00
03C01E00
03C01E00
03C01E00
03C01E00
03C01E00
03C01E00
03C01E00
03C01E00
03C01E00
03C01E00
03C01E00
03C01E00
03C01E00
03C01E00
03C01E00
03C01E00
03C01E00
03E03E00
03F07E00
03FFFE00
03FFFE00
03FFFE00
03FFFE00
03FFFE00
01FFFC00
01FFFC00
00FFF800
007FE000
001F8000
ENDCHAR
STARTCHAR 00CF
ENCODING 207
SWIDTH 187 0
DWIDTH 12 0
BBX 31 88 -8 -11
BITMAP
03F01F80
0FFC7FE0
1FFEFFF0
3FFFFFF8
7E1FE0FC
7C0FC07C
F807803C
F003003E
F003001E
F003001E
F003001E
F003001E
F003001C
F807803C
FC0FC07E
FE1FE0FE
FFFFFFFE
FFFFFFFE
FFFFFFFE
FFFFFFFE
7FFFFFFC
7FFFFFFC
3FFFFFF8
1FFFFFF0
0FFEFFE0
03F83F80
00000000
00000000
0007E000
001FF800
003FFE00
007FFF00
007C1F00
00F80F80
00F00780
00F00780
00F00780
00F00780
00F00780
00F00780
00F00780
00F00780
00F00780
00F00780
00F00780
00F00780
00F00780
00F00780
00F00780
00F00780
00F00780
00F00780
00F00780
00F00780
00F00780
00F00780
00F00780
00F00780
00F00780
00F00780
00F00780
00F00780
00F00780
00F00780
00F00780
00F00780
00F00780
00F00780
00F00780
00F00780
00F00780
00F00780
00F00780
00F00780
00F00780
00F00780
00F80F80
00FC1F80
00FFFF80
00FFFF80
00FFFF80
00FFFF80
00FFFF80
007FFF00
007FFF00
003FFE00
001FF800
0007E000
ENDCHAR
STARTCHAR 00D0
ENCODING 208
SWIDTH 1109 0
DWIDTH 71 0
BBX 71 65 3 2
BITMAP
0000001F0000000000
0000007FC000000000
000000FFFFE0000000
000001FFFFFC000000
000003FFFFFF000000
000007FFFFFFC00000
00000FFFFFFFE00000
00001FFFFFFFF00000
00003FFFFFFFF80000
00003FFFFFFFFC0000
00007FFFFFFFFE0000
00007FFFFFFFFF0000
0000FFFFFFFFFF8000
0000FFFF03FFFF8000
0001FFFC00FFFFC000
0001FFF8007FFFE000
0001FFF0003FFFE000
0003FFE0001FFFF000
0003FFE0000FFFF000
0007FFC00007FFF800
000FFFC00003FFF800
001FFFC00001FFF800
003FFF800000FFFC00
007FFF8000007FFC00
01FFFF8000007FFE00
0FFFFF8000003FFE00
FFFFFF8000001FFE00
FFFFFF8000001FFE00
7FFFFF8000000FFE00
3FFFFFFC003F8FFE00
1FFFFF0F00F06FFE00
01FFFF00000007FE00
00FFFE00000007FE00
01FFFE00000007FE04
03FFFC00000007FC0C
07FFFDFE007F87FE1E
0FFFF99F81F987FFFE
3FFFF01E807807FFFE
FFFFC00C003007FFFE
7FFF8000000007FFFE
7FFFC000000007FFFC
7FFFC000000007FFFC
3FFFC000000007FFF8
1FFFC000000007FFF0
03FFE000000007FFF0
07FFE00000000FFFF0
3FFFE00000000FFFF0
FFFFF0007C000FFFF0
7FFFF000FF001FFFC0
3FFFF801FF803FFF00
1FFFFC03FF807FFF00
0FFFFE0000007FFF00
0FFFFF030180FFFF00
07FFFF01FF81FFFE00
07FFFF81FF03FFFC00
03FFFFC0FE07FFF000
01FFFFE03C0FFFC000
00FFFFF0001FFFC000
003FF0F8003FFFC000
0000007E0079FF8000
0000003F81F03E0000
0000001FFFE0000000
00000007FF80000000
00000001FF00000000
000000007C00000000
ENDCHAR
STARTCHAR 00D1
ENCODING 209
SWIDTH 484 0
DWIDTH 31 0
BBX 46 89 0 -25
BITMAP
001FC0000000
007FFFE00000
01FFFFF80000
03FFFFFC0000
07F07FFE0000
0FC01E3F0000
0F80000F0000
1F00000F8000
1E0000078000
1E0000078000
1E0000078000
1E0000078000
1F00000F8000
0F03001F8000
1FC7C03F8000
1FFFFCFF8000
1FFFFFFF8000
1FFFFFFF8000
1FFFFFFF8000
0FFFFFFF0000
0FFFFFFF0000
0FFFFFFF0000
1FFFFFFF8000
1FFFFFFFC000
3E7C7FE7C000
7C001F83E000
78000001E000
78000001E000
F800F001F000
F003F800F000
F003FC00F000
F007FE00F000
F007FE00F000
F007FE00F000
F007FE00F000
F007FE00F000
F007FE00F000
F007FE00F000
F0079E00F000
F0079E00F000
F0079E00F000
F0079E00F000
F0079E00F000
F0079E00F000
F0079E00F000
F0079E00F000
F0079E00F000
F0079E00F000
F0079E00F000
F0079E00F000
F0079E00F000
F0079E00F000
F0079E00F000
F0079E00F000
F0079E00F000
F0079E00F000
F0079E00F000
F0079E00F000
F0079E00F000
F0079E00F000
F0079E00F000
F0079E00F000
F0079E00F000
F80F9E00F000
FC1F9E00F000
FFFF9E00F000
FFFF9E00FF00
FFFF9E007FC0
FFFF9E003FF0
FFFF9F001FF0
7FFF1F0000F8
7FFF1F00007C
3FFE1F80003C
1FFC1FC0003C
07E01FC0003C
00001FE0003C
00000FF8003C
00000FFC0078
00000FFF80FC
000007FFFFFC
000007FFFFFC
000003FFFFFC
000001FFFFFC
000000FFFFFC
0000007FFFF8
0000003FFFF8
0000000FFFF0
00000003FFC0
000000007F00
ENDCHAR
STARTCHAR 00D2
ENCODING 210
SWIDTH 765 0
DWIDTH 49 0
BBX 54 91 0 -11
BITMAP
00000FE0000000
00003FF8000000
00007FFC000000
0000FFFE000000
0001F83E000000
0001F01F000000
0003E00F800000
0003C007800000
0003C007800000
0003C007C00000
0003C003C00000
0003C003E00000
0003E001E00000
0003E001E00000
0003E001F00000
0003F000F00000
0003F000F00000
0003F800F00000
0003F800F00000
0001F800F00000
0001FC01E00000
0001FE03F00000
0000FF07F00000
0000FFFFF00000
00007FFFF00000
00007FFFF00000
00007FFFF00000
00003FFFE00000
00003FFFE00000
00001FFFC00000
00000FFF800000
000007FF000000
00003FFFF00000
0001FFFFFE0000
0007FFFFFF8000
000FFC00FFC000
003FE0001FF000
007F000003F800
00FE000001FC00
01F80000007E00
03F00000003F00
07E00000001F80
07C00000000F80
0F8000000007C0
1F0001FE0003E0
1F000FFFC003E0
3E001FFFE001F0
3C003FFFF800F0
3C007FFFFC00F0
7800FFFFFE00F8
7801FFFFFE0078
7803FFFFFF0078
F803FFFFFF007C
F003FFFFFF803C
F007FE03FF803C
F007F800FF803C
F007F0003F803C
F007E0001F803C
F007C0000F803C
F007C0000F803C
F007800007803C
F007800007803C
F003C0000F803C
F803C0000F007C
F803E0001F007C
F801F0003E007C
F800F800FE00FC
FC007E03FC00FC
FC003FFFF800FC
FE001FFFE001FC
7E0007FFC003F8
7F0001FE0003F8
7F8000000007F8
3FC00000000FF0
3FE00000001FF0
3FF00000003FF0
1FF80000007FE0
1FFC000001FFE0
0FFF000003FFC0
07FFC0000FFF80
07FFFC00FFFF80
03FFFFFFFFFF00
01FFFFFFFFFE00
00FFFFFFFFFC00
007FFFFFFFF800
003FFFFFFFF000
000FFFFFFFC000
0007FFFFFF8000
0001FFFFFE0000
00003FFFF00000
000007FF800000
ENDCHAR
STARTCHAR 00D3
ENCODING 211
SWIDTH 765 0
DWIDTH 49 0
BBX 54 90 0 -11
BITMAP
0000001FC00000
0000007FF00000
000000FFF80000
000001FFFC0000
000003F07E0000
000003E03E0000
000007C01F0000
000007C00F0000
000007800F0000
00000F800F0000
00000F000F0000
00001F000F0000
00001E001E0000
00001E001F0000
00003E003F0000
00003C003F0000
00003C003F0000
00003C007F0000
00003C007F0000
00003C00FE0000
00003E00FE0000
00003F01FE0000
00003F83FC0000
00003FFFFC0000
00003FFFF80000
00003FFFF80000
00003FFFF80000
00001FFFF00000
00001FFFE00000
00000FFFE00000
000007FFC00000
00003FFFF00000
0001FFFFFE0000
0007FFFFFF8000
000FFC00FFC000
003FE0001FF000
007F000003F800
00FE000001FC00
01F80000007E00
03F00000003F00
07E00000001F80
07C00000000F80
0F8000000007C0
1F0001FE0003E0
1F000FFFC003E0
3E001FFFE001F0
3C003FFFF800F0
3C007FFFFC00F0
7800FFFFFE00F8
7801FFFFFE0078
7803FFFFFF0078
F803FFFFFF007C
F003FFFFFF803C
F007FE03FF803C
F007F800FF803C
F007F0003F803C
F007E0001F803C
F007C0000F803C
F007C0000F803C
F007800007803C
F007800007803C
F003C0000F803C
F803C0000F007C
F803E0001F007C
F801F0003E007C
F800F800FE00FC
FC007E03FC00FC
FC003FFFF800FC
FE001FFFE001FC
7E0007FFC003F8
7F0001FE0003F8
7F8000000007F8
3FC00000000FF0
3FE00000001FF0
3FF00000003FF0
1FF80000007FE0
1FFC000001FFE0
0FFF000003FFC0
07FFC0000FFF80
07FFFC00FFFF80
03FFFFFFFFFF00
01FFFFFFFFFE00
00FFFFFFFFFC00
007FFFFFFFF800
003FFFFFFFF000
000FFFFFFFC000
0007FFFFFF8000
0001FFFFFE0000
00003FFFF00000
000007FF800000
ENDCHAR
STARTCHAR 00D4
ENCODING 212
SWIDTH 765 0
DWIDTH 49 0
BBX 54 87 0 -11
BITMAP
0000007C000000
000001FF000000
000003FFC00000
000007FFE00000
00000FC3F00000
00001F81F80000
00003F00FC0000
0000FE007E0000
0000FC003F0000
0001F8001F8000
0003E0000FC000
0003C00003C000
0007C00003E000
0007800001E000
0007800001E000
0007801801E000
0007803C01E000
0003C07E03C000
0007E1FF0FE000
0007FFFFFFE000
0007FFFFFFE000
0007FFFFFFE000
0007FFFFFFE000
0007FFFFFFC000
0003FFFFFFC000
0001FFFFFF8000
0000FFFFFF0000
00007FFFFE0000
00003FFFF80000
0001FFFFFE0000
0007FFFFFF8000
000FFC00FFC000
003FE0001FF000
007F000003F800
00FE000001FC00
01F80000007E00
03F00000003F00
07E00000001F80
07C00000000F80
0F8000000007C0
1F0001FE0003E0
1F000FFFC003E0
3E001FFFE001F0
3C003FFFF800F0
3C007FFFFC00F0
7800FFFFFE00F8
7801FFFFFE0078
7803FFFFFF0078
F803FFFFFF007C
F003FFFFFF803C
F007FE03FF803C
F007F800FF803C
F007F0003F803C
F007E0001F803C
F007C0000F803C
F007C0000F803C
F007800007803C
F007800007803C
F003C0000F803C
F803C0000F007C
F803E0001F007C
F801F0003E007C
F800F800FE00FC
FC007E03FC00FC
FC003FFFF800FC
FE001FFFE001FC
7E0007FFC003F8
7F0001FE0003F8
7F8000000007F8
3FC00000000FF0
3FE00000001FF0
3FF00000003FF0
1FF80000007FE0
1FFC000001FFE0
0FFF000003FFC0
07FFC0000FFF80
07FFFC00FFFF80
03FFFFFFFFFF00
01FFFFFFFFFE00
00FFFFFFFFFC00
007FFFFFFFF800
003FFFFFFFF000
000FFFFFFFC000
0007FFFFFF8000
0001FFFFFE0000
00003FFFF00000
000007FF800000
ENDCHAR
STARTCHAR 00D5
ENCODING 213
SWIDTH 765 0
DWIDTH 49 0
BBX 54 82 0 -11
BITMAP
000007F0000000
00001FFFF80000
00007FFFFE0000
0000FFFFFF0000
0001FC1FFF8000
0003F0078FC000
0003E00003C000
0007C00003E000
0007800001E000
0007800001E000
0007800001E000
0007800001E000
0007C00003E000
0003C0C007E000
0007F1F00FE000
0007FFFC3FE000
0007FFFFFFE000
0007FFFFFFE000
0007FFFFFFE000
0003FFFFFFC000
0003FFFFFFC000
0001FFFFFF8000
0000FFFFFF0000
00007FFFFE0000
0001FFFFFE0000
0007FFFFFF8000
000FFC00FFC000
003FE0001FF000
007F000003F800
00FE000001FC00
01F80000007E00
03F00000003F00
07E00000001F80
07C00000000F80
0F8000000007C0
1F0001FE0003E0
1F000FFFC003E0
3E001FFFE001F0
3C003FFFF800F0
3C007FFFFC00F0
7800FFFFFE00F8
7801FFFFFE0078
7803FFFFFF0078
F803FFFFFF007C
F003FFFFFF803C
F007FE03FF803C
F007F800FF803C
F007F0003F803C
F007E0001F803C
F007C0000F803C
F007C0000F803C
F007800007803C
F007800007803C
F003C0000F803C
F803C0000F007C
F803E0001F007C
F801F0003E007C
F800F800FE00FC
FC007E03FC00FC
FC003FFFF800FC
FE001FFFE001FC
7E0007FFC003F8
7F0001FE0003F8
7F8000000007F8
3FC00000000FF0
3FE00000001FF0
3FF00000003FF0
1FF80000007FE0
1FFC000001FFE0
0FFF000003FFC0
07FFC0000FFF80
07FFFC00FFFF80
03FFFFFFFFFF00
01FFFFFFFFFE00
00FFFFFFFFFC00
007FFFFFFFF800
003FFFFFFFF000
000FFFFFFFC000
0007FFFFFF8000
0001FFFFFE0000
00003FFFF00000
000007FF800000
ENDCHAR
STARTCHAR 00D6
ENCODING 214
SWIDTH 765 0
DWIDTH 49 0
BBX 54 88 0 -11
BITMAP
00003F01F80000
0000FFC7FE0000
0001FFEFFF0000
0003FFFFFF8000
0007E1FE0FC000
0007C0FC07C000
000F807803C000
000F003003E000
000F003001E000
000F003001E000
000F003001E000
000F003001E000
000F003001C000
000F807803C000
000FC0FC07E000
000FE1FE0FE000
000FFFFFFFE000
000FFFFFFFE000
000FFFFFFFE000
000FFFFFFFE000
0007FFFFFFC000
0007FFFFFFC000
0003FFFFFF8000
0001FFFFFF0000
0000FFEFFE0000
00003F83F80000
00000000000000
00000000000000
000003FF000000
00003FFFF00000
0001FFFFFE0000
0007FFFFFF8000
000FFC00FFC000
003FE0001FF000
007F000003F800
00FE000001FC00
01F80000007E00
03F00000003F00
07E00000001F80
07C00000000F80
0F8000000007C0
1F0001FE0003E0
1F000FFFC003E0
3E001FFFE001F0
3C003FFFF800F0
3C007FFFFC00F0
7800FFFFFE00F8
7801FFFFFE0078
7803FFFFFF0078
F803FFFFFF007C
F003FFFFFF803C
F007FE03FF803C
F007F800FF803C
F007F0003F803C
F007E0001F803C
F007C0000F803C
F007C0000F803C
F007800007803C
F007800007803C
F003C0000F803C
F803C0000F007C
F803E0001F007C
F801F0003E007C
F800F800FE00FC
FC007E03FC00FC
FC003FFFF800FC
FE001FFFE001FC
7E0007FFC003F8
7F0001FE0003F8
7F8000000007F8
3FC00000000FF0
3FE00000001FF0
3FF00000003FF0
1FF80000007FE0
1FFC000001FFE0
0FFF000003FFC0
07FFC0000FFF80
07FFFC00FFFF80
03FFFFFFFFFF00
01FFFFFFFFFE00
00FFFFFFFFFC00
007FFFFFFFF800
003FFFFFFFF000
000FFFFFFFC000
0007FFFFFF8000
0001FFFFFE0000
00003FFFF00000
000007FF800000
ENDCHAR
STARTCHAR 00D8
ENCODING 216
SWIDTH 812 0
DWIDTH 52 0
BBX 54 60 0 -11
BITMAP
000003FF000000
00003FFFF00000
0001FFFFFE0000
0007FFFFFF8000
000FFC00FFC000
003FE0001FF000
007F000003F800
00FE000001FC00
01F80000007E00
03F00000003F00
07E00000001F80
07C00000000F80
0F8000000007C0
1F0001FE0003E0
1F000FFFC003E0
3E001FFFE001F0
3C003FFFF800F0
3C007FFFFC00F0
7800FFFFFE00F8
7801FFFFFE0078
7803FFFFFF0078
F803FFFFFF007C
F003FFFFFF803C
F007FE03FF803C
F007F800FF803C
F007F0003F803C
F007E0001F803C
F007C0000F803C
F007C0000F803C
F007800007803C
F007800007803C
F003C0000F803C
F803C0000F007C
F803E0001F007C
F801F0003E007C
F800F800FE00FC
FC007E03FC00FC
FC003FFFF800FC
FE001FFFE001FC
7E0007FFC003F8
7F0001FE0003F8
7F8000000007F8
3FC00000000FF0
3FE00000001FF0
3FF00000003FF0
1FF80000007FE0
1FFC000001FFE0
0FFF000003FFC0
07FFC0000FFF80
07FFFC00FFFF80
03FFFFFFFFFF00
01FFFFFFFFFE00
00FFFFFFFFFC00
007FFFFFFFF800
003FFFFFFFF000
000FFFFFFFC000
0007FFFFFF8000
0001FFFFFE0000
00003FFFF00000
000007FF800000
ENDCHAR
STARTCHAR 00D9
ENCODING 217
SWIDTH 484 0
DWIDTH 31 0
BBX 36 88 0 -11
BITMAP
0003F80000
000FFE0000
001FFF0000
003FFF8000
007E0F8000
007C07C000
00F803E000
00F001E000
00F001E000
00F001F000
00F000F000
00F000F800
00F8007800
00F8007800
00F8007C00
00FC003C00
00FC003C00
00FE003C00
00FE003C00
007E003C00
007F007800
007F80FC00
003FC1FC00
003FFFFC00
001FFFFC00
001FFFFC00
001FFFFC00
000FFFF800
07EFFFFC00
1FFFFFFF00
3FFFFFFFC0
7FFFFFFFC0
7C1F7F83E0
F80F9F01F0
F0079E00F0
F0079E00F0
F0079E00F0
F0079E00F0
F0079E00F0
F0079E00F0
F0079E00F0
F0079E00F0
F0079E00F0
F0079E00F0
F0079E00F0
F0079E00F0
F0079E00F0
F0079E00F0
F0079E00F0
F0079E00F0
F0079E00F0
F0079E00F0
F0079E00F0
F0079E00F0
F0079E00F0
F0079E00F0
F0079E00F0
F0079E00F0
F0079E00F0
F0079E00F0
F0079E00F0
F0079E00F0
F0079E00F0
F0079E00F0
F0079E00F0
F007FE00F0
F003FC00F0
F003FC00F0
F800F001F0
F8000001F0
F8000001F0
FC000003F0
FE000007F0
FE00000FF0
FF00001FF0
7FC0003FE0
7FE0007FE0
7FFC03FFE0
3FFFFFFFC0
3FFFFFFF80
1FFFFFFF80
0FFFFFFF00
07FFFFFE00
03FFFFFC00
01FFFFF800
007FFFE000
003FFFC000
0003FC0000
ENDCHAR
STARTCHAR 00DA
ENCODING 218
SWIDTH 484 0
DWIDTH 31 0
BBX 36 91 0 -11
BITMAP
00007F0000
0001FFC000
0003FFE000
0007FFF000
000FC1F800
000F80F800
001F007C00
001F003C00
001E003C00
003E003C00
003C003C00
007C003C00
0078007800
0078007C00
00F800FC00
00F000FC00
00F000FC00
00F001FC00
00F001FC00
00F003F800
00F803F800
00FC07F800
00FE0FF000
00FFFFF000
00FFFFE000
00FFFFE000
00FFFFE000
007FFFC000
007FFF8000
003FFF8000
001FFF0000
07EFFE7C00
1FFBF9FF00
3FFE07FFC0
7FFE07FFC0
7C1F0F83E0
F80F9F01F0
F0079E00F0
F0079E00F0
F0079E00F0
F0079E00F0
F0079E00F0
F0079E00F0
F0079E00F0
F0079E00F0
F0079E00F0
F0079E00F0
F0079E00F0
F0079E00F0
F0079E00F0
F0079E00F0
F0079E00F0
F0079E00F0
F0079E00F0
F0079E00F0
F0079E00F0
F0079E00F0
F0079E00F0
F0079E00F0
F0079E00F0
F0079E00F0
F0079E00F0
F0079E00F0
F0079E00F0
F0079E00F0
F0079E00F0
F0079E00F0
F0079E00F0
F007FE00F0
F003FC00F0
F003FC00F0
F800F001F0
F8000001F0
F8000001F0
FC000003F0
FE000007F0
FE00000FF0
FF00001FF0
7FC0003FE0
7FE0007FE0
7FFC03FFE0
3FFFFFFFC0
3FFFFFFF80
1FFFFFFF80
0FFFFFFF00
07FFFFFE00
03FFFFFC00
01FFFFF800
007FFFE000
003FFFC000
0003FC0000
ENDCHAR
STARTCHAR 00DB
ENCODING 219
SWIDTH 484 0
DWIDTH 31 0
BBX 36 86 0 -11
BITMAP
0001F00000
0007FC0000
000FFF0000
001FFF8000
003F0FC000
007E07E000
00FC03F000
03F801F800
03F000FC00
07E0007E00
0F80003F00
0F00000F00
1F00000F80
1E00000780
1E00000780
1E00600780
1E00F00780
0F01F80F00
1F87FC3F80
1FFFFFFF80
1FFFFFFF80
1FFFFFFF80
1FFFFFFF80
1FFFFFFF00
0FFFFFFF00
07FFFFFE00
07FFFFFC00
1FFF9FFF00
3FFE07FFC0
7FFE07FFC0
7C1F0F83E0
F80F9F01F0
F0079E00F0
F0079E00F0
F0079E00F0
F0079E00F0
F0079E00F0
F0079E00F0
F0079E00F0
F0079E00F0
F0079E00F0
F0079E00F0
F0079E00F0
F0079E00F0
F0079E00F0
F0079E00F0
F0079E00F0
F0079E00F0
F0079E00F0
F0079E00F0
F0079E00F0
F0079E00F0
F0079E00F0
F0079E00F0
F0079E00F0
F0079E00F0
F0079E00F0
F0079E00F0
F0079E00F0
F0079E00F0
F0079E00F0
F0079E00F0
F0079E00F0
F007FE00F0
F003FC00F0
F003FC00F0
F800F001F0
F8000001F0
F8000001F0
FC000003F0
FE000007F0
FE00000FF0
FF00001FF0
7FC0003FE0
7FE0007FE0
7FFC03FFE0
3FFFFFFFC0
3FFFFFFF80
1FFFFFFF80
0FFFFFFF00
07FFFFFE00
03FFFFFC00
01FFFFF800
007FFFE000
003FFFC000
0003FC0000
ENDCHAR
STARTCHAR 00DC
ENCODING 220
SWIDTH 484 0
DWIDTH 31 0
BBX 36 88 0 -11
BITMAP
007E03F000
01FF8FFC00
03FFDFFE00
07FFFFFF00
0FC3FC1F80
0F81F80F80
1F00F00780
1E006007C0
1E006003C0
1E006003C0
1E006003C0
1E006003C0
1E00600380
1F00F00780
1F81F80FC0
1FC3FC1FC0
1FFFFFFFC0
1FFFFFFFC0
1FFFFFFFC0
1FFFFFFFC0
0FFFFFFF80
0FFFFFFF80
07FFFFFF00
03FFFFFE00
01FFDFFC00
007F07F000
0000000000
0000000000
07E0007C00
1FF801FF00
3FFE07FFC0
7FFE07FFC0
7C1F0F83E0
F80F9F01F0
F0079E00F0
F0079E00F0
F0079E00F0
F0079E00F0
F0079E00F0
F0079E00F0
F0079E00F0
F0079E00F0
F0079E00F0
F0079E00F0
F0079E00F0
F0079E00F0
F0079E00F0
F0079E00F0
F0079E00F0
F0079E00F0
F0079E00F0
F0079E00F0
F0079E00F0
F0079E00F0
F0079E00F0
F0079E00F0
F0079E00F0
F0079E00F0
F0079E00F0
F0079E00F0
F0079E00F0
F0079E00F0
F0079E00F0
F0079E00F0
F0079E00F0
F007FE00F0
F003FC00F0
F003FC00F0
F800F001F0
F8000001F0
F8000001F0
FC000003F0
FE000007F0
FE00000FF0
FF00001FF0
7FC0003FE0
7FE0007FE0
7FFC03FFE0
3FFFFFFFC0
3FFFFFFF80
1FFFFFFF80
0FFFFFFF00
07FFFFFE00
03FFFFFC00
01FFFFF800
007FFFE000
003FFFC000
0003FC0000
ENDCHAR
STARTCHAR 00DD
ENCODING 221
SWIDTH 484 0
DWIDTH 31 0
BBX 28 67 3 -1
BITMAP
0001F000
0003F800
0007FC00
000FFC00
000FFE00
000FFE00
001FFE00
001FFE00
003FFC00
003FFC00
007FF800
007FF800
007FF800
007FF000
007FF000
003FE000
001FC000
000F8000
00000000
00000000
00000000
3E0003C0
7F800FF0
7F800FF0
FF801FF0
FF801FF0
FF801FF0
FF801FF0
FF801FF0
FF801FF0
FF801FF0
FF801FF0
FF801FF0
FF801FF0
FF801FF0
FFC01FF0
7FC01FF0
7FE03FF0
7FF07FF0
7FFFFFF0
3FFFFFF0
3FFFFFF0
1FFFFFF0
0FFFFFF0
07FFFFF0
03FFFFF0
00FFFFF0
003F9FF0
3F001FF0
7F801FF0
7F801FF0
FF801FF0
FF801FF0
FF801FF0
7FC01FF0
7FC01FF0
7FE03FF0
7FF07FF0
7FFFFFE0
3FFFFFE0
3FFFFFC0
1FFFFFC0
0FFFFF80
07FFFF00
03FFFE00
00FFF800
003FC000
ENDCHAR
STARTCHAR 00DE
ENCODING 222
SWIDTH 1109 0
DWIDTH 71 0
BBX 71 65 3 2
BITMAP
0000001F0000000000
0000007FC000000000
000000FFFFE0000000
000001FFFFFC000000
000003FFFFFF000000
000007FFFFFFC00000
00000FFFFFFFE00000
00001FFFFFFFF00000
00003FFFFFFFF80000
00003FFFFFFFFC0000
00007FFFFFFFFE0000
00007FFFFFFFFF0000
0000FFFFFFFFFF8000
0000FFFF03FFFF8000
0001FFFC00FFFFC000
0001FFF8007FFFE000
0001FFF0003FFFE000
0003FFE0001FFFF000
0003FFE0000FFFF000
0007FFC00007FFF800
000FFFC00003FFF800
001FFFC00001FFF800
003FFF800000FFFC00
007FFF8000007FFC00
01FFFF8000007FFE00
0FFFFF8000003FFE00
FFFFFF8000001FFE00
FFFFFF8000001FFE00
7FFFFF8000000FFE00
3FFFFFFC003F8FFE00
1FFFFF0F00F06FFE00
01FFFF00000007FE00
00FFFE00000007FE00
01FFFE00000007FE04
03FFFC00000007FC0C
07FFFDFE007F87FE1E
0FFFF99F81F987FFFE
3FFFF01E807807FFFE
FFFFC00C003007FFFE
7FFF8000000007FFFE
7FFFC000000007FFFC
7FFFC000000007FFFC
3FFFC000000007FFF8
1FFFC000000007FFF0
03FFE000000007FFF0
07FFE00000000FFFF0
3FFFE00000000FFFF0
FFFFF0007C000FFFF0
7FFFF000FF001FFFC0
3FFFF801FF803FFF00
1FFFFC03FF807FFF00
0FFFFE0000007FFF00
0FFFFF030180FFFF00
07FFFF01FF81FFFE00
07FFFF81FF03FFFC00
03FFFFC0FE07FFF000
01FFFFE03C0FFFC000
00FFFFF0001FFFC000
003FF0F8003FFFC000
0000007E0079FF8000
0000003F81F03E0000
0000001FFFE0000000
00000007FF80000000
00000001FF00000000
000000007C00000000
ENDCHAR
STARTCHAR 00DF
ENCODING 223
SWIDTH 500 0
DWIDTH 32 0
BBX 35 72 -1 -23
BITMAP
0007FC0000
003FFF8000
007FFFE000
01FFFFF000
03FC03FC00
07E000FE00
0FC0003E00
1F80001F00
1F00000F80
3E00000780
3C000007C0
7C000003C0
78000003E0
7801F801E0
7803FC01E0
F003FE01E0
F007FE01E0
F007FE01E0
F007FE01E0
F007FE01E0
F007FC01E0
F007F801E0
F007C003E0
F0060003E0
F0040007E0
F0080007E0
F008000FE0
F008000FE0
F0040007E0
F0040007C0
F0070003C0
F007E003E0
F007F801E0
F007FC01E0
F007FE01E0
F007FE01E0
F007FE01E0
F007FE01E0
F007FE01E0
F007FC01E0
F007F801E0
F0078003E0
F0060003E0
F0040007E0
F0080007E0
F008000FE0
F008001FE0
F004003FE0
F00400FFC0
F00703FFC0
F007FFFF80
F007FFFF80
F007FFFF00
F007FFFF00
F007FFFE00
F007FFFC00
F007FFF800
F007FFE000
F007FF8000
F807FC0000
F80F800000
FE1F800000
FFFF800000
FFFF800000
FFFF800000
FFFF800000
7FFF800000
7FFF000000
3FFF000000
1FFE000000
0FFC000000
03F0000000
ENDCHAR
STARTCHAR 00E0
ENCODING 224
SWIDTH 562 0
DWIDTH 36 0
BBX 41 79 0 -11
BITMAP
0003F8000000
000FFE000000
001FFF000000
003FFF800000
007E0F800000
007C07C00000
00F803E00000
00F001E00000
00F001E00000
00F001F00000
00F000F00000
00F000F80000
00F800780000
00F800780000
00F8007C0000
00FC003C0000
00FC003C0000
00FE003C0000
00FE003C0000
007E003C0000
007F00780000
007F80FC0000
003FC1FC0000
003FFFFC0000
001FFFFC0000
001FFFFC0000
001FFFFC0000
000FFFF80000
000FFFF80000
0007FFF00000
0003FFE00000
0001FFC00000
0000FF800000
000FFFF80000
003FFFFE0000
007FFFFF0000
01FF007FC000
03F8000FE000
07E00007F000
0FC00001F800
0F800000F800
1F0000007C00
3E0000003E00
3C0000003E00
7C0000001F00
78003E000F00
7800FF800F00
F801FFC00F00
F003FFE00780
F003FFE00780
F007FFF00780
F007FFF00780
F007FFF00780
F007FFF00780
F007FFF00780
F007E3F00780
F003FFF00780
F801FFF00780
F801FFF00780
F8007FF00780
FC0007F00780
FC0001F00780
FE0000F00780
7F0000F00780
7F8000F00780
7FC000F00780
7FE000F00780
3FF801F80F80
3FFF03FC1F80
1FFFFFFFFF80
0FFFFFFFFF80
0FFFFFFFFF80
07FFFFFFFF80
03FFFFFFFF80
01FFFFFFFF00
007FFFFFFF00
003FFFFFFE00
000FFFDFF800
0000FF07E000
ENDCHAR
STARTCHAR 00E1
ENCODING 225
SWIDTH 562 0
DWIDTH 36 0
BBX 41 85 0 -11
BITMAP
00007F000000
0001FFC00000
0003FFE00000
0007FFF00000
000FC1F80000
000F80F80000
001F007C0000
001F003C0000
001E003C0000
003E003C0000
003C003C0000
007C003C0000
007800780000
0078007C0000
00F800FC0000
00F000FC0000
00F000FC0000
00F001FC0000
00F001FC0000
00F003F80000
00F803F80000
00FC07F80000
00FE0FF00000
00FFFFF00000
00FFFFE00000
00FFFFE00000
00FFFFE00000
007FFFC00000
007FFF800000
003FFF800000
001FFF000000
000FFE000000
0003F8000000
000000000000
000000000000
000000000000
000000000000
000000000000
0000FF800000
000FFFF80000
003FFFFE0000
007FFFFF0000
01FF007FC000
03F8000FE000
07E00007F000
0FC00001F800
0F800000F800
1F0000007C00
3E0000003E00
3C0000003E00
7C0000001F00
78003E000F00
7800FF800F00
F801FFC00F00
F003FFE00780
F003FFE00780
F007FFF00780
F007FFF00780
F007FFF00780
F007FFF00780
F007FFF00780
F007E3F00780
F003FFF00780
F801FFF00780
F801FFF00780
F8007FF00780
FC0007F00780
FC0001F00780
FE0000F00780
7F0000F00780
7F8000F00780
7FC000F00780
7FE000F00780
3FF801F80F80
3FFF03FC1F80
1FFFFFFFFF80
0FFFFFFFFF80
0FFFFFFFFF80
07FFFFFFFF80
03FFFFFFFF80
01FFFFFFFF00
007FFFFFFF00
003FFFFFFE00
000FFFDFF800
0000FF07E000
ENDCHAR
STARTCHAR 00E2
ENCODING 226
SWIDTH 562 0
DWIDTH 36 0
BBX 41 72 0 -11
BITMAP
00003E000000
0000FF800000
0001FFE00000
0003FFF00000
0007E1F80000
000FC0FC0000
001F807E0000
007F003F0000
007E001F8000
00FC000FC000
01F00007E000
01E00001E000
03E00001F000
03C00000F000
03C00000F000
03C00C00F000
03C01E00F000
01E03F01E000
03F0FF87F000
03FFFFFFF000
03FFFFFFF000
03FFFFFFF000
03FFFFFFF000
03FFFFFFE000
01FFFFFFE000
00FFFFFFC000
007FFFFF8000
003FFFFF0000
007FFFFF0000
01FF007FC000
03F8000FE000
07E00007F000
0FC00001F800
0F800000F800
1F0000007C00
3E0000003E00
3C0000003E00
7C0000001F00
78003E000F00
7800FF800F00
F801FFC00F00
F003FFE00780
F003FFE00780
F007FFF00780
F007FFF00780
F007FFF00780
F007FFF00780
F007FFF00780
F007E3F00780
F003FFF00780
F801FFF00780
F801FFF00780
F8007FF00780
FC0007F00780
FC0001F00780
FE0000F00780
7F0000F00780
7F8000F00780
7FC000F00780
7FE000F00780
3FF801F80F80
3FFF03FC1F80
1FFFFFFFFF80
0FFFFFFFFF80
0FFFFFFFFF80
07FFFFFFFF80
03FFFFFFFF80
01FFFFFFFF00
007FFFFFFF00
003FFFFFFE00
000FFFDFF800
0000FF07E000
ENDCHAR
STARTCHAR 00E3
ENCODING 227
SWIDTH 562 0
DWIDTH 36 0
BBX 41 69 0 -11
BITMAP
0003F8000000
000FFFFC0000
003FFFFF0000
007FFFFF8000
00FE0FFFC000
01F803C7E000
01F00001E000
03E00001F000
03C00000F000
03C00000F000
03C00000F000
03C00000F000
03E00001F000
01E06003F000
03F8F807F000
03FFFE1FF000
03FFFFFFF000
03FFFFFFF000
03FFFFFFF000
01FFFFFFE000
01FFFFFFE000
00FFFFFFC000
007FFFFF8000
003FFFFF0000
003FFFFE0000
007FFFFF0000
01FF007FC000
03F8000FE000
07E00007F000
0FC00001F800
0F800000F800
1F0000007C00
3E0000003E00
3C0000003E00
7C0000001F00
78003E000F00
7800FF800F00
F801FFC00F00
F003FFE00780
F003FFE00780
F007FFF00780
F007FFF00780
F007FFF00780
F007FFF00780
F007FFF00780
F007E3F00780
F003FFF00780
F801FFF00780
F801FFF00780
F8007FF00780
FC0007F00780
FC0001F00780
FE0000F00780
7F0000F00780
7F8000F00780
7FC000F00780
7FE000F00780
3FF801F80F80
3FFF03FC1F80
1FFFFFFFFF80
0FFFFFFFFF80
0FFFFFFFFF80
07FFFFFFFF80
03FFFFFFFF80
01FFFFFFFF00
007FFFFFFF00
003FFFFFFE00
000FFFDFF800
0000FF07E000
ENDCHAR
STARTCHAR 00E4
ENCODING 228
SWIDTH 562 0
DWIDTH 36 0
BBX 41 75 0 -11
BITMAP
001F80FC0000
007FE3FF0000
00FFF7FF8000
01FFFFFFC000
03F0FF07E000
03E07E03E000
07C03C01E000
07801801F000
07801800F000
07801800F000
07801800F000
07801800F000
07801800E000
07C03C01E000
07E07E03F000
07F0FF07F000
07FFFFFFF000
07FFFFFFF000
07FFFFFFF000
07FFFFFFF000
03FFFFFFE000
03FFFFFFE000
01FFFFFFC000
00FFFFFF8000
007FF7FF0000
001FC1FC0000
000000000000
000000000000
0000FF800000
000FFFF80000
003FFFFE0000
007FFFFF0000
01FF007FC000
03F8000FE000
07E00007F000
0FC00001F800
0F800000F800
1F0000007C00
3E0000003E00
3C0000003E00
7C0000001F00
78003E000F00
7800FF800F00
F801FFC00F00
F003FFE00780
F003FFE00780
F007FFF00780
F007FFF00780
F007FFF00780
F007FFF00780
F007FFF00780
F007E3F00780
F003FFF00780
F801FFF00780
F801FFF00780
F8007FF00780
FC0007F00780
FC0001F00780
FE0000F00780
7F0000F00780
7F8000F00780
7FC000F00780
7FE000F00780
3FF801F80F80
3FFF03FC1F80
1FFFFFFFFF80
0FFFFFFFFF80
0FFFFFFFFF80
07FFFFFFFF80
03FFFFFFFF80
01FFFFFFFF00
007FFFFFFF00
003FFFFFFE00
000FFFDFF800
0000FF07E000
ENDCHAR
STARTCHAR 00E5
ENCODING 229
SWIDTH 562 0
DWIDTH 36 0
BBX 41 75 0 -11
BITMAP
00007E000000
0003FFC00000
0007FFE00000
000FFFF00000
001F81F80000
003F00FC0000
003E007C0000
007C003C0000
0078001E0000
00783C1E0000
00783C1E0000
00783C1E0000
00783C1E0000
0078001E0000
007C003E0000
007E007E0000
007F00FE0000
007F81FE0000
007FFFFE0000
007FFFFE0000
007FFFFC0000
003FFFFC0000
003FFFFC0000
001FFFF80000
000FFFF00000
0007FFE00000
0003FFC00000
00007E000000
0000FF800000
000FFFF80000
003FFFFE0000
007FFFFF0000
01FF007FC000
03F8000FE000
07E00007F000
0FC00001F800
0F800000F800
1F0000007C00
3E0000003E00
3C0000003E00
7C0000001F00
78003E000F00
7800FF800F00
F801FFC00F00
F003FFE00780
F003FFE00780
F007FFF00780
F007FFF00780
F007FFF00780
F007FFF00780
F007FFF00780
F007E3F00780
F003FFF00780
F801FFF00780
F801FFF00780
F8007FF00780
FC0007F00780
FC0001F00780
FE0000F00780
7F0000F00780
7F8000F00780
7FC000F00780
7FE000F00780
3FF801F80F80
3FFF03FC1F80
1FFFFFFFFF80
0FFFFFFFFF80
0FFFFFFFFF80
07FFFFFFFF80
03FFFFFFFF80
01FFFFFFFF00
007FFFFFFF00
003FFFFFFE00
000FFFDFF800
0000FF07E000
ENDCHAR
STARTCHAR 00E6
ENCODING 230
SWIDTH 921 0
DWIDTH 59 0
BBX 62 47 -1 -11
BITMAP
0000FF8000FF8000
0007FFF807FFF800
001FFFFE1FFFFE00
007FFFFF3FFFFF80
00FF807FFF807FC0
01FC001FFC000FE0
03F00007F80003F0
07C00003E00001F8
0F800000C000007C
1F0000008000003C
1E0000000000003C
3E0000000000003C
3C0000000000003C
7C003E00003C003C
7800FF8000F8007C
7801FFC003F000FC
7803FFE003E001FC
F803FFF0078003FC
F003FFF0078007FC
F007FFF00F001FFC
F007FFF00F003FFC
F007FFF00F807FFC
F007FFF00780FFF8
F803F3F807E1FFF0
F803FFF803FFFFE0
F801FFF803FFFFC0
F800FFF800FFFF80
FC007FFC003FFFC0
FC0003FC000007C0
FE0000FE000003E0
7E00007E000001E0
7F00007F000001E0
7F80007F800001E0
7FC0007FC00001E0
3FF0007FF00001E0
3FFC00FFFC0003E0
1FFF01FFFF8007E0
1FFFFFFFFFFFFFE0
0FFFFFFFFFFFFFE0
07FFFFFFFFFFFFE0
03FFFFFBFFFFFFE0
01FFFFF9FFFFFFE0
00FFFFF8FFFFFFC0
007FFFF07FFFFFC0
001FFFE01FFFFF80
0007FFC007FFFF00
0000FF0000FFFC00
ENDCHAR
STARTCHAR 00E7
ENCODING 231
SWIDTH 375 0
DWIDTH 24 0
BBX 29 59 -1 -23
BITMAP
0000FF00
0007FFC0
001FFFE0
007FFFF0
00FF81F0
01FC00F8
03F00078
07C00078
0F800078
1F000078
1E000078
3E0000F8
3C0001F8
7C003FF8
7800FFF8
7801FFF8
7803FFF8
F003FFF8
F003FFF0
F007FFF0
F007FFE0
F007FFC0
F003FF00
F803E000
F803FF00
F801FFC0
FC00FFE0
FC003FF0
FE0001F0
FE0000F8
7F000078
7F800078
7FC00078
7FF00078
3FFC00F8
3FFF01F8
1FFFFFF8
1FFFFFF8
0FFE1FF8
0FF807F8
07F003F8
03F003F8
01E003F0
01E003F0
01E003E0
00F003E0
00F003C0
00F807C0
01FE1FC0
01FFFFC0
01FFFFC0
01FFFFC0
00FFFFC0
00FFFFC0
007FFF80
007FFF00
003FFE00
000FFC00
0003F000
ENDCHAR
STARTCHAR 00E8
ENCODING 232
SWIDTH 515 0
DWIDTH 33 0
BBX 38 76 0 -11
BITMAP
0003F80000
000FFE0000
001FFF0000
003FFF8000
007E0F8000
007C07C000
00F803E000
00F001E000
00F001E000
00F001F000
00F000F000
00F000F800
00F8007800
00F8007800
00F8007C00
00FC003C00
00FC003C00
00FE003C00
00FE003C00
007E003C00
007F007800
007F80FC00
003FC1FC00
003FFFFC00
001FFFFC00
001FFFFC00
001FFFFC00
000FFFF800
000FFFF800
0007FFF000
000FFFF000
003FFFFE00
007FFFFF00
01FF007FC0
03F8000FE0
07F00003F0
0FC00001F8
0F800000F8
1F0000007C
3E0000003C
3E0000003C
7C0000003C
78003C003C
7800F80078
F801F000F8
F003E001FC
F003C003FC
F0078007FC
F007800FFC
F007803FFC
F007807FF8
F007C0FFF8
F003E1FFF0
F003FFFFE0
F801FFFFC0
F800FFFF80
F8003FFF80
FC000007C0
FE000003C0
FE000001E0
7F000001E0
7F800001E0
7FC00001E0
7FF00001E0
3FF80003C0
3FFF0007E0
1FFFFFFFE0
0FFFFFFFE0
0FFFFFFFE0
07FFFFFFE0
03FFFFFFE0
01FFFFFFC0
007FFFFFC0
003FFFFF80
0007FFFF00
0000FFF800
ENDCHAR
STARTCHAR 00E9
ENCODING 233
SWIDTH 515 0
DWIDTH 33 0
BBX 38 78 0 -11
BITMAP
00007F0000
0001FFC000
0003FFE000
0007FFF000
000FC1F800
000F80F800
001F007C00
001F003C00
001E003C00
003E003C00
003C003C00
007C003C00
0078007800
0078007C00
00F800FC00
00F000FC00
00F000FC00
00F001FC00
00F001FC00
00F003F800
00F803F800
00FC07F800
00FE0FF000
00FFFFF000
00FFFFE000
00FFFFE000
00FFFFE000
007FFFC000
007FFF8000
003FFF8000
001FFF0000
000FFF8000
000FFFF000
003FFFFE00
007FFFFF00
01FF007FC0
03F8000FE0
07F00003F0
0FC00001F8
0F800000F8
1F0000007C
3E0000003C
3E0000003C
7C0000003C
78003C003C
7800F80078
F801F000F8
F003E001FC
F003C003FC
F0078007FC
F007800FFC
F007803FFC
F007807FF8
F007C0FFF8
F003E1FFF0
F003FFFFE0
F801FFFFC0
F800FFFF80
F8003FFF80
FC000007C0
FE000003C0
FE000001E0
7F000001E0
7F800001E0
7FC00001E0
7FF00001E0
3FF80003C0
3FFF0007E0
1FFFFFFFE0
0FFFFFFFE0
0FFFFFFFE0
07FFFFFFE0
03FFFFFFE0
01FFFFFFC0
007FFFFFC0
003FFFFF80
0007FFFF00
0000FFF800
ENDCHAR
STARTCHAR 00EA
ENCODING 234
SWIDTH 515 0
DWIDTH 33 0
BBX 38 73 0 -11
BITMAP
00003E0000
0000FF8000
0001FFE000
0003FFF000
0007E1F800
000FC0FC00
001F807E00
007F003F00
007E001F80
00FC000FC0
01F00007E0
01E00001E0
03E00001F0
03C00000F0
03C00000F0
03C00C00F0
03C01E00F0
01E03F01E0
03F0FF87F0
03FFFFFFF0
03FFFFFFF0
03FFFFFFF0
03FFFFFFF0
03FFFFFFE0
01FFFFFFE0
00FFFFFFC0
007FFFFF80
003FFFFF00
003FFFFE00
007FFFFF00
01FF007FC0
03F8000FE0
07F00003F0
0FC00001F8
0F800000F8
1F0000007C
3E0000003C
3E0000003C
7C0000003C
78003C003C
7800F80078
F801F000F8
F003E001FC
F003C003FC
F0078007FC
F007800FFC
F007803FFC
F007807FF8
F007C0FFF8
F003E1FFF0
F003FFFFE0
F801FFFFC0
F800FFFF80
F8003FFF80
FC000007C0
FE000003C0
FE000001E0
7F000001E0
7F800001E0
7FC00001E0
7FF00001E0
3FF80003C0
3FFF0007E0
1FFFFFFFE0
0FFFFFFFE0
0FFFFFFFE0
07FFFFFFE0
03FFFFFFE0
01FFFFFFC0
007FFFFFC0
003FFFFF80
0007FFFF00
0000FFF800
ENDCHAR
STARTCHAR 00EB
ENCODING 235
SWIDTH 515 0
DWIDTH 33 0
BBX 38 75 0 -11
BITMAP
003F01F800
00FFC7FE00
01FFEFFF00
03FFFFFF80
07E1FE0FC0
07C0FC07C0
0F807803C0
0F003003E0
0F003001E0
0F003001E0
0F003001E0
0F003001E0
0F003001C0
0F807803C0
0FC0FC07E0
0FE1FE0FE0
0FFFFFFFE0
0FFFFFFFE0
0FFFFFFFE0
0FFFFFFFE0
07FFFFFFC0
07FFFFFFC0
03FFFFFF80
01FFFFFF00
00FFEFFE00
003F83F800
0000000000
0000000000
0000FF8000
000FFFF000
003FFFFE00
007FFFFF00
01FF007FC0
03F8000FE0
07F00003F0
0FC00001F8
0F800000F8
1F0000007C
3E0000003C
3E0000003C
7C0000003C
78003C003C
7800F80078
F801F000F8
F003E001FC
F003C003FC
F0078007FC
F007800FFC
F007803FFC
F007807FF8
F007C0FFF8
F003E1FFF0
F003FFFFE0
F801FFFFC0
F800FFFF80
F8003FFF80
FC000007C0
FE000003C0
FE000001E0
7F000001E0
7F800001E0
7FC00001E0
7FF00001E0
3FF80003C0
3FFF0007E0
1FFFFFFFE0
0FFFFFFFE0
0FFFFFFFE0
07FFFFFFE0
03FFFFFFE0
01FFFFFFC0
007FFFFFC0
003FFFFF80
0007FFFF00
0000FFF800
ENDCHAR
STARTCHAR 00EC
ENCODING 236
SWIDTH 187 0
DWIDTH 12 0
BBX 22 77 -5 -11
BITMAP
03F800
0FFE00
1FFF00
3FFF80
7E0F80
7C07C0
F803E0
F001E0
F001E0
F001F0
F000F0
F000F8
F80078
F80078
F8007C
FC003C
FC003C
FE003C
FE003C
7E003C
7F0078
7F80FC
3FC1FC
3FFFFC
1FFFFC
1FFFFC
1FFFFC
0FFFF8
0FFFF8
07FFF0
03FFE0
01FFE0
01FFF0
03FFF8
03E0F8
07C07C
07803C
07803C
07803C
07803C
07803C
07803C
07803C
07803C
07803C
07803C
07803C
07803C
07803C
07803C
07803C
07803C
07803C
07803C
07803C
07803C
07803C
07803C
07803C
07803C
07803C
07803C
07803C
07803C
07803C
07C07C
07E0FC
07FFFC
07FFFC
07FFFC
07FFFC
07FFFC
03FFF8
03FFF8
01FFF0
00FFC0
003F00
ENDCHAR
STARTCHAR 00ED
ENCODING 237
SWIDTH 187 0
DWIDTH 12 0
BBX 22 78 -2 -11
BITMAP
007F00
01FFC0
03FFE0
07FFF0
0FC1F8
0F80F8
1F007C
1F003C
1E003C
3E003C
3C003C
7C003C
780078
78007C
F800FC
F000FC
F000FC
F001FC
F001FC
F003F8
F803F8
FC07F8
FE0FF0
FFFFF0
FFFFE0
FFFFE0
FFFFE0
7FFFC0
7FFF80
3FFF80
1FFF00
0FFE00
07FF00
0FFF80
1FFFC0
1F07C0
3E03E0
3C01E0
3C01E0
3C01E0
3C01E0
3C01E0
3C01E0
3C01E0
3C01E0
3C01E0
3C01E0
3C01E0
3C01E0
3C01E0
3C01E0
3C01E0
3C01E0
3C01E0
3C01E0
3C01E0
3C01E0
3C01E0
3C01E0
3C01E0
3C01E0
3C01E0
3C01E0
3C01E0
3C01E0
3C01E0
3E03E0
3F07E0
3FFFE0
3FFFE0
3FFFE0
3FFFE0
3FFFE0
1FFFC0
1FFFC0
0FFF80
07FE00
01F800
ENDCHAR
STARTCHAR 00EE
ENCODING 238
SWIDTH 187 0
DWIDTH 12 0
BBX 30 73 -6 -11
BITMAP
000F8000
003FE000
007FF800
00FFFC00
01F87E00
03F03F00
07E01F80
1FC00FC0
1F8007E0
3F0003F0
7C0001F8
78000078
F800007C
F000003C
F000003C
F003003C
F007803C
780FC078
FC3FE1FC
FFFFFFFC
FFFFFFFC
FFFFFFFC
FFFFFFFC
7FFFFFF8
7FFFFFF8
3FFFFFF0
1FFFFFE0
0FFFFFC0
03FFFF00
01FFFC00
01F07C00
03E03E00
03C01E00
03C01E00
03C01E00
03C01E00
03C01E00
03C01E00
03C01E00
03C01E00
03C01E00
03C01E00
03C01E00
03C01E00
03C01E00
03C01E00
03C01E00
03C01E00
03C01E00
03C01E00
03C01E00
03C01E00
03C01E00
03C01E00
03C01E00
03C01E00
03C01E00
03C01E00
03C01E00
03C01E00
03C01E00
03E03E00
03F07E00
03FFFE00
03FFFE00
03FFFE00
03FFFE00
03FFFE00
01FFFC00
01FFFC00
00FFF800
007FE000
001F8000
ENDCHAR
STARTCHAR 00EF
ENCODING 239
SWIDTH 187 0
DWIDTH 12 0
BBX 31 75 -7 -11
BITMAP
03F01F80
0FFC7FE0
1FFEFFF0
3FFFFFF8
7E1FE0FC
7C0FC07C
F807803C
F003003E
F003001E
F003001E
F003001E
F003001E
F003001C
F807803C
FC0FC07E
FE1FE0FE
FFFFFFFE
FFFFFFFE
FFFFFFFE
FFFFFFFE
7FFFFFFC
7FFFFFFC
3FFFFFF8
1FFFFFF0
0FFEFFE0
03F83F80
00000000
00000000
000FE000
003FF800
007FFC00
00FFFE00
00F83E00
01F01F00
01E00F00
01E00F00
01E00F00
01E00F00
01E00F00
01E00F00
01E00F00
01E00F00
01E00F00
01E00F00
01E00F00
01E00F00
01E00F00
01E00F00
01E00F00
01E00F00
01E00F00
01E00F00
01E00F00
01E00F00
01E00F00
01E00F00
01E00F00
01E00F00
01E00F00
01E00F00
01E00F00
01E00F00
01E00F00
01F01F00
01F83F00
01FFFF00
01FFFF00
01FFFF00
01FFFF00
01FFFF00
00FFFE00
00FFFE00
007FFC00
003FF000
000FC000
ENDCHAR
STARTCHAR 00F0
ENCODING 240
SWIDTH 1109 0
DWIDTH 71 0
BBX 71 65 3 2
BITMAP
0000001F0000000000
0000007FC000000000
000000FFFFE0000000
000001FFFFFC000000
000003FFFFFF000000
000007FFFFFFC00000
00000FFFFFFFE00000
00001FFFFFFFF00000
00003FFFFFFFF80000
00003FFFFFFFFC0000
00007FFFFFFFFE0000
00007FFFFFFFFF0000
0000FFFFFFFFFF8000
0000FFFF03FFFF8000
0001FFFC00FFFFC000
0001FFF8007FFFE000
0001FFF0003FFFE000
0003FFE0001FFFF000
0003FFE0000FFFF000
0007FFC00007FFF800
000FFFC00003FFF800
001FFFC00001FFF800
003FFF800000FFFC00
007FFF8000007FFC00
01FFFF8000007FFE00
0FFFFF8000003FFE00
FFFFFF8000001FFE00
FFFFFF8000001FFE00
7FFFFF8000000FFE00
3FFFFFFC003F8FFE00
1FFFFF0F00F06FFE00
01FFFF00000007FE00
00FFFE00000007FE00
01FFFE00000007FE04
03FFFC00000007FC0C
07FFFDFE007F87FE1E
0FFFF99F81F987FFFE
3FFFF01E807807FFFE
FFFFC00C003007FFFE
7FFF8000000007FFFE
7FFFC000000007FFFC
7FFFC000000007FFFC
3FFFC000000007FFF8
1FFFC000000007FFF0
03FFE000000007FFF0
07FFE00000000FFFF0
3FFFE00000000FFFF0
FFFFF0007C000FFFF0
7FFFF000FF001FFFC0
3FFFF801FF803FFF00
1FFFFC03FF807FFF00
0FFFFE0000007FFF00
0FFFFF030180FFFF00
07FFFF01FF81FFFE00
07FFFF81FF03FFFC00
03FFFFC0FE07FFF000
01FFFFE03C0FFFC000
00FFFFF0001FFFC000
003FF0F8003FFFC000
0000007E0079FF8000
0000003F81F03E0000
0000001FFFE0000000
00000007FF80000000
00000001FF00000000
000000007C00000000
ENDCHAR
STARTCHAR 00F1
ENCODING 241
SWIDTH 484 0
DWIDTH 31 0
BBX 46 84 0 -25
BITMAP
001FC0000000
007FFFE00000
01FFFFF80000
03FFFFFC0000
07F07FFE0000
0FC01E3F0000
0F80000F0000
1F00000F8000
1E0000078000
1E0000078000
1E0000078000
1E0000078000
1F00000F8000
0F03001F8000
1FC7C03F8000
1FFFF0FF8000
1FFFFFFF8000
1FFFFFFF8000
1FFFFFFF8000
0FFFFFFF0000
0FFFFFFF0000
07FFFFFE0000
03FFFFFC0000
01FFFFF80000
007FFFE00000
007FFFE00000
01FFFFF80000
03FC03FC0000
07E0007E0000
0FC0003F0000
1F80001F8000
1F0000078000
3E000007C000
7C000003C000
78000001E000
78000001E000
F800F001E000
F003FC00F000
F003FC00F000
F007FE00F000
F007FE00F000
F007FE00F000
F007FE00F000
F007FE00F000
F007FE00F000
F007FE00F000
F0079E00F000
F0079E00F000
F0079E00F000
F0079E00F000
F0079E00F000
F0079E00F000
F0079E00F000
F0079E00F000
F0079E00F000
F0079E00F000
F0079E00F000
F0079E00F000
F80F9E00F000
FC1F9E00F000
FFFF9E00F000
FFFF9E00FF00
FFFF9E007FC0
FFFF9E003FF0
FFFF9F001FF0
7FFF1F0000F8
7FFF1F00007C
3FFE1F80003C
1FF81FC0003C
07E01FC0003C
00001FF0003C
00000FF8003C
00000FFC0078
00000FFF80FC
000007FFFFFC
000003FFFFFC
000003FFFFFC
000001FFFFFC
000000FFFFFC
0000007FFFF8
0000003FFFF8
0000000FFFF0
00000003FFC0
000000007F00
ENDCHAR
STARTCHAR 00F2
ENCODING 242
SWIDTH 562 0
DWIDTH 36 0
BBX 41 77 0 -11
BITMAP
0003F8000000
000FFE000000
001FFF000000
003FFF800000
007E0F800000
007C07C00000
00F803E00000
00F001E00000
00F001E00000
00F001F00000
00F000F00000
00F000F80000
00F800780000
00F800780000
00F8007C0000
00FC003C0000
00FC003C0000
00FE003C0000
00FE003C0000
007E003C0000
007F00780000
007F80FC0000
003FC1FC0000
003FFFFC0000
001FFFFC0000
001FFFFC0000
001FFFFC0000
000FFFF80000
000FFFF80000
0007FFF00000
0003FFE00000
000FFFF80000
003FFFFE0000
007FFFFF0000
01FF007FC000
03F8000FE000
07E00007F000
0FC00001F800
0F800000F800
1F0000007C00
3E0000003E00
3C0000003E00
7C0000001F00
78003E000F00
7800FF800F00
F801FFC00F00
F003FFE00780
F003FFE00780
F007FFF00780
F007FFF00780
F007FFF00780
F007FFF00780
F007FFF00780
F003FFE00780
F003FFE00780
F801FFC00F80
F800FF800F80
F8003E000F80
FC0000001F80
FC0000003F80
FE0000003F80
7F0000007F00
7F800000FF00
7FC00001FF00
7FE00007FF00
3FF8000FFE00
3FFF007FFE00
1FFFFFFFFC00
0FFFFFFFF800
0FFFFFFFF800
07FFFFFFF000
03FFFFFFE000
01FFFFFFC000
007FFFFF0000
003FFFFE0000
000FFFF80000
0000FF800000
ENDCHAR
STARTCHAR 00F3
ENCODING 243
SWIDTH 562 0
DWIDTH 36 0
BBX 41 78 0 -11
BITMAP
00003F800000
0000FFE00000
0001FFF00000
0003FFF80000
0007E0FC0000
0007C07C0000
000F803E0000
000F801E0000
000F001E0000
001F001E0000
001E001E0000
003E001E0000
003C003C0000
003C003E0000
007C007E0000
0078007E0000
0078007E0000
007800FE0000
007800FE0000
007801FC0000
007C01FC0000
007E03FC0000
007F07F80000
007FFFF80000
007FFFF00000
007FFFF00000
007FFFF00000
003FFFE00000
003FFFC00000
001FFFC00000
000FFF800000
0007FF800000
000FFFF80000
003FFFFE0000
007FFFFF0000
01FF007FC000
03F8000FE000
07E00007F000
0FC00001F800
0F800000F800
1F0000007C00
3E0000003E00
3C0000003E00
7C0000001F00
78003E000F00
7800FF800F00
F801FFC00F00
F003FFE00780
F003FFE00780
F007FFF00780
F007FFF00780
F007FFF00780
F007FFF00780
F007FFF00780
F003FFE00780
F003FFE00780
F801FFC00F80
F800FF800F80
F8003E000F80
FC0000001F80
FC0000003F80
FE0000003F80
7F0000007F00
7F800000FF00
7FC00001FF00
7FE00007FF00
3FF8000FFE00
3FFF007FFE00
1FFFFFFFFC00
0FFFFFFFF800
0FFFFFFFF800
07FFFFFFF000
03FFFFFFE000
01FFFFFFC000
007FFFFF0000
003FFFFE0000
000FFFF80000
0000FF800000
ENDCHAR
STARTCHAR 00F4
ENCODING 244
SWIDTH 562 0
DWIDTH 36 0
BBX 41 73 0 -11
BITMAP
00003E000000
0000FF800000
0001FFE00000
0003FFF00000
0007E1F80000
000FC0FC0000
001F807E0000
007F003F0000
007E001F8000
00FC000FC000
01F00007E000
01E00001E000
03E00001F000
03C00000F000
03C00000F000
03C00C00F000
03C01E00F000
01E03F01E000
03F0FF87F000
03FFFFFFF000
03FFFFFFF000
03FFFFFFF000
03FFFFFFF000
03FFFFFFE000
01FFFFFFE000
00FFFFFFC000
007FFFFF8000
003FFFFF0000
003FFFFE0000
007FFFFF0000
01FF007FC000
03F8000FE000
07E00007F000
0FC00001F800
0F800000F800
1F0000007C00
3E0000003E00
3C0000003E00
7C0000001F00
78003E000F00
7800FF800F00
F801FFC00F00
F003FFE00780
F003FFE00780
F007FFF00780
F007FFF00780
F007FFF00780
F007FFF00780
F007FFF00780
F003FFE00780
F003FFE00780
F801FFC00F80
F800FF800F80
F8003E000F80
FC0000001F80
FC0000003F80
FE0000003F80
7F0000007F00
7F800000FF00
7FC00001FF00
7FE00007FF00
3FF8000FFE00
3FFF007FFE00
1FFFFFFFFC00
0FFFFFFFF800
0FFFFFFFF800
07FFFFFFF000
03FFFFFFE000
01FFFFFFC000
007FFFFF0000
003FFFFE0000
000FFFF80000
0000FF800000
ENDCHAR
STARTCHAR 00F5
ENCODING 245
SWIDTH 562 0
DWIDTH 36 0
BBX 41 71 0 -11
BITMAP
0003F8000000
000FFFFC0000
003FFFFF0000
007FFFFF8000
00FE0FFFC000
01F803C7E000
01F00001E000
03E00001F000
03C00000F000
03C00000F000
03C00000F000
03C00000F000
03E00001F000
01E06003F000
03F8F807F000
03FFFE1FF000
03FFFFFFF000
03FFFFFFF000
03FFFFFFF000
01FFFFFFE000
01FFFFFFE000
00FFFFFFC000
007FFFFF8000
003FFFFF0000
000FFFFC0000
000FFFF80000
003FFFFE0000
007FFFFF0000
01FF007FC000
03F8000FE000
07E00007F000
0FC00001F800
0F800000F800
1F0000007C00
3E0000003E00
3C0000003E00
7C0000001F00
78003E000F00
7800FF800F00
F801FFC00F00
F003FFE00780
F003FFE00780
F007FFF00780
F007FFF00780
F007FFF00780
F007FFF00780
F007FFF00780
F003FFE00780
F003FFE00780
F801FFC00F80
F800FF800F80
F8003E000F80
FC0000001F80
FC0000003F80
FE0000003F80
7F0000007F00
7F800000FF00
7FC00001FF00
7FE00007FF00
3FF8000FFE00
3FFF007FFE00
1FFFFFFFFC00
0FFFFFFFF800
0FFFFFFFF800
07FFFFFFF000
03FFFFFFE000
01FFFFFFC000
007FFFFF0000
003FFFFE0000
000FFFF80000
0000FF800000
ENDCHAR
STARTCHAR 00F6
ENCODING 246
SWIDTH 562 0
DWIDTH 36 0
BBX 41 75 0 -11
BITMAP
001F80FC0000
007FE3FF0000
00FFF7FF8000
01FFFFFFC000
03F0FF07E000
03E07E03E000
07C03C01E000
07801801F000
07801800F000
07801800F000
07801800F000
07801800F000
07801800E000
07C03C01E000
07E07E03F000
07F0FF07F000
07FFFFFFF000
07FFFFFFF000
07FFFFFFF000
07FFFFFFF000
03FFFFFFE000
03FFFFFFE000
01FFFFFFC000
00FFFFFF8000
007FF7FF0000
001FC1FC0000
000000000000
000000000000
0000FF800000
000FFFF80000
003FFFFE0000
007FFFFF0000
01FF007FC000
03F8000FE000
07E00007F000
0FC00001F800
0F800000F800
1F0000007C00
3E0000003E00
3C0000003E00
7C0000001F00
78003E000F00
7800FF800F00
F801FFC00F00
F003FFE00780
F003FFE00780
F007FFF00780
F007FFF00780
F007FFF00780
F007FFF00780
F007FFF00780
F003FFE00780
F003FFE00780
F801FFC00F80
F800FF800F80
F8003E000F80
FC0000001F80
FC0000003F80
FE0000003F80
7F0000007F00
7F800000FF00
7FC00001FF00
7FE00007FF00
3FF8000FFE00
3FFF007FFE00
1FFFFFFFFC00
0FFFFFFFF800
0FFFFFFFF800
07FFFFFFF000
03FFFFFFE000
01FFFFFFC000
007FFFFF0000
003FFFFE0000
000FFFF80000
0000FF800000
ENDCHAR
STARTCHAR 00F7
ENCODING 247
SWIDTH 1109 0
DWIDTH 71 0
BBX 71 65 3 2
BITMAP
0000001F0000000000
0000007FC000000000
000000FFFFE0000000
000001FFFFFC000000
000003FFFFFF000000
000007FFFFFFC00000
00000FFFFFFFE00000
00001FFFFFFFF00000
00003FFFFFFFF80000
00003FFFFFFFFC0000
00007FFFFFFFFE0000
00007FFFFFFFFF0000
0000FFFFFFFFFF8000
0000FFFF03FFFF8000
0001FFFC00FFFFC000
0001FFF8007FFFE000
0001FFF0003FFFE000
0003FFE0001FFFF000
0003FFE0000FFFF000
0007FFC00007FFF800
000FFFC00003FFF800
001FFFC00001FFF800
003FFF800000FFFC00
007FFF8000007FFC00
01FFFF8000007FFE00
0FFFFF8000003FFE00
FFFFFF8000001FFE00
FFFFFF8000001FFE00
7FFFFF8000000FFE00
3FFFFFFC003F8FFE00
1FFFFF0F00F06FFE00
01FFFF00000007FE00
00FFFE00000007FE00
01FFFE00000007FE04
03FFFC00000007FC0C
07FFFDFE007F87FE1E
0FFFF99F81F987FFFE
3FFFF01E807807FFFE
FFFFC00C003007FFFE
7FFF8000000007FFFE
7FFFC000000007FFFC
7FFFC000000007FFFC
3FFFC000000007FFF8
1FFFC000000007FFF0
03FFE000000007FFF0
07FFE00000000FFFF0
3FFFE00000000FFFF0
FFFFF0007C000FFFF0
7FFFF000FF001FFFC0
3FFFF801FF803FFF00
1FFFFC03FF807FFF00
0FFFFE0000007FFF00
0FFFFF030180FFFF00
07FFFF01FF81FFFE00
07FFFF81FF03FFFC00
03FFFFC0FE07FFF000
01FFFFE03C0FFFC000
00FFFFF0001FFFC000
003FF0F8003FFFC000
0000007E0079FF8000
0000003F81F03E0000
0000001FFFE0000000
00000007FF80000000
00000001FF00000000
000000007C00000000
ENDCHAR
STARTCHAR 00F8
ENCODING 248
SWIDTH 796 0
DWIDTH 51 0
BBX 54 60 0 -11
BITMAP
000003FF000000
00003FFFF00000
0001FFFFFE0000
0007FFFFFF8000
000FFC00FFC000
003FE0001FF000
007F000003F800
00FE000001FC00
01F80000007E00
03F00000003F00
07E00000001F80
07C00000000F80
0F8000000007C0
1F0001FE0003E0
1F000FFFC003E0
3E001FFFE001F0
3C003FFFF800F0
3C007FFFFC00F0
7800FFFFFE00F8
7801FFFFFE0078
7803FFFFFF0078
F803FFFFFF007C
F003FFFFFF803C
F007FE03FF803C
F007F800FF803C
F007F0003F803C
F007E0001F803C
F007C0000F803C
F007C0000F803C
F007800007803C
F007800007803C
F003C0000F803C
F803C0000F007C
F803E0001F007C
F801F0003E007C
F800F800FE00FC
FC007E03FC00FC
FC003FFFF800FC
FE001FFFE001FC
7E0007FFC003F8
7F0001FE0003F8
7F8000000007F8
3FC00000000FF0
3FE00000001FF0
3FF00000003FF0
1FF80000007FE0
1FFC000001FFE0
0FFF000003FFC0
07FFC0000FFF80
07FFFC00FFFF80
03FFFFFFFFFF00
01FFFFFFFFFE00
00FFFFFFFFFC00
007FFFFFFFF800
003FFFFFFFF000
000FFFFFFFC000
0007FFFFFF8000
0001FFFFFE0000
00003FFFF00000
000007FF800000
ENDCHAR
STARTCHAR 00F9
ENCODING 249
SWIDTH 484 0
DWIDTH 31 0
BBX 36 75 0 -11
BITMAP
000FE00000
003FF80000
007FFC0000
00FFFE0000
01F83E0000
01F01F0000
03E00F8000
03C0078000
03C0078000
03C007C000
03C003C000
03C003E000
03E001E000
03E001E000
03E001F000
03F000F000
03F000F000
03F800F000
03F800F000
01F800F000
01FC01E000
01FE03F000
00FF07F000
00FFFFF000
007FFFF000
007FFFF000
007FFFF000
003FFFE000
07FFFFFC00
1FFFFFFF00
3FFFFFFFC0
7FFFFFFFE0
7C1FFF83E0
F80F1F01F0
F0079E00F0
F0079E00F0
F0079E00F0
F0079E00F0
F0079E00F0
F0079E00F0
F0079E00F0
F0079E00F0
F0079E00F0
F0079E00F0
F0079E00F0
F0079E00F0
F0079E00F0
F0079E00F0
F0079E00F0
F0079E00F0
F0079E00F0
F0079E00F0
F007FE00F0
F003FC00F0
F003FC00F0
F800F001F0
F8000001F0
F8000001F0
FC000003F0
FE000007F0
FF00000FF0
FF80001FF0
7FC0003FE0
7FE0007FE0
7FFC03FFC0
3FFFFFFFC0
3FFFFFFF80
1FFFFFFF80
0FFFFFFF00
07FFFFFE00
03FFFFFC00
01FFFFF800
007FFFE000
003FFF8000
0003FC0000
ENDCHAR
STARTCHAR 00FA
ENCODING 250
SWIDTH 484 0
DWIDTH 31 0
BBX 36 78 0 -11
BITMAP
00007F0000
0001FFC000
0003FFE000
0007FFF000
000FC1F800
000F80F800
001F007C00
001F003C00
001E003C00
003E003C00
003C003C00
007C003C00
0078007800
0078007C00
00F800FC00
00F000FC00
00F000FC00
00F001FC00
00F001FC00
00F003F800
00F803F800
00FC07F800
00FE0FF000
00FFFFF000
00FFFFE000
00FFFFE000
00FFFFE000
007FFFC000
007FFF8000
003FFF8000
001FFF0000
07EFFE7C00
1FFBF9FF00
3FFE07FFC0
7FFE0FFFE0
7C1F0F83E0
F80F1F01F0
F0079E00F0
F0079E00F0
F0079E00F0
F0079E00F0
F0079E00F0
F0079E00F0
F0079E00F0
F0079E00F0
F0079E00F0
F0079E00F0
F0079E00F0
F0079E00F0
F0079E00F0
F0079E00F0
F0079E00F0
F0079E00F0
F0079E00F0
F0079E00F0
F007FE00F0
F003FC00F0
F003FC00F0
F800F001F0
F8000001F0
F8000001F0
FC000003F0
FE000007F0
FF00000FF0
FF80001FF0
7FC0003FE0
7FE0007FE0
7FFC03FFC0
3FFFFFFFC0
3FFFFFFF80
1FFFFFFF80
0FFFFFFF00
07FFFFFE00
03FFFFFC00
01FFFFF800
007FFFE000
003FFF8000
0003FC0000
ENDCHAR
STARTCHAR 00FB
ENCODING 251
SWIDTH 484 0
DWIDTH 31 0
BBX 36 73 0 -11
BITMAP
0000F80000
0003FE0000
0007FF8000
000FFFC000
001F87E000
003F03F000
007E01F800
01FC00FC00
01F8007E00
03F0003F00
07C0001F80
0780000780
0F800007C0
0F000003C0
0F000003C0
0F003003C0
0F007803C0
0780FC0780
0FC3FE1FC0
0FFFFFFFC0
0FFFFFFFC0
0FFFFFFFC0
0FFFFFFFC0
0FFFFFFF80
07FFFFFF80
03FFFFFF00
07FFFFFE00
1FFFCFFF00
3FFF07FFC0
7FFE0FFFE0
7C1F0F83E0
F80F1F01F0
F0079E00F0
F0079E00F0
F0079E00F0
F0079E00F0
F0079E00F0
F0079E00F0
F0079E00F0
F0079E00F0
F0079E00F0
F0079E00F0
F0079E00F0
F0079E00F0
F0079E00F0
F0079E00F0
F0079E00F0
F0079E00F0
F0079E00F0
F0079E00F0
F007FE00F0
F003FC00F0
F003FC00F0
F800F001F0
F8000001F0
F8000001F0
FC000003F0
FE000007F0
FF00000FF0
FF80001FF0
7FC0003FE0
7FE0007FE0
7FFC03FFC0
3FFFFFFFC0
3FFFFFFF80
1FFFFFFF80
0FFFFFFF00
07FFFFFE00
03FFFFFC00
01FFFFF800
007FFFE000
003FFF8000
0003FC0000
ENDCHAR
STARTCHAR 00FC
ENCODING 252
SWIDTH 484 0
DWIDTH 31 0
BBX 36 75 0 -11
BITMAP
007E03F000
01FF8FFC00
03FFDFFE00
07FFFFFF00
0FC3FC1F80
0F81F80F80
1F00F00780
1E006007C0
1E006003C0
1E006003C0
1E006003C0
1E006003C0
1E00600380
1F00F00780
1F81F80FC0
1FC3FC1FC0
1FFFFFFFC0
1FFFFFFFC0
1FFFFFFFC0
1FFFFFFFC0
0FFFFFFF80
0FFFFFFF80
07FFFFFF00
03FFFFFE00
01FFDFFC00
007F07F000
0000000000
0000000000
07E0007C00
1FF801FF00
3FFE07FFC0
7FFE0FFFE0
7C1F0F83E0
F80F1F01F0
F0079E00F0
F0079E00F0
F0079E00F0
F0079E00F0
F0079E00F0
F0079E00F0
F0079E00F0
F0079E00F0
F0079E00F0
F0079E00F0
F0079E00F0
F0079E00F0
F0079E00F0
F0079E00F0
F0079E00F0
F0079E00F0
F0079E00F0
F0079E00F0
F007FE00F0
F003FC00F0
F003FC00F0
F800F001F0
F8000001F0
F8000001F0
FC000003F0
FE000007F0
FF00000FF0
FF80001FF0
7FC0003FE0
7FE0007FE0
7FFC03FFC0
3FFFFFFFC0
3FFFFFFF80
1FFFFFFF80
0FFFFFFF00
07FFFFFE00
03FFFFFC00
01FFFFF800
007FFFE000
003FFF8000
0003FC0000
ENDCHAR
STARTCHAR 00FE
ENCODING 254
SWIDTH 1109 0
DWIDTH 71 0
BBX 71 65 3 2
BITMAP
0000001F0000000000
0000007FC000000000
000000FFFFE0000000
000001FFFFFC000000
000003FFFFFF000000
000007FFFFFFC00000
00000FFFFFFFE00000
00001FFFFFFFF00000
00003FFFFFFFF80000
00003FFFFFFFFC0000
00007FFFFFFFFE0000
00007FFFFFFFFF0000
0000FFFFFFFFFF8000
0000FFFF03FFFF8000
0001FFFC00FFFFC000
0001FFF8007FFFE000
0001FFF0003FFFE000
0003FFE0001FFFF000
0003FFE0000FFFF000
0007FFC00007FFF800
000FFFC00003FFF800
001FFFC00001FFF800
003FFF800000FFFC00
007FFF8000007FFC00
01FFFF8000007FFE00
0FFFFF8000003FFE00
FFFFFF8000001FFE00
FFFFFF8000001FFE00
7FFFFF8000000FFE00
3FFFFFFC003F8FFE00
1FFFFF0F00F06FFE00
01FFFF00000007FE00
00FFFE00000007FE00
01FFFE00000007FE04
03FFFC00000007FC0C
07FFFDFE007F87FE1E
0FFFF99F81F987FFFE
3FFFF01E807807FFFE
FFFFC00C003007FFFE
7FFF8000000007FFFE
7FFFC000000007FFFC
7FFFC000000007FFFC
3FFFC000000007FFF8
1FFFC000000007FFF0
03FFE000000007FFF0
07FFE00000000FFFF0
3FFFE00000000FFFF0
FFFFF0007C000FFFF0
7FFFF000FF001FFFC0
3FFFF801FF803FFF00
1FFFFC03FF807FFF00
0FFFFE0000007FFF00
0FFFFF030180FFFF00
07FFFF01FF81FFFE00
07FFFF81FF03FFFC00
03FFFFC0FE07FFF000
01FFFFE03C0FFFC000
00FFFFF0001FFFC000
003FF0F8003FFFC000
0000007E0079FF8000
0000003F81F03E0000
0000001FFFE0000000
00000007FF80000000
00000001FF00000000
000000007C00000000
ENDCHAR
STARTCHAR 00FF
ENCODING 255
SWIDTH 546 0
DWIDTH 35 0
BBX 36 89 0 -25
BITMAP
007E03F000
01FF8FFC00
03FFDFFE00
07FFFFFF00
0FC3FC1F80
0F81F80F80
1F00F00780
1E006007C0
1E006003C0
1E006003C0
1E006003C0
1E006003C0
1E00600380
1F00F00780
1F81F80FC0
1FC3FC1FC0
1FFFFFFFC0
1FFFFFFFC0
1FFFFFFFC0
1FFFFFFFC0
0FFFFFFF80
0FFFFFFF80
07FFFFFF00
03FFFFFE00
01FFDFFC00
007F07F000
0000000000
0000000000
07F0007C00
1FFC01FF00
3FFE07FFC0
7FFF0FFFE0
7C1F0F83E0
F80F9F01F0
F0079E00F0
F0079E00F0
F0079E00F0
F0079E00F0
F0079E00F0
F0079E00F0
F0079E00F0
F0079E00F0
F0079E00F0
F0079E00F0
F0079E00F0
F0079E00F0
F0079E00F0
F0079E00F0
F0079E00F0
F0079E00F0
F0079E00F0
F0079E00F0
F007FE00F0
F003FC00F0
F003FC00F0
F800F000F0
F8000000F0
F8000000F0
FC000000F0
FE000000F0
FE000000F0
FF000000F0
7FC00000F0
7FE00000F0
7FFC0600F0
3FFFFE00F0
3FFFFE00F0
1FFFFC00F0
0FFFF800F0
07FFF001F0
03FE0001F0
01FC0003F0
00F80003F0
00780007F0
0078000FF0
0078001FE0
0078003FE0
003C00FFE0
007E03FFC0
007FFFFFC0
007FFFFF80
007FFFFF80
007FFFFF00
007FFFFE00
003FFFFC00
003FFFF800
001FFFE000
0007FF8000
0001FC0000
ENDCHAR
STARTCHAR 0131
ENCODING 305
SWIDTH 187 0
DWIDTH 12 0
BBX 17 47 -1 -11
BITMAP
03F000
0FFC00
1FFE00
3FFF00
7E1F80
780F80
F80780
F00780
F00780
F00780
F00780
F00780
F00780
F00780
F00780
F00780
F00780
F00780
F00780
F00780
F00780
F00780
F00780
F00780
F00780
F00780
F00780
F00780
F00780
F00780
F00780
F00780
F00780
F00780
F80780
F80F80
FE1F80
FFFF80
FFFF80
FFFF80
FFFF80
7FFF80
7FFF00
3FFF00
1FFE00
0FFC00
03F000
ENDCHAR
STARTCHAR 0141
ENCODING 321
SWIDTH 1109 0
DWIDTH 71 0
BBX 71 65 3 2
BITMAP
0000001F0000000000
0000007FC000000000
000000FFFFE0000000
000001FFFFFC000000
000003FFFFFF000000
000007FFFFFFC00000
00000FFFFFFFE00000
00001FFFFFFFF00000
00003FFFFFFFF80000
00003FFFFFFFFC0000
00007FFFFFFFFE0000
00007FFFFFFFFF0000
0000FFFFFFFFFF8000
0000FFFF03FFFF8000
0001FFFC00FFFFC000
0001FFF8007FFFE000
0001FFF0003FFFE000
0003FFE0001FFFF000
0003FFE0000FFFF000
0007FFC00007FFF800
000FFFC00003FFF800
001FFFC00001FFF800
003FFF800000FFFC00
007FFF8000007FFC00
01FFFF8000007FFE00
0FFFFF8000003FFE00
FFFFFF8000001FFE00
FFFFFF8000001FFE00
7FFFFF8000000FFE00
3FFFFFFC003F8FFE00
1FFFFF0F00F06FFE00
01FFFF00000007FE00
00FFFE00000007FE00
01FFFE00000007FE04
03FFFC00000007FC0C
07FFFDFE007F87FE1E
0FFFF99F81F987FFFE
3FFFF01E807807FFFE
FFFFC00C003007FFFE
7FFF8000000007FFFE
7FFFC000000007FFFC
7FFFC000000007FFFC
3FFFC000000007FFF8
1FFFC000000007FFF0
03FFE000000007FFF0
07FFE00000000FFFF0
3FFFE00000000FFFF0
FFFFF0007C000FFFF0
7FFFF000FF001FFFC0
3FFFF801FF803FFF00
1FFFFC03FF807FFF00
0FFFFE0000007FFF00
0FFFFF030180FFFF00
07FFFF01FF81FFFE00
07FFFF81FF03FFFC00
03FFFFC0FE07FFF000
01FFFFE03C0FFFC000
00FFFFF0001FFFC000
003FF0F8003FFFC000
0000007E0079FF8000
0000003F81F03E0000
0000001FFFE0000000
00000007FF80000000
00000001FF00000000
000000007C00000000
ENDCHAR
STARTCHAR 0142
ENCODING 322
SWIDTH 1109 0
DWIDTH 71 0
BBX 71 65 3 2
BITMAP
0000001F0000000000
0000007FC000000000
000000FFFFE0000000
000001FFFFFC000000
000003FFFFFF000000
000007FFFFFFC00000
00000FFFFFFFE00000
00001FFFFFFFF00000
00003FFFFFFFF80000
00003FFFFFFFFC0000
00007FFFFFFFFE0000
00007FFFFFFFFF0000
0000FFFFFFFFFF8000
0000FFFF03FFFF8000
0001FFFC00FFFFC000
0001FFF8007FFFE000
0001FFF0003FFFE000
0003FFE0001FFFF000
0003FFE0000FFFF000
0007FFC00007FFF800
000FFFC00003FFF800
001FFFC00001FFF800
003FFF800000FFFC00
007FFF8000007FFC00
01FFFF8000007FFE00
0FFFFF8000003FFE00
FFFFFF8000001FFE00
FFFFFF8000001FFE00
7FFFFF8000000FFE00
3FFFFFFC003F8FFE00
1FFFFF0F00F06FFE00
01FFFF00000007FE00
00FFFE00000007FE00
01FFFE00000007FE04
03FFFC00000007FC0C
07FFFDFE007F87FE1E
0FFFF99F81F987FFFE
3FFFF01E807807FFFE
FFFFC00C003007FFFE
7FFF8000000007FFFE
7FFFC000000007FFFC
7FFFC000000007FFFC
3FFFC000000007FFF8
1FFFC000000007FFF0
03FFE000000007FFF0
07FFE00000000FFFF0
3FFFE00000000FFFF0
FFFFF0007C000FFFF0
7FFFF000FF001FFFC0
3FFFF801FF803FFF00
1FFFFC03FF807FFF00
0FFFFE0000007FFF00
0FFFFF030180FFFF00
07FFFF01FF81FFFE00
07FFFF81FF03FFFC00
03FFFFC0FE07FFF000
01FFFFE03C0FFFC000
00FFFFF0001FFFC000
003FF0F8003FFFC000
0000007E0079FF8000
0000003F81F03E0000
0000001FFFE0000000
00000007FF80000000
00000001FF00000000
000000007C00000000
ENDCHAR
STARTCHAR 0152
ENCODING 338
SWIDTH 1062 0
DWIDTH 68 0
BBX 73 60 -1 -11
BITMAP
000003FF8000001FF000
00003FFFF80001FFFC00
0000FFFFFE0007FFFE00
0003FFFFFF801FFFFF00
000FFC00FFE07FF01F00
001FE0000FF0FF800F80
003F800003F9FC000780
00FE000000FFF8000780
01F80000007FE0000780
01F00000001FC0000780
03E00000000F80000780
07C00000000700000F80
0F800000000600001F80
0F8001FE00000007FF80
1F0007FFC000003FFF80
1E001FFFF000007FFF80
3E003FFFF80001FFFF80
3C007FFFFC0003FFFF80
7C00FFFFFE0007FFFF00
7801FFFFFF0007FFFF00
7801FFFFFF000FFFFE00
7803FFFFFF800FFFFF00
7803FFFFFF801FFFFF00
F803FF03FF8000001F80
F007FC007F8000000F80
F007F0003FC000000780
F007E0001FC000000780
F007C0000FC000000780
F007C0000FC000000780
F0078000078000000F80
F8038000078000001F80
F803C0000F801FFFFF80
F803C0000F801FFFFF80
F801E0001F000FFFFF80
F801F0003F000FFFFF80
FC00FC007E0007FFFF80
FC007F01FC0003FFFF80
7E003FFFF80001FFFF00
7E001FFFF00000FFFE00
7F0007FFC000003FFE00
7F0001FE0002000FFF00
7F800000000600003F00
3FC00000000F00000F80
3FE00000001F80000780
1FF00000003FC0000780
1FF80000007FE0000780
0FFE000001FFF8000780
0FFF800003FFFE000780
07FFE0001FFFFF800F80
03FFFC00FFFFFFF01F80
01FFFFFFFFFFFFFFFF80
01FFFFFFFFFFFFFFFF80
00FFFFFFFFFFFFFFFF80
007FFFFFFFFDFFFFFF80
001FFFFFFFF0FFFFFF80
000FFFFFFFE07FFFFF00
0003FFFFFF801FFFFF00
0000FFFFFE0007FFFE00
00003FFFF80001FFFC00
000003FF8000001FF000
ENDCHAR
STARTCHAR 0153
ENCODING 339
SWIDTH 890 0
DWIDTH 57 0
BBX 62 47 -1 -11
BITMAP
0000FF8000FF8000
0007FFF807FFF800
001FFFFE1FFFFE00
007FFFFF3FFFFF80
00FF807FFF807FC0
01FC001FFC000FE0
03F00007F80003F0
07C00003E00001F8
0F800000C000007C
1F0000008000003C
1E0000000000003C
3E0000000000003C
3C0000000000003C
7C003E00003C003C
7800FF8000F8007C
7801FFC003F000FC
7803FFE003E001FC
F803FFF0078003FC
F003FFF0078007FC
F007FFF00F001FFC
F007FFF00F003FFC
F007FFF00F807FFC
F003FFF00780FFF8
F803FFF007E1FFF0
F803FFE003FFFFE0
F801FFC003FFFFC0
F800FF8000FFFF80
FC003F00003FFFC0
FC000000000007C0
FE000000000003E0
7E000000000001E0
7F000000000001E0
7F800000C00001E0
7FC00003E00001E0
3FF00007F80001E0
3FFC001FFC0003E0
1FFF007FFF8007E0
1FFFFFFFFFFFFFE0
0FFFFFFFFFFFFFE0
07FFFFFFFFFFFFE0
03FFFFFFFFFFFFE0
01FFFFFFFFFFFFE0
00FFFFFFFFFFFFC0
007FFFFF3FFFFFC0
001FFFFE1FFFFF80
0007FFF807FFFF00
0000FF8000FFFC00
ENDCHAR
STARTCHAR 0160
ENCODING 352
SWIDTH 437 0
DWIDTH 28 0
BBX 33 78 0 -11
BITMAP
00FC0FC000
03FF3FF000
07FFFFF800
0FFFFFFC00
1F87F87E00
1E03F01E00
3E01E00F00
3C00C00F00
3C00000F00
3C00000F00
3E00001F00
1E00001E00
3F00003F00
3F8000FF00
3FC001FF00
3FF003FF00
3FF807FF00
1FFC0FFE00
1FFE1FFE00
0FFFFFFC00
07FFFFFE00
03FFFFFF00
01FFFFFF00
00FFFFCF80
007FFF8780
003FFF0780
003FFE0780
007FF80780
007BE00780
0078000F80
00F8003F80
00F003FF80
00F007FF80
00F007FF80
00F007FF80
00F007FF80
00F007FF00
00F007FF00
00F007FE00
00F007FC00
00F007F000
00F0078000
00F0078000
00F0078000
00F0078000
00F0078000
00F0078000
00F0078000
00F0078000
00F0078000
00F0078000
00F0078000
00F0078000
00F0078000
00F0078000
07F0078000
1FF0078000
3FE0078000
7FE0078000
7E000F8000
F8000F8000
F0001F8000
F0001F8000
F0003F8000
F0007F8000
F000FF8000
7803FF0000
FC0FFF0000
FFFFFE0000
FFFFFE0000
FFFFFC0000
FFFFFC0000
FFFFF80000
7FFFF00000
7FFFE00000
3FFF800000
1FFE000000
07F8000000
ENDCHAR
STARTCHAR 0161
ENCODING 353
SWIDTH 453 0
DWIDTH 29 0
BBX 33 65 0 -11
BITMAP
00FC0FC000
03FF3FF000
07FFFFF800
0FFFFFFC00
1F87F87E00
1E03F01E00
3E01E00F00
3C00C00F00
3C00000F00
3C00000F00
3E00001F00
1E00001E00
3F00003F00
3F8000FF00
3FC001FF00
3FF003FF00
3FF807FF00
1FFC0FFE00
1FFE1FFE00
0FFFFFFC00
07FFFFFE00
03FFFFFF00
01FFFFFF00
00FFFFCF80
007FFF8780
003FFF0780
003FFE0780
007FF80780
007FE00780
0078000F80
00F8003F80
00F001FF80
00F003FF80
00F007FF80
00F007FF80
00F007FF80
00F007FF00
00F007FF00
00F007FE00
00F007FC00
00F007F000
00F0078000
07F0078000
1FF0078000
3FE0078000
7FC0078000
7E000F8000
F8000F8000
F0001F8000
F0001F8000
F0003F8000
F0007F8000
F000FF8000
7803FF0000
FC0FFF0000
FFFFFF0000
FFFFFE0000
FFFFFC0000
FFFFFC0000
FFFFF80000
7FFFF00000
7FFFE00000
3FFF800000
1FFF000000
07F8000000
ENDCHAR
STARTCHAR 0178
ENCODING 376
SWIDTH 531 0
DWIDTH 34 0
BBX 36 88 0 -11
BITMAP
007E03F000
01FF8FFC00
03FFDFFE00
07FFFFFF00
0FC3FC1F80
0F81F80F80
1F00F00780
1E006007C0
1E006003C0
1E006003C0
1E006003C0
1E006003C0
1E00600380
1F00F00780
1F81F80FC0
1FC3FC1FC0
1FFFFFFFC0
1FFFFFFFC0
1FFFFFFFC0
1FFFFFFFC0
0FFFFFFF80
0FFFFFFF80
07FFFFFF00
03FFFFFE00
01FFDFFC00
007F07F000
0000000000
0000000000
07E0007C00
1FF801FF00
3FFE07FFC0
7FFE07FFE0
7C1F0F83E0
F80F9F01F0
F0079E00F0
F0079E00F0
F0079E00F0
F0079E00F0
F0079E00F0
F0079E00F0
F0079E00F0
F0079E00F0
F0079E00F0
F0079E00F0
F0079E00F0
F0079E00F0
F007FE00F0
F003FC00F0
F003FC00F0
F800F000F0
F8000000F0
F8000000F0
FC000000F0
FE000000F0
FE000000F0
FF000000F0
7FC00000F0
7FE00000F0
7FFC0600F0
7C1FFE00F0
F80FFE00F0
F007FE00F0
F007FE00F0
F007FE00F0
F007FE00F0
F007FE00F0
F003FC00F0
F003FC00F0
F800F001F0
F8000001F0
F8000001F0
FC000003F0
FE000007F0
FF00000FF0
FF80001FF0
7FC0003FE0
7FE0007FE0
7FFC03FFE0
3FFFFFFFC0
3FFFFFFF80
1FFFFFFF80
0FFFFFFF00
07FFFFFE00
03FFFFFC00
01FFFFF800
007FFFE000
003FFFC000
0003FC0000
ENDCHAR
STARTCHAR 017D
ENCODING 381
SWIDTH 484 0
DWIDTH 31 0
BBX 39 78 -1 -11
BITMAP
003F03F000
00FFCFFC00
01FFFFFE00
03FFFFFF00
07E1FE1F80
0780FC0780
0F807803C0
0F003003C0
0F000003C0
0F000003C0
0F800007C0
0780000780
0FC0000FC0
0FE0003FC0
0FF0007FC0
0FFC00FFC0
0FFE01FFC0
07FF03FF80
07FFFFFFC0
03FFFFFFF0
03FFFFFFF8
07FFFFFFFC
07FFFFF87C
0FBFFFF03E
0F1FFFE01E
0F0FFFC01E
0F07FF801E
0F03FE001E
0F80F8001E
0F8000003E
0FF000007E
0FFFFC007E
0FFFFC00FE
0FFFF800FE
0FFFF001FE
0FFFF003FC
07FFE003FC
07FFE007FC
03FFC007F8
01FF800FF0
007F800FF0
000F001FE0
001F003FE0
003E003FC0
003E007F80
007C007F80
007800FF00
00F800FF00
00F001FE00
01F003FE00
03E003FC00
03C007F800
07C007F800
07800FF000
0F801FF000
1F001FFFC0
1E003FFFF0
3E003FFFF8
3C007FFFFC
7C0000007C
780000003E
F80000001E
F00000001E
F00000001E
F00000001E
F00000001E
F80000003E
FC0000007E
FFFFFFFFFE
FFFFFFFFFE
FFFFFFFFFE
FFFFFFFFFE
FFFFFFFFFE
7FFFFFFFFC
7FFFFFFFFC
3FFFFFFFF8
1FFFFFFFF0
07FFFFFFC0
ENDCHAR
STARTCHAR 017E
ENCODING 382
SWIDTH 437 0
DWIDTH 28 0
BBX 38 65 0 -11
BITMAP
00FC0FC000
03FF3FF000
07FFFFF800
0FFFFFFC00
1F87F87E00
1E03F01E00
3E01E00F00
3C00C00F00
3C00000F00
3C00000F00
3E00001F00
1E00001E00
3F00003F00
3F8000FF00
3FC001FF00
3FF003FF00
3FF807FF00
1FFC0FFE00
1FFFFFFF80
0FFFFFFFE0
07FFFFFFF0
0FFFFFFFF8
0FFFFFE0FC
1FFFFFC03C
1E7FFF803C
1E3FFF003C
1E1FFE003C
1E0FF80078
1E03E00078
1F000000FC
1F800000FC
1FFFE001FC
1FFFC003FC
1FFF8007FC
1FFF000FF8
1FFF000FF8
0FFE001FF0
0FFC003FF0
07F8007FE0
03F000FFC0
07E001FFC0
07C003FF80
0F8007FF00
1F800FFF00
1F001FFF80
3E003FFFC0
7C000007C0
7C000003E0
78000001E0
F8000001E0
F0000001E0
F0000001E0
F0000001E0
F0000003E0
7C000007E0
FFFFFFFFE0
FFFFFFFFE0
FFFFFFFFE0
FFFFFFFFE0
FFFFFFFFE0
FFFFFFFFC0
7FFFFFFFC0
3FFFFFFF80
1FFFFFFF00
07FFFFFC00
ENDCHAR
STARTCHAR 0192
ENCODING 402
SWIDTH 484 0
DWIDTH 31 0
BBX 38 74 -4 -25
BITMAP
000000FF80
000007FFE0
00001FFFF0
00007FFFF8
0000FF00F8
0001FC007C
0003F0003C
0007E0003C
0007C0003C
000F80003C
000F00003C
001E000078
001E0000FC
003E003FFC
003C007FFC
003C00FFFC
003C01FFFC
003C01FFFC
003C01FFF8
003C01FFF0
003C01FFF0
003C01FFC0
003C01FF00
003C01E000
003C01E000
003C01F800
00FC01FE00
01FC01FF00
03FC01FF00
03E0000F80
07C00007C0
07800003C0
07800003C0
07800003C0
07800003C0
07800007C0
07C0000780
07F0003FC0
07FC01FFC0
07FC01FFC0
07FC01FFC0
07FC01FFC0
07FC01FFC0
03FC01FF80
03FC01FF80
01FC01FF00
00FC01FE00
003C01F800
003C01E000
003C01E000
07FC01E000
1FF801E000
3FF801E000
7FE001E000
7C0003E000
F80003E000
F00007E000
F00007E000
F0000FE000
F0001FE000
F0003FC000
F0007FC000
F800FFC000
FC07FF8000
FFFFFF8000
FFFFFF0000
FFFFFF0000
FFFFFE0000
7FFFFC0000
7FFFF80000
3FFFF00000
3FFFC00000
1FFF800000
07FC000000
ENDCHAR
STARTCHAR 02C6
ENCODING 710
SWIDTH 390 0
DWIDTH 25 0
BBX 30 29 -1 35
BITMAP
0007C000
001FF000
007FF800
00FFFE00
01FC7F00
03F01F80
07E00FC0
0FC007E0
1F8003F0
3F0001F8
3E0000F8
7C00007C
7800003C
F800003C
F000003C
7803803C
7807C03C
7C0FE078
7E1FF0FC
7FFFFFFC
FFFFFFFC
FFFFFFFC
7FFFFFFC
7FFFFFFC
7FFFFFF8
3FFFFFF8
1FFFFFF0
0FFC7FE0
03F01F80
ENDCHAR
STARTCHAR 02C7
ENCODING 711
SWIDTH 390 0
DWIDTH 25 0
BBX 30 29 -1 35
BITMAP
03F01F80
0FFC7FE0
1FFFFFF0
3FFFFFF8
7E1FF0F8
7C0FC07C
7807803C
F801003C
F000003C
F800003C
7800003C
7C000078
7E0000FC
FF0001FC
FF8003FC
FFC007FC
7FE00FFC
7FF01FFC
7FFC7FF8
3FFFFFF8
1FFFFFF0
0FFFFFE0
07FFFFC0
03FFFF80
01FFFF00
00FFFE00
007FF800
001FF000
0007C000
ENDCHAR
STARTCHAR 02C9
ENCODING 713
SWIDTH 578 0
DWIDTH 37 0
BBX 31 23 4 35
BITMAP
07FFFF80
1FFFFFE0
3FFFFFF0
7FFFFFF8
7C00007C
F800003C
F000003E
F000001E
F000001E
F000001E
F000003E
F800003E
FC00007E
FFFFFFFE
FFFFFFFE
FFFFFFFE
FFFFFFFE
FFFFFFFC
7FFFFFFC
7FFFFFF8
3FFFFFF0
1FFFFFE0
07FFFF80
ENDCHAR
STARTCHAR 02D8
ENCODING 728
SWIDTH 437 0
DWIDTH 28 0
BBX 27 28 2 35
BITMAP
07E0F800
1FFBFE00
3FFFFF80
7FFFFF80
7C3F87C0
F80F03C0
F00E01E0
F00601E0
F00601E0
F00601E0
F00001E0
F00003E0
F80003E0
F80007E0
FC0007E0
FE000FE0
FF003FE0
FFC0FFE0
FFFFFFC0
7FFFFFC0
7FFFFFC0
3FFFFF80
3FFFFF00
1FFFFE00
0FFFFC00
07FFF800
01FFF000
003F8000
ENDCHAR
STARTCHAR 02D9
ENCODING 729
SWIDTH 437 0
DWIDTH 28 0
BBX 19 25 6 35
BITMAP
03F800
0FFE00
1FFF00
3FFF80
7E0FC0
7C07C0
F803E0
F001E0
F001E0
F001E0
F001E0
F001E0
F803C0
FC07E0
FE0FE0
FFFFE0
FFFFE0
FFFFE0
FFFFE0
7FFFC0
7FFFC0
3FFF80
1FFF00
0FFE00
03F800
ENDCHAR
STARTCHAR 02DA
ENCODING 730
SWIDTH 265 0
DWIDTH 17 0
BBX 22 28 -1 35
BITMAP
00FE00
03FF80
0FFFC0
1FFFE0
3F83F0
3E00F8
7C0078
78007C
78003C
F0383C
F0783C
F0783C
F0383C
F8003C
F8007C
FC007C
FE00FC
FF83FC
FFFFFC
7FFFFC
7FFFFC
7FFFF8
3FFFF8
3FFFF0
1FFFE0
0FFFC0
03FF80
00FE00
ENDCHAR
STARTCHAR 02DB
ENCODING 731
SWIDTH 500 0
DWIDTH 32 0
BBX 21 22 10 -22
BITMAP
FFC000
FFC000
FFC000
FFC000
FFC000
FFC000
FFC000
FFC000
FFC000
7FC000
7FC000
7FE000
7FF000
7FFFE0
3FFFF0
3FFFF8
1FFFF8
0FFFF8
07FFF8
03FFF8
00FFF8
003FE0
ENDCHAR
STARTCHAR 02DC
ENCODING 732
SWIDTH 390 0
DWIDTH 25 0
BBX 30 25 -1 34
BITMAP
00FE1F00
03FFFFC0
0FFFFFE0
1FFFFFF0
3F83F1F8
7E006078
7C00007C
F800003C
F000003C
F000003C
F000003C
F000007C
F80000FC
F81C01FC
FE3F87FC
FFFFFFFC
FFFFFFFC
FFFFFFFC
FFFFFFF8
7FFFFFF8
7FFFFFF0
3FFFFFE0
1FFFFFC0
0FFFFF00
03E1FC00
ENDCHAR
STARTCHAR 02DD
ENCODING 733
SWIDTH 937 0
DWIDTH 60 0
BBX 57 51 3 1
BITMAP
3FFFFFFFFFFFFE00
7FFFFFFFFFFFFF00
7F7FFFFFDFFFFF00
FE3FFFFF8FFFFF80
FE3FFFFF8FFFFF80
FF7FFFFFFFFFFF80
FFFEFFBDFFBF7F80
FE301E108E1C0F80
FE301C208C180780
FE231C6388F1C780
FE263CE389F1E380
FE247CE389F3E380
FE26FCE788F1E380
FE21F8C78870E380
FE3020878C182380
FE38218F9E1C2380
FE3FFFFFFFFFFF80
FE7FFFFFFFFFFF80
F07FFFFFFFFFFF80
F0FFF18FFFFFFF80
FFFFE18FFFFFFF80
FFFFE18FFFFFFF80
FFFFE18FFFFFFF80
FFFFE18FFFFFFF80
FF87E18E7FF8FF80
FE01E18C1FE01F80
FC00E18C0FC00F80
F800618C07800780
F878618F83070780
F0FC218FC30F8780
F0FC218FE30FC380
F0FC218FE31FC380
F0FC218FC30FC380
F07C2187C30FC380
F81C21800381C380
FC0421C00780C380
FE0421E00FC04380
FF0631F83FF0C780
FFFFFFFFFFFFFF80
FFFFFFFFFFFFFF80
FFFFFFFFFFFFFF80
F3FDFFFFFF23F380
F3FDFFFFF741F380
FF3D39C6D0C97380
F33D1082D14E5380
F37DD5BAD7425380
F27D97BAD54E5380
F47C308A114F1380
7FFFFFFFFFFFFF00
7FFFFFFFFFFFFF00
3FFFFFFFFFFFFE00
ENDCHAR
STARTCHAR 0394
ENCODING 916
SWIDTH 1109 0
DWIDTH 71 0
BBX 71 65 3 2
BITMAP
0000001F0000000000
0000007FC000000000
000000FFFFE0000000
000001FFFFFC000000
000003FFFFFF000000
000007FFFFFFC00000
00000FFFFFFFE00000
00001FFFFFFFF00000
00003FFFFFFFF80000
00003FFFFFFFFC0000
00007FFFFFFFFE0000
00007FFFFFFFFF0000
0000FFFFFFFFFF8000
0000FFFF03FFFF8000
0001FFFC00FFFFC000
0001FFF8007FFFE000
0001FFF0003FFFE000
0003FFE0001FFFF000
0003FFE0000FFFF000
0007FFC00007FFF800
000FFFC00003FFF800
001FFFC00001FFF800
003FFF800000FFFC00
007FFF8000007FFC00
01FFFF8000007FFE00
0FFFFF8000003FFE00
FFFFFF8000001FFE00
FFFFFF8000001FFE00
7FFFFF8000000FFE00
3FFFFFFC003F8FFE00
1FFFFF0F00F06FFE00
01FFFF00000007FE00
00FFFE00000007FE00
01FFFE00000007FE04
03FFFC00000007FC0C
07FFFDFE007F87FE1E
0FFFF99F81F987FFFE
3FFFF01E807807FFFE
FFFFC00C003007FFFE
7FFF8000000007FFFE
7FFFC000000007FFFC
7FFFC000000007FFFC
3FFFC000000007FFF8
1FFFC000000007FFF0
03FFE000000007FFF0
07FFE00000000FFFF0
3FFFE00000000FFFF0
FFFFF0007C000FFFF0
7FFFF000FF001FFFC0
3FFFF801FF803FFF00
1FFFFC03FF807FFF00
0FFFFE0000007FFF00
0FFFFF030180FFFF00
07FFFF01FF81FFFE00
07FFFF81FF03FFFC00
03FFFFC0FE07FFF000
01FFFFE03C0FFFC000
00FFFFF0001FFFC000
003FF0F8003FFFC000
0000007E0079FF8000
0000003F81F03E0000
0000001FFFE0000000
00000007FF80000000
00000001FF00000000
000000007C00000000
ENDCHAR
STARTCHAR 03A9
ENCODING 937
SWIDTH 1109 0
DWIDTH 71 0
BBX 71 65 3 2
BITMAP
0000001F0000000000
0000007FC000000000
000000FFFFE0000000
000001FFFFFC000000
000003FFFFFF000000
000007FFFFFFC00000
00000FFFFFFFE00000
00001FFFFFFFF00000
00003FFFFFFFF80000
00003FFFFFFFFC0000
00007FFFFFFFFE0000
00007FFFFFFFFF0000
0000FFFFFFFFFF8000
0000FFFF03FFFF8000
0001FFFC00FFFFC000
0001FFF8007FFFE000
0001FFF0003FFFE000
0003FFE0001FFFF000
0003FFE0000FFFF000
0007FFC00007FFF800
000FFFC00003FFF800
001FFFC00001FFF800
003FFF800000FFFC00
007FFF8000007FFC00
01FFFF8000007FFE00
0FFFFF8000003FFE00
FFFFFF8000001FFE00
FFFFFF8000001FFE00
7FFFFF8000000FFE00
3FFFFFFC003F8FFE00
1FFFFF0F00F06FFE00
01FFFF00000007FE00
00FFFE00000007FE00
01FFFE00000007FE04
03FFFC00000007FC0C
07FFFDFE007F87FE1E
0FFFF99F81F987FFFE
3FFFF01E807807FFFE
FFFFC00C003007FFFE
7FFF8000000007FFFE
7FFFC000000007FFFC
7FFFC000000007FFFC
3FFFC000000007FFF8
1FFFC000000007FFF0
03FFE000000007FFF0
07FFE00000000FFFF0
3FFFE00000000FFFF0
FFFFF0007C000FFFF0
7FFFF000FF001FFFC0
3FFFF801FF803FFF00
1FFFFC03FF807FFF00
0FFFFE0000007FFF00
0FFFFF030180FFFF00
07FFFF01FF81FFFE00
07FFFF81FF03FFFC00
03FFFFC0FE07FFF000
01FFFFE03C0FFFC000
00FFFFF0001FFFC000
003FF0F8003FFFC000
0000007E0079FF8000
0000003F81F03E0000
0000001FFFE0000000
00000007FF80000000
00000001FF00000000
000000007C00000000
ENDCHAR
STARTCHAR 03BC
ENCODING 956
SWIDTH 718 0
DWIDTH 46 0
BBX 48 61 -1 -25
BITMAP
03F0007E0000
0FFC01FF8000
1FFE03FFC000
3FFF07FFE000
7E1F0FC3E000
780F8F01F000
F8079F00F000
F0079E00F000
F0079E00F000
F0079E00F000
F0079E00F000
F0079E00F000
F0079E00F000
F0079E00F000
F0079E00F000
F0079E00F000
F0079E00F000
F0079E00F000
F0079E00F000
F0079E00F000
F0079E00F000
F0079E00F000
F0079E00F000
F0079E00F000
F003FE007FE0
F003FE007FF8
F001FC003FFC
F000F0001FFE
F0000000003E
F0000000001F
F0000000000F
F0000000000F
F0000010000F
F0000038000F
F000007C000F
F00000FF001F
F00603FFC03F
F007FFFFFFFF
F007FFFFFFFF
F007FFFFFFFF
F007FFFFFFFF
F007FFFFFFFF
F007FFFFFFFE
F007FFFFFFFE
F007FFEFFFFC
F007FF83FFF8
F007FC007FE0
F00780000000
F80780000000
F80F80000000
FE1F80000000
FFFF80000000
FFFF80000000
FFFF80000000
FFFF80000000
7FFF80000000
7FFF00000000
3FFF00000000
1FFE00000000
0FFC00000000
03F000000000
ENDCHAR
STARTCHAR 03C0
ENCODING 960
SWIDTH 546 0
DWIDTH 35 0
BBX 37 47 -1 -11
BITMAP
03FFFFFF00
0FFFFFFFC0
1FFFFFFFE0
3FFFFFFFF0
7E000001F0
78000000F8
7800000078
F000000078
F000000078
F000000078
7800000078
7C00000078
7E00000078
FFE00F0078
FFE00F0078
FFE00F0078
7FE00F0078
7FE00F0078
7FE00F0078
3FE00F0078
1FE00F0078
0FE00F0078
07E00F0078
01E00F0078
01E00F0078
01E00F0078
01E00F0078
01E00F0078
01E00F0078
01E00F0078
01E00F0078
01E00F0078
01E00F0078
01E00F0078
01F00F8078
01F01F80F8
01FC3FE1F8
01FFFFFFF8
01FFFFFFF8
01FFFFFFF8
00FFFFFFF8
00FFFFFFF8
00FFFFFFF8
007FFFFFF0
003FFDFFE0
001FF8FFC0
0007E03F00
ENDCHAR
STARTCHAR 2010
ENCODING 8208
SWIDTH 265 0
DWIDTH 17 0
BBX 19 25 0 4
BITMAP
03F800
0FFE00
1FFF00
3FFF80
7E0FC0
7C07C0
F803E0
F001E0
F001E0
F001E0
F001E0
F001E0
F803C0
FC07E0
FE0FE0
FFFFE0
FFFFE0
FFFFE0
FFFFE0
7FFFC0
7FFFC0
3FFF80
1FFF00
0FFE00
03F800
ENDCHAR
STARTCHAR 2013
ENCODING 8211
SWIDTH 421 0
DWIDTH 27 0
BBX 32 23 -1 1
BITMAP
03FFFFE0
0FFFFFF8
3FFFFFFC
3FFFFFFE
7C00003E
7800001F
F000000F
F000000F
F000000F
F000000F
F000000F
7800001F
FC00003F
FFFFFFFF
FFFFFFFF
FFFFFFFF
FFFFFFFF
7FFFFFFF
7FFFFFFE
3FFFFFFE
3FFFFFFC
0FFFFFF8
03FFFFE0
ENDCHAR
STARTCHAR 2014
ENCODING 8212
SWIDTH 625 0
DWIDTH 40 0
BBX 45 23 -1 1
BITMAP
03FFFFFFFF00
0FFFFFFFFFC0
3FFFFFFFFFE0
3FFFFFFFFFF0
7C00000001F0
7800000000F8
F00000000078
F00000000078
F00000000078
F00000000078
F00000000078
7800000000F0
FC00000001F8
FFFFFFFFFFF8
FFFFFFFFFFF8
FFFFFFFFFFF8
FFFFFFFFFFF8
7FFFFFFFFFF8
7FFFFFFFFFF0
3FFFFFFFFFF0
3FFFFFFFFFE0
0FFFFFFFFFC0
03FFFFFFFF00
ENDCHAR
STARTCHAR 2018
ENCODING 8216
SWIDTH 265 0
DWIDTH 17 0
BBX 19 33 0 16
BITMAP
03F800
0FFE00
1FFF00
3FFF80
7E0FC0
7C07C0
F803E0
F001E0
F001E0
F001E0
F001E0
F001E0
F001E0
F001E0
F001E0
F001E0
F001E0
F001E0
F001E0
F001E0
F803E0
FC07E0
FE0FE0
FFFFE0
FFFFE0
FFFFE0
FFFFE0
7FFFC0
7FFFC0
3FFF80
1FFF00
0FFE00
03F800
ENDCHAR
STARTCHAR 2019
ENCODING 8217
SWIDTH 265 0
DWIDTH 17 0
BBX 19 33 0 16
BITMAP
03F800
0FFE00
1FFF00
3FFF80
7E0FC0
7C07C0
F803E0
F001E0
F001E0
F001E0
F001E0
F001E0
F001E0
F001E0
F001E0
F001E0
F001E0
F001E0
F001E0
F001E0
F803E0
FC07E0
FE0FE0
FFFFE0
FFFFE0
FFFFE0
FFFFE0
7FFFC0
7FFFC0
3FFF80
1FFF00
0FFE00
03F800
ENDCHAR
STARTCHAR 201A
ENCODING 8218
SWIDTH 265 0
DWIDTH 17 0
BBX 19 33 0 -18
BITMAP
03F800
0FFE00
1FFF00
3FFF80
7E0FC0
7C07C0
F803E0
F001E0
F001E0
F001E0
F001E0
F001E0
F001E0
F001E0
F001E0
F001E0
F001E0
F001E0
F001E0
F001E0
F803E0
FC07E0
FE0FE0
FFFFE0
FFFFE0
FFFFE0
FFFFE0
7FFFC0
7FFFC0
3FFF80
1FFF00
0FFE00
03F800
ENDCHAR
STARTCHAR 201C
ENCODING 8220
SWIDTH 468 0
DWIDTH 30 0
BBX 32 33 0 16
BITMAP
03F00FC0
0FFE7FF0
1FFFFFF8
3FFFFFFC
7E0FF87E
7C07F03E
F803E01F
F001C00F
F001C00F
F001C00F
F001C00F
F001C00F
F001C00F
F001C00F
F001C00F
F001C00F
F001C00F
F001C00F
F001C00F
F001C00F
F803E01F
FC07F03F
FE0FF87F
FFFFFFFF
FFFFFFFF
FFFFFFFF
FFFFFFFF
7FFFFFFE
7FFFFFFE
3FFFFFFC
1FFFFFF8
0FFC3FF0
03F00FC0
ENDCHAR
STARTCHAR 201D
ENCODING 8221
SWIDTH 453 0
DWIDTH 29 0
BBX 32 33 0 16
BITMAP
03F00FC0
0FFE7FF0
1FFFFFF8
3FFFFFFC
7E0FF87E
7C07F03E
F803E01F
F001C00F
F001C00F
F001C00F
F001C00F
F001C00F
F001C00F
F001C00F
F001C00F
F001C00F
F001C00F
F001C00F
F001C00F
F001C00F
F803E01F
FC07F03F
FE0FF87F
FFFFFFFF
FFFFFFFF
FFFFFFFF
FFFFFFFF
7FFFFFFE
7FFFFFFE
3FFFFFFC
1FFFFFF8
0FFC3FF0
03F00FC0
ENDCHAR
STARTCHAR 201E
ENCODING 8222
SWIDTH 531 0
DWIDTH 34 0
BBX 36 33 0 -18
BITMAP
03F801FC00
0FFE07FF00
1FFF0FFF80
3FFF9FFFC0
7E0FFF07E0
7C07FE03E0
F803FC01F0
F001F800F0
F001F800F0
F001F800F0
F001F800F0
F001F800F0
F001F800F0
F001F800F0
F001F800F0
F001F800F0
F001F800F0
F001F800F0
F001F800F0
F001F800F0
F803FC01F0
FC07FE03F0
FE0FFF07F0
FFFFFFFFF0
FFFFFFFFF0
FFFFFFFFF0
FFFFFFFFF0
7FFFFFFFE0
7FFFFFFFE0
3FFF9FFFC0
1FFF0FFF80
0FFE07FF00
03F801FC00
ENDCHAR
STARTCHAR 2020
ENCODING 8224
SWIDTH 1171 0
DWIDTH 75 0
BBX 71 65 3 2
BITMAP
0000001F0000000000
0000007FC000000000
000000FFFFE0000000
000001FFFFFC000000
000003FFFFFF000000
000007FFFFFFC00000
00000FFFFFFFE00000
00001FFFFFFFF00000
00001FFFFFFFFC0000
00003FFFFFFFFE0000
00003FFFFFFFFE0000
00007FFFFFFFFF0000
00007FFFFFFFFF8000
0000FFFF03FFFFC000
0000FFFC00FFFFC000
0001FFF8007FFFE000
0001FFF0003FFFE000
0001FFF0000FFFF000
0003FFE00007FFF800
0003FFE00003FFF800
0007FFC00001FFF800
000FFFC00000FFFC00
001FFFC00000FFFC00
007FFFC000007FFE00
01FFFFC000003FFE00
0FFFFF8000003FFE00
FFFFFF8000001FFE00
7FFFFF8000001FFE00
7FFFFF8000000FFE00
3FFFFFFE003F8FFE00
1FFFFF8780F867FE00
01FFFF00000007FE00
00FFFF00000007FE04
00FFFE00000007FE04
01FFFE00000007FE06
07FFFDFF00FF87FE0E
0FFFF8DE81F987FFFE
1FFFF01E807807FFFE
7FFFE00E003807FFFE
7FFFC000000007FFFE
7FFFC000000007FFFE
3FFFC000000007FFFC
3FFFC000000007FFFC
1FFFE000000007FFF8
03FFE000000007FFF0
07FFE000000007FFF8
3FFFF00000000FFFF0
FFFFF0003C000FFFF0
7FFFF800FF001FFFC0
3FFFFC01FF801FFF00
0FFFFC01FFC03FFF00
0FFFFE0000007FFF00
0FFFFF0180C0FFFF00
07FFFF81FF81FFFE00
03FFFFC0FF83FFFC00
03FFFFE07F03FFF000
01FFFFF03C07FFE000
00FFFFF8000FFFC000
003FF8FC003FFFC000
0000007E007DFF8000
0000001F81F03E0000
0000000FFFE0000000
00000007FFC0000000
00000001FF00000000
000000007C00000000
ENDCHAR
STARTCHAR 2021
ENCODING 8225
SWIDTH 1109 0
DWIDTH 71 0
BBX 71 65 3 2
BITMAP
0000001F0000000000
0000007FC000000000
000000FFFFE0000000
000001FFFFFC000000
000003FFFFFF000000
000007FFFFFFC00000
00000FFFFFFFE00000
00001FFFFFFFF00000
00003FFFFFFFF80000
00003FFFFFFFFC0000
00007FFFFFFFFE0000
00007FFFFFFFFF0000
0000FFFFFFFFFF8000
0000FFFF03FFFF8000
0001FFFC00FFFFC000
0001FFF8007FFFE000
0001FFF0003FFFE000
0003FFE0001FFFF000
0003FFE0000FFFF000
0007FFC00007FFF800
000FFFC00003FFF800
001FFFC00001FFF800
003FFF800000FFFC00
007FFF8000007FFC00
01FFFF8000007FFE00
0FFFFF8000003FFE00
FFFFFF8000001FFE00
FFFFFF8000001FFE00
7FFFFF8000000FFE00
3FFFFFFC003F8FFE00
1FFFFF0F00F06FFE00
01FFFF00000007FE00
00FFFE00000007FE00
01FFFE00000007FE04
03FFFC00000007FC0C
07FFFDFE007F87FE1E
0FFFF99F81F987FFFE
3FFFF01E807807FFFE
FFFFC00C003007FFFE
7FFF8000000007FFFE
7FFFC000000007FFFC
7FFFC000000007FFFC
3FFFC000000007FFF8
1FFFC000000007FFF0
03FFE000000007FFF0
07FFE00000000FFFF0
3FFFE00000000FFFF0
FFFFF0007C000FFFF0
7FFFF000FF001FFFC0
3FFFF801FF803FFF00
1FFFFC03FF807FFF00
0FFFFE0000007FFF00
0FFFFF030180FFFF00
07FFFF01FF81FFFE00
07FFFF81FF03FFFC00
03FFFFC0FE07FFF000
01FFFFE03C0FFFC000
00FFFFF0001FFFC000
003FF0F8003FFFC000
0000007E0079FF8000
0000003F81F03E0000
0000001FFFE0000000
00000007FF80000000
00000001FF00000000
000000007C00000000
ENDCHAR
STARTCHAR 2022
ENCODING 8226
SWIDTH 375 0
DWIDTH 24 0
BBX 25 32 -1 2
BITMAP
007F0000
01FFE000
07FFF000
0FFFF800
1FC0FC00
3F007E00
3E001F00
7C000F00
78000F80
78000780
F8000780
F0000780
F0000780
F0000780
F0000780
F8000780
F8000780
F8000F80
FC001F80
FE001F80
FF003F80
FFC0FF80
7FFFFF80
7FFFFF80
7FFFFF00
3FFFFF00
3FFFFE00
1FFFFC00
0FFFF800
07FFF000
01FFE000
007F0000
ENDCHAR
STARTCHAR 2026
ENCODING 8230
SWIDTH 765 0
DWIDTH 49 0
BBX 49 26 0 -11
BITMAP
03F007E007E000
0FFC1FF81FF800
1FFF3FFE7FFC00
3FFFFFFEFFFE00
7E0FFE1FFC3F00
7C07F807F81F00
F803F003F00F80
F003F003E00780
F001E001E00780
F001E001E00780
F001E001E00780
F001E001E00780
F003E003E00780
F803F003F00F80
FC07F807F81F80
FE0FFC1FFC3F80
FFFFFFFFFFFF80
FFFFFFFFFFFF80
FFFFFFFFFFFF80
FFFFFFFFFFFF80
7FFFFFFFFFFF00
7FFFFFFFFFFF00
3FFFFFFE7FFE00
1FFF3FFC7FFC00
0FFC1FF81FF800
03F007E007E000
ENDCHAR
STARTCHAR 2030
ENCODING 8240
SWIDTH 828 0
DWIDTH 53 0
BBX 55 72 -1 -18
BITMAP
00000001F80000
00000007FE0000
0000000FFF0000
0000001FFF8000
0000003F0F8000
007F003E07C000
01FFE03C03C000
07FFF07C03C000
0FFFF87803C000
1FC1FC7803C000
3F007EF803C000
3E003FF003C000
7C001FF003C000
781E0FF007C000
783F0FE007C000
F83F87E007C000
F07F87C00FC000
F07F87C00FC000
F03F87C01FC000
F03F07801F8000
781E0F801F8000
F8000F803F8000
FC001F003F0000
FE003F003F0000
FF007F007F0000
FFC1FE007E0000
7FFFFE007E0000
7FFFFE00FE0000
7FFFFC00FC0000
3FFFFC00FC0000
3FFFF801FC0000
1FFFF801FF0000
0FFFF803FFC000
07FFF003FFE000
01FFF003FFF000
007FF00783F800
0001E00600FC00
0001E004003E00
0003E008003E00
0003C008781E00
0003C010FC0F00
0007C010FE0F00
00078011FE0F80
00078031FE0FE0
000F0030FE0FF0
000F0030FC03F8
001F00707800F8
001E007800007C
001E007800003C
003E00FC00783E
003C00FE00FC1E
003C00FF80FE1E
007C01FFE1FE1E
007801FFE1FE1E
007801FFE0FE1E
00F803FFE0FC1E
00F003FFF0781E
00F007FFF0003E
00F007FFF8003E
007807EFF8007E
007C0FE3FC00FE
007E1FC1FF03FE
00FFFFC1FFFFFE
00FFFFC1FFFFFE
00FFFF80FFFFFC
00FFFF80FFFFFC
007FFF807FFFF8
007FFF003FFFF8
003FFF001FFFF0
001FFE000FFFC0
000FFC0007FF80
0003F00000FE00
ENDCHAR
STARTCHAR 2039
ENCODING 8249
SWIDTH 343 0
DWIDTH 22 0
BBX 23 36 0 -5
BITMAP
000F80
003FE0
007FF0
00FFF8
01F8FC
03E03C
07C03E
0F801E
1F801E
3F001E
7E001E
7C003E
F8007E
F000FE
F001FE
F001FE
F000FE
78007E
7C003E
FE001E
FF001E
FF001E
FF801E
FFC03E
7FE03E
7FF8FE
3FFFFE
1FFFFE
0FFFFE
07FFFE
07FFFC
03FFFC
01FFF8
007FF0
003FE0
000F80
ENDCHAR
STARTCHAR 203A
ENCODING 8250
SWIDTH 343 0
DWIDTH 22 0
BBX 23 36 0 -5
BITMAP
03E000
0FF800
1FFC00
3FFE00
7E3F00
780F80
F807C0
F003E0
F003F0
F001F8
F000FC
78007C
FC003E
FE001E
FF001E
FF001E
FE001E
FC003E
F8007E
F000FE
F001FE
F003FE
F007FE
F807FE
780FFC
FE3FFC
FFFFF8
FFFFF0
FFFFE0
FFFFC0
7FFFC0
7FFF80
3FFF00
1FFC00
0FF800
03E000
ENDCHAR
STARTCHAR 2044
ENCODING 8260
SWIDTH 468 0
DWIDTH 30 0
BBX 34 72 -1 -18
BITMAP
000001F000
000007FC00
00000FFF00
00001FFF00
00003E0F80
00003C07C0
00007C03C0
00007803C0
00007803C0
0000F803C0
0000F003C0
0000F003C0
0001F007C0
0001E007C0
0001E007C0
0003E00FC0
0003C00FC0
0003C01FC0
0007801F80
0007801F80
000F803F80
000F003F00
000F003F00
001F007F00
001E007E00
001E007E00
003E00FE00
003C00FC00
003C01FC00
007C01FC00
007801F800
007803F800
00F003F000
00F003F000
01F007F000
01E007E000
01E007E000
03E00FE000
03C00FC000
03C00FC000
07C01FC000
07801F8000
07803F8000
0F803F8000
0F003F0000
0F007F0000
1E007E0000
1E007E0000
3E00FE0000
3C00FC0000
3C00FC0000
7C01FC0000
7801F80000
7801F80000
F803F80000
F003F00000
F007F00000
F007F00000
F007E00000
F80FE00000
F80FC00000
FE1FC00000
FFFFC00000
FFFF800000
FFFF800000
FFFF800000
7FFF000000
7FFF000000
3FFE000000
3FFE000000
0FFC000000
03F0000000
ENDCHAR
STARTCHAR 2122
ENCODING 8482
SWIDTH 656 0
DWIDTH 42 0
BBX 45 35 -1 14
BITMAP
0F8000000000
3FE000000000
7FF000000000
7FF000000000
787F83F1F800
F07FFFFFFF00
F07FFFFFFF80
F07FFFFFFFC0
F000FE0607E0
F000F80001F0
F000F00000F0
F000E00000F8
F07FE0E0E078
F07FC0E0F078
F07FC1E1F078
F07FC1E1F078
F07FC1E1F078
F07FC1E1F078
F03FC1E1F078
F03F81E1F078
F80001E1F078
F80001E1F078
FC0003E1F078
FE0007E1F078
FF801FF1F878
FFFFFFFFFFF8
7FFFFFFFFFF8
7FFFFFFFFFF8
7FFFFFFFFFF8
3FFFFFFFFFF8
3FFFFFFFFFF8
1FFFFFFFFFF8
0FFFFEFFFFF0
03FFF87FDFE0
00FFE01F0FC0
ENDCHAR
STARTCHAR 2126
ENCODING 8486
SWIDTH 1109 0
DWIDTH 71 0
BBX 71 65 3 2
BITMAP
0000001F0000000000
0000007FC000000000
000000FFFFE0000000
000001FFFFFC000000
000003FFFFFF000000
000007FFFFFFC00000
00000FFFFFFFE00000
00001FFFFFFFF00000
00003FFFFFFFF80000
00003FFFFFFFFC0000
00007FFFFFFFFE0000
00007FFFFFFFFF0000
0000FFFFFFFFFF8000
0000FFFF03FFFF8000
0001FFFC00FFFFC000
0001FFF8007FFFE000
0001FFF0003FFFE000
0003FFE0001FFFF000
0003FFE0000FFFF000
0007FFC00007FFF800
000FFFC00003FFF800
001FFFC00001FFF800
003FFF800000FFFC00
007FFF8000007FFC00
01FFFF8000007FFE00
0FFFFF8000003FFE00
FFFFFF8000001FFE00
FFFFFF8000001FFE00
7FFFFF8000000FFE00
3FFFFFFC003F8FFE00
1FFFFF0F00F06FFE00
01FFFF00000007FE00
00FFFE00000007FE00
01FFFE00000007FE04
03FFFC00000007FC0C
07FFFDFE007F87FE1E
0FFFF99F81F987FFFE
3FFFF01E807807FFFE
FFFFC00C003007FFFE
7FFF8000000007FFFE
7FFFC000000007FFFC
7FFFC000000007FFFC
3FFFC000000007FFF8
1FFFC000000007FFF0
03FFE000000007FFF0
07FFE00000000FFFF0
3FFFE00000000FFFF0
FFFFF0007C000FFFF0
7FFFF000FF001FFFC0
3FFFF801FF803FFF00
1FFFFC03FF807FFF00
0FFFFE0000007FFF00
0FFFFF030180FFFF00
07FFFF01FF81FFFE00
07FFFF81FF03FFFC00
03FFFFC0FE07FFF000
01FFFFE03C0FFFC000
00FFFFF0001FFFC000
003FF0F8003FFFC000
0000007E0079FF8000
0000003F81F03E0000
0000001FFFE0000000
00000007FF80000000
00000001FF00000000
000000007C00000000
ENDCHAR
STARTCHAR 2202
ENCODING 8706
SWIDTH 1109 0
DWIDTH 71 0
BBX 71 65 3 2
BITMAP
0000001F0000000000
0000007FC000000000
000000FFFFE0000000
000001FFFFFC000000
000003FFFFFF000000
000007FFFFFFC00000
00000FFFFFFFE00000
00001FFFFFFFF00000
00003FFFFFFFF80000
00003FFFFFFFFC0000
00007FFFFFFFFE0000
00007FFFFFFFFF0000
0000FFFFFFFFFF8000
0000FFFF03FFFF8000
0001FFFC00FFFFC000
0001FFF8007FFFE000
0001FFF0003FFFE000
0003FFE0001FFFF000
0003FFE0000FFFF000
0007FFC00007FFF800
000FFFC00003FFF800
001FFFC00001FFF800
003FFF800000FFFC00
007FFF8000007FFC00
01FFFF8000007FFE00
0FFFFF8000003FFE00
FFFFFF8000001FFE00
FFFFFF8000001FFE00
7FFFFF8000000FFE00
3FFFFFFC003F8FFE00
1FFFFF0F00F06FFE00
01FFFF00000007FE00
00FFFE00000007FE00
01FFFE00000007FE04
03FFFC00000007FC0C
07FFFDFE007F87FE1E
0FFFF99F81F987FFFE
3FFFF01E807807FFFE
FFFFC00C003007FFFE
7FFF8000000007FFFE
7FFFC000000007FFFC
7FFFC000000007FFFC
3FFFC000000007FFF8
1FFFC000000007FFF0
03FFE000000007FFF0
07FFE00000000FFFF0
3FFFE00000000FFFF0
FFFFF0007C000FFFF0
7FFFF000FF001FFFC0
3FFFF801FF803FFF00
1FFFFC03FF807FFF00
0FFFFE0000007FFF00
0FFFFF030180FFFF00
07FFFF01FF81FFFE00
07FFFF81FF03FFFC00
03FFFFC0FE07FFF000
01FFFFE03C0FFFC000
00FFFFF0001FFFC000
003FF0F8003FFFC000
0000007E0079FF8000
0000003F81F03E0000
0000001FFFE0000000
00000007FF80000000
00000001FF00000000
000000007C00000000
ENDCHAR
STARTCHAR 2206
ENCODING 8710
SWIDTH 1109 0
DWIDTH 71 0
BBX 71 65 3 2
BITMAP
0000001F0000000000
0000007FC000000000
000000FFFFE0000000
000001FFFFFC000000
000003FFFFFF000000
000007FFFFFFC00000
00000FFFFFFFE00000
00001FFFFFFFF00000
00003FFFFFFFF80000
00003FFFFFFFFC0000
00007FFFFFFFFE0000
00007FFFFFFFFF0000
0000FFFFFFFFFF8000
0000FFFF03FFFF8000
0001FFFC00FFFFC000
0001FFF8007FFFE000
0001FFF0003FFFE000
0003FFE0001FFFF000
0003FFE0000FFFF000
0007FFC00007FFF800
000FFFC00003FFF800
001FFFC00001FFF800
003FFF800000FFFC00
007FFF8000007FFC00
01FFFF8000007FFE00
0FFFFF8000003FFE00
FFFFFF8000001FFE00
FFFFFF8000001FFE00
7FFFFF8000000FFE00
3FFFFFFC003F8FFE00
1FFFFF0F00F06FFE00
01FFFF00000007FE00
00FFFE00000007FE00
01FFFE00000007FE04
03FFFC00000007FC0C
07FFFDFE007F87FE1E
0FFFF99F81F987FFFE
3FFFF01E807807FFFE
FFFFC00C003007FFFE
7FFF8000000007FFFE
7FFFC000000007FFFC
7FFFC000000007FFFC
3FFFC000000007FFF8
1FFFC000000007FFF0
03FFE000000007FFF0
07FFE00000000FFFF0
3FFFE00000000FFFF0
FFFFF0007C000FFFF0
7FFFF000FF001FFFC0
3FFFF801FF803FFF00
1FFFFC03FF807FFF00
0FFFFE0000007FFF00
0FFFFF030180FFFF00
07FFFF01FF81FFFE00
07FFFF81FF03FFFC00
03FFFFC0FE07FFF000
01FFFFE03C0FFFC000
00FFFFF0001FFFC000
003FF0F8003FFFC000
0000007E0079FF8000
0000003F81F03E0000
0000001FFFE0000000
00000007FF80000000
00000001FF00000000
000000007C00000000
ENDCHAR
STARTCHAR 220F
ENCODING 8719
SWIDTH 531 0
DWIDTH 34 0
BBX 37 60 -1 -11
BITMAP
03FFFFFF00
0FFFFFFFC0
1FFFFFFFE0
3FFFFFFFF0
7E000001F0
78000000F8
7800000078
F000000078
F000000078
F800000078
7800000078
7C00000078
7F80000078
FFE00F0078
FFE00F0078
FFE00F0078
7FE00F0078
7FE00F0078
7FE00F0078
3FE00F0078
1FE00F0078
0FE00F0078
07E00F0078
01E00F0078
01E00F0078
01E00F0078
01E00F0078
01E00F0078
01E00F0078
01E00F0078
01E00F0078
01E00F0078
01E00F0078
01E00F0078
01E00F0078
01E00F0078
01E00F0078
01E00F0078
01E00F0078
01E00F0078
01E00F0078
01E00F0078
01E00F0078
01E00F0078
01E00F0078
01E00F0078
01E00F0078
01F00F8078
01F01F80F8
01FC3FE1F8
01FFFFFFF8
01FFFFFFF8
01FFFFFFF8
00FFFFFFF8
00FFFFFFF8
00FFFFFFF8
007FFFFFF0
003FFDFFE0
001FF8FFC0
0007E03F00
ENDCHAR
STARTCHAR 2211
ENCODING 8721
SWIDTH 1109 0
DWIDTH 71 0
BBX 71 65 3 2
BITMAP
0000001F0000000000
0000007FC000000000
000000FFFFE0000000
000001FFFFFC000000
000003FFFFFF000000
000007FFFFFFC00000
00000FFFFFFFE00000
00001FFFFFFFF00000
00003FFFFFFFF80000
00003FFFFFFFFC0000
00007FFFFFFFFE0000
00007FFFFFFFFF0000
0000FFFFFFFFFF8000
0000FFFF03FFFF8000
0001FFFC00FFFFC000
0001FFF8007FFFE000
0001FFF0003FFFE000
0003FFE0001FFFF000
0003FFE0000FFFF000
0007FFC00007FFF800
000FFFC00003FFF800
001FFFC00001FFF800
003FFF800000FFFC00
007FFF8000007FFC00
01FFFF8000007FFE00
0FFFFF8000003FFE00
FFFFFF8000001FFE00
FFFFFF8000001FFE00
7FFFFF8000000FFE00
3FFFFFFC003F8FFE00
1FFFFF0F00F06FFE00
01FFFF00000007FE00
00FFFE00000007FE00
01FFFE00000007FE04
03FFFC00000007FC0C
07FFFDFE007F87FE1E
0FFFF99F81F987FFFE
3FFFF01E807807FFFE
FFFFC00C003007FFFE
7FFF8000000007FFFE
7FFFC000000007FFFC
7FFFC000000007FFFC
3FFFC000000007FFF8
1FFFC000000007FFF0
03FFE000000007FFF0
07FFE00000000FFFF0
3FFFE00000000FFFF0
FFFFF0007C000FFFF0
7FFFF000FF001FFFC0
3FFFF801FF803FFF00
1FFFFC03FF807FFF00
0FFFFE0000007FFF00
0FFFFF030180FFFF00
07FFFF01FF81FFFE00
07FFFF81FF03FFFC00
03FFFFC0FE07FFF000
01FFFFE03C0FFFC000
00FFFFF0001FFFC000
003FF0F8003FFFC000
0000007E0079FF8000
0000003F81F03E0000
0000001FFFE0000000
00000007FF80000000
00000001FF00000000
000000007C00000000
ENDCHAR
STARTCHAR 2219
ENCODING 8729
SWIDTH 250 0
DWIDTH 16 0
BBX 19 26 0 -11
BITMAP
03F000
0FFE00
1FFF00
3FFF80
7E0FC0
7C07C0
F803C0
F003E0
F001E0
F001E0
F001E0
F001E0
F003C0
F803C0
FC07E0
FE0FE0
FFFFE0
FFFFE0
FFFFE0
FFFFE0
7FFFC0
7FFFC0
3FFF80
1FFF00
0FFE00
03F800
ENDCHAR
STARTCHAR 221A
ENCODING 8730
SWIDTH 1109 0
DWIDTH 71 0
BBX 71 65 3 2
BITMAP
0000001F0000000000
0000007FC000000000
000000FFFFE0000000
000001FFFFFC000000
000003FFFFFF000000
000007FFFFFFC00000
00000FFFFFFFE00000
00001FFFFFFFF00000
00003FFFFFFFF80000
00003FFFFFFFFC0000
00007FFFFFFFFE0000
00007FFFFFFFFF0000
0000FFFFFFFFFF8000
0000FFFF03FFFF8000
0001FFFC00FFFFC000
0001FFF8007FFFE000
0001FFF0003FFFE000
0003FFE0001FFFF000
0003FFE0000FFFF000
0007FFC00007FFF800
000FFFC00003FFF800
001FFFC00001FFF800
003FFF800000FFFC00
007FFF8000007FFC00
01FFFF8000007FFE00
0FFFFF8000003FFE00
FFFFFF8000001FFE00
FFFFFF8000001FFE00
7FFFFF8000000FFE00
3FFFFFFC003F8FFE00
1FFFFF0F00F06FFE00
01FFFF00000007FE00
00FFFE00000007FE00
01FFFE00000007FE04
03FFFC00000007FC0C
07FFFDFE007F87FE1E
0FFFF99F81F987FFFE
3FFFF01E807807FFFE
FFFFC00C003007FFFE
7FFF8000000007FFFE
7FFFC000000007FFFC
7FFFC000000007FFFC
3FFFC000000007FFF8
1FFFC000000007FFF0
03FFE000000007FFF0
07FFE00000000FFFF0
3FFFE00000000FFFF0
FFFFF0007C000FFFF0
7FFFF000FF001FFFC0
3FFFF801FF803FFF00
1FFFFC03FF807FFF00
0FFFFE0000007FFF00
0FFFFF030180FFFF00
07FFFF01FF81FFFE00
07FFFF81FF03FFFC00
03FFFFC0FE07FFF000
01FFFFE03C0FFFC000
00FFFFF0001FFFC000
003FF0F8003FFFC000
0000007E0079FF8000
0000003F81F03E0000
0000001FFFE0000000
00000007FF80000000
00000001FF00000000
000000007C00000000
ENDCHAR
STARTCHAR 221E
ENCODING 8734
SWIDTH 937 0
DWIDTH 60 0
BBX 55 51 4 1
BITMAP
0E000000E00000
1E000000F00000
1E000000F00000
00000000000000
040C0184404060
0C3F079EE1E1F8
0E7F8FBEE3E3FC
0EF78E38E7879E
0EEF0E38E7070E
0ECE0E38E6060E
0EEC0E38E60606
0EE00E38E70706
0EFE3EF0E7E7C6
0E7F7DF0E3E3E6
0E3F79E061E1E6
0E000000000000
1C000000000000
7C000000000000
F80039E0000000
700079E0000000
000079E0000000
000079E0000000
000079E0000000
000079E0000000
07E079E7C007E0
1FF879E7E01FF0
3FFC79E7F03FF8
7FFE79E7F87FFC
7C3E79E07C7C3E
781E79E03CF81E
F80F79E03CF01E
F00F79E03CF01E
F80F79E03CF01E
780F79F03CF81E
7C0F78F87C7C1E
7F8F78FFF87F9E
3FCF787FF83FDE
1FCF783FF01FDE
07CE381FC00F8E
00000000000000
00000000000000
00000000000000
00000000000000
C0180000004E02
40180000185B02
461E1C727F534A
CE1F3EFA7F50CA
CC19AD8A785FCA
CC19A98A7950CA
DC1FB8CBDF507A
580F1C69CE5072
ENDCHAR
STARTCHAR 222B
ENCODING 8747
SWIDTH 437 0
DWIDTH 28 0
BBX 42 74 -12 -25
BITMAP
0000003FF000
000001FFFC00
000007FFFF00
00001FFFFF00
00003FC00F80
00007F0007C0
0000FC0003C0
0001F80003C0
0001F00003C0
0003E00003C0
0003C00003C0
000780000780
000780000FC0
000F800FFFC0
000F001FFFC0
000F003FFFC0
000F007FFFC0
000F007FFFC0
000F007FFF80
000F007FFF00
000F007FFF00
000F007FFC00
000F007FF000
000F00780000
000F00780000
000F00780000
000F00780000
000F00780000
000F00780000
000F00780000
000F00780000
000F00780000
000F00780000
000F00780000
000F00780000
000F00780000
000F00780000
000F00780000
000F00780000
000F00780000
000F00780000
000F00780000
000F00780000
000F00780000
000F00780000
000F00780000
000F00780000
000F00780000
000F00780000
000F00780000
07FF00780000
1FFE00780000
3FFE00780000
7FF800780000
7C0000F80000
F80000F80000
F00000F80000
F00001F80000
F00003F80000
F00007F80000
F0000FF00000
F0001FF00000
F8003FF00000
FC01FFE00000
FFFFFFE00000
FFFFFFC00000
FFFFFFC00000
FFFFFF800000
7FFFFF000000
7FFFFE000000
3FFFFC000000
3FFFF0000000
0FFFE0000000
03FF00000000
ENDCHAR
STARTCHAR 2248
ENCODING 8776
SWIDTH 609 0
DWIDTH 39 0
BBX 41 79 -1 -43
BITMAP
0000FF800000
0007FFF80000
001FFFFE0000
007FFFFF0000
00FF807FC000
01FC000FE000
03F00003F000
07C00001F800
0F800000FC00
1F0000007C00
1E0000003E00
3E0000001E00
3C0000001F00
7C003E000F00
7800FF800F00
7801FFC00780
7803FFE00780
F803FFF00780
F003FFF00780
F007FFF00780
F007FFF00780
F007FFF00780
F007FFF00780
F803F3F00780
F803FFF00780
F801FFF00780
F800FFF00780
FC007FF00780
FC0007F00780
FE0001F00780
7E0000F00780
7F0000F00780
7F8000F00780
7FC000F00780
3FE000F00780
3FF801F00780
1FFF03F00780
1FFFFFE00780
0FFF00000780
07FC00000780
07F000000F80
07C000000F80
0F8000001F80
1F0000003F80
1E0000007F80
3E000000FF80
3C000003FF80
7C003FFFFF80
7800FFFFFF00
7801FFFFFF00
7801FFFFFE00
F803FFFFFE00
F003FFFFFC00
F007FFFFF800
F007FFFFF000
F007FFFFE000
F007FFFF8000
F003FFFFF000
F803FFFFFC00
F801FFFFFE00
F800FFFFFF00
FC0000001F80
FC0000000F80
FE0000000780
7F0000000780
7F8000000780
7FC000000780
7FF000000F80
3FFC00001F80
3FFFFFFFFF80
1FFFFFFFFF80
1FFFFFFFFF80
0FFFFFFFFF80
07FFFFFFFF80
03FFFFFFFF80
01FFFFFFFF00
007FFFFFFE00
001FFFFFFC00
0003FFFFF000
ENDCHAR
STARTCHAR 2260
ENCODING 8800
SWIDTH 1109 0
DWIDTH 71 0
BBX 71 65 3 2
BITMAP
0000001F0000000000
0000007FC000000000
000000FFFFE0000000
000001FFFFFC000000
000003FFFFFF000000
000007FFFFFFC00000
00000FFFFFFFE00000
00001FFFFFFFF00000
00003FFFFFFFF80000
00003FFFFFFFFC0000
00007FFFFFFFFE0000
00007FFFFFFFFF0000
0000FFFFFFFFFF8000
0000FFFF03FFFF8000
0001FFFC00FFFFC000
0001FFF8007FFFE000
0001FFF0003FFFE000
0003FFE0001FFFF000
0003FFE0000FFFF000
0007FFC00007FFF800
000FFFC00003FFF800
001FFFC00001FFF800
003FFF800000FFFC00
007FFF8000007FFC00
01FFFF8000007FFE00
0FFFFF8000003FFE00
FFFFFF8000001FFE00
FFFFFF8000001FFE00
7FFFFF8000000FFE00
3FFFFFFC003F8FFE00
1FFFFF0F00F06FFE00
01FFFF00000007FE00
00FFFE00000007FE00
01FFFE00000007FE04
03FFFC00000007FC0C
07FFFDFE007F87FE1E
0FFFF99F81F987FFFE
3FFFF01E807807FFFE
FFFFC00C003007FFFE
7FFF8000000007FFFE
7FFFC000000007FFFC
7FFFC000000007FFFC
3FFFC000000007FFF8
1FFFC000000007FFF0
03FFE000000007FFF0
07FFE00000000FFFF0
3FFFE00000000FFFF0
FFFFF0007C000FFFF0
7FFFF000FF001FFFC0
3FFFF801FF803FFF00
1FFFFC03FF807FFF00
0FFFFE0000007FFF00
0FFFFF030180FFFF00
07FFFF01FF81FFFE00
07FFFF81FF03FFFC00
03FFFFC0FE07FFF000
01FFFFE03C0FFFC000
00FFFFF0001FFFC000
003FF0F8003FFFC000
0000007E0079FF8000
0000003F81F03E0000
0000001FFFE0000000
00000007FF80000000
00000001FF00000000
000000007C00000000
ENDCHAR
STARTCHAR 2264
ENCODING 8804
SWIDTH 390 0
DWIDTH 25 0
BBX 28 47 -1 -11
BITMAP
0003F000
000FFC00
001FFE00
003FFF00
007E1F00
00FC0F80
01F80780
03F00780
07E00780
0FC00780
0F800780
1F000F80
1E001F80
3E003F80
3C007F80
3E003F80
1E001F80
1F000F80
1F800780
1FC00780
3FE00780
3FF00780
3FF80780
1FFC0F80
1FFE1F80
1FFFFF80
3FFFFFC0
7E0003E0
780001F0
780000F0
F80000F0
F00000F0
F00000F0
F80000F0
780000F0
7C0001F0
7E0003F0
FFFFFFF0
FFFFFFF0
FFFFFFF0
7FFFFFF0
7FFFFFF0
7FFFFFF0
3FFFFFE0
1FFFFFC0
0FFFFF80
03FFFE00
ENDCHAR
STARTCHAR 2265
ENCODING 8805
SWIDTH 390 0
DWIDTH 25 0
BBX 28 47 -1 -11
BITMAP
00F80000
03FE0000
07FF8000
0FFFC000
1F87E000
1F03F000
1E01F800
3E00F800
3C007C00
3C003E00
1E001F00
1F000F00
1F800F80
1FC00780
3FC00780
3FE00780
3FC00780
1F800F80
1F000F80
1E001F80
3C003F80
3C007F80
3C00FF80
1E01FF80
1F03FF80
1F87FFC0
3FFFFFE0
7E0003E0
780001F0
780000F0
F80000F0
F00000F0
F00000F0
780000F0
780000F0
7C0001F0
7E0003F0
FFFFFFF0
FFFFFFF0
FFFFFFF0
7FFFFFF0
7FFFFFF0
7FFFFFF0
3FFFFFE0
1FFFFFC0
0FFFFF80
03FFFE00
ENDCHAR
STARTCHAR 22F2
ENCODING 8946
SWIDTH 609 0
DWIDTH 39 0
BBX 41 79 -1 -43
BITMAP
0000FF800000
0007FFF80000
001FFFFE0000
007FFFFF0000
00FF807FC000
01FC000FE000
03F00003F000
07C00001F800
0F800000FC00
1F0000007C00
1E0000003E00
3E0000001E00
3C0000001F00
7C003E000F00
7800FF800F00
7801FFC00780
7803FFE00780
F803FFF00780
F003FFF00780
F007FFF00780
F007FFF00780
F007FFF00780
F007FFF00780
F803F3F00780
F803FFF00780
F801FFF00780
F800FFF00780
FC007FF00780
FC0007F00780
FE0001F00780
7E0000F00780
7F0000F00780
7F8000F00780
7FC000F00780
3FE000F00780
3FF801F00780
1FFF03F00780
1FFFFFE00780
0FFF00000780
07FC00000780
07F000000F80
07C000000F80
0F8000001F80
1F0000003F80
1E0000007F80
3E000000FF80
3C000003FF80
7C003FFFFF80
7800FFFFFF00
7801FFFFFF00
7801FFFFFE00
F803FFFFFE00
F003FFFFFC00
F007FFFFF800
F007FFFFF000
F007FFFFE000
F007FFFF8000
F003FFFFF000
F803FFFFFC00
F801FFFFFE00
F800FFFFFF00
FC0000001F80
FC0000000F80
FE0000000780
7F0000000780
7F8000000780
7FC000000780
7FF000000F80
3FFC00001F80
3FFFFFFFFF80
1FFFFFFFFF80
1FFFFFFFFF80
0FFFFFFFFF80
07FFFFFFFF80
03FFFFFFFF80
01FFFFFFFF00
007FFFFFFE00
001FFFFFFC00
0003FFFFF000
ENDCHAR
STARTCHAR 25CA
ENCODING 9674
SWIDTH 1109 0
DWIDTH 71 0
BBX 71 65 3 2
BITMAP
0000001F0000000000
0000007FC000000000
000000FFFFE0000000
000001FFFFFC000000
000003FFFFFF000000
000007FFFFFFC00000
00000FFFFFFFE00000
00001FFFFFFFF00000
00003FFFFFFFF80000
00003FFFFFFFFC0000
00007FFFFFFFFE0000
00007FFFFFFFFF0000
0000FFFFFFFFFF8000
0000FFFF03FFFF8000
0001FFFC00FFFFC000
0001FFF8007FFFE000
0001FFF0003FFFE000
0003FFE0001FFFF000
0003FFE0000FFFF000
0007FFC00007FFF800
000FFFC00003FFF800
001FFFC00001FFF800
003FFF800000FFFC00
007FFF8000007FFC00
01FFFF8000007FFE00
0FFFFF8000003FFE00
FFFFFF8000001FFE00
FFFFFF8000001FFE00
7FFFFF8000000FFE00
3FFFFFFC003F8FFE00
1FFFFF0F00F06FFE00
01FFFF00000007FE00
00FFFE00000007FE00
01FFFE00000007FE04
03FFFC00000007FC0C
07FFFDFE007F87FE1E
0FFFF99F81F987FFFE
3FFFF01E807807FFFE
FFFFC00C003007FFFE
7FFF8000000007FFFE
7FFFC000000007FFFC
7FFFC000000007FFFC
3FFFC000000007FFF8
1FFFC000000007FFF0
03FFE000000007FFF0
07FFE00000000FFFF0
3FFFE00000000FFFF0
FFFFF0007C000FFFF0
7FFFF000FF001FFFC0
3FFFF801FF803FFF00
1FFFFC03FF807FFF00
0FFFFE0000007FFF00
0FFFFF030180FFFF00
07FFFF01FF81FFFE00
07FFFF81FF03FFFC00
03FFFFC0FE07FFF000
01FFFFE03C0FFFC000
00FFFFF0001FFFC000
003FF0F8003FFFC000
0000007E0079FF8000
0000003F81F03E0000
0000001FFFE0000000
00000007FF80000000
00000001FF00000000
000000007C00000000
ENDCHAR
STARTCHAR F001
ENCODING 61441
SWIDTH 765 0
DWIDTH 49 0
BBX 51 61 0 -11
BITMAP
0000000003F800
0003FC000FFE00
001FFF801FFF00
007FFFE03FFF80
01FFFFF87E0FC0
03FC03FC7C07C0
07E000FEF803E0
0FC0003FF001E0
1F00001FF001E0
3E00000FF001E0
3E000007F001E0
7C000003F001E0
78000003F803C0
7800F001FC07C0
F803FC01FE0FE0
F003FC01FFFFE0
F007FE00FFFFE0
F007FE00FFFFE0
F007FE00FFFFE0
F007FE00FE0FC0
F007FE01FC07C0
F007FF01F803C0
F007FF83F803C0
F007FFFFF803C0
F007FFFFF803C0
F007FFFFF803C0
F007FFFFF803C0
F0000003F803C0
F0000001F803C0
F0000001F803C0
F0000000F803C0
F0000000F803C0
F0000000F803C0
F0000000F803C0
F0000000F803C0
F0000001F803C0
F0000003F803C0
F007FFFFF803C0
F007FFFFF803C0
F007FFFFF803C0
F007FFFFF803C0
F007FFFFF803C0
F007FFFFF803C0
F007FFFFF803C0
F007FFFFF803C0
F007FFFFF803C0
F007FFFE7803C0
F00780007803C0
F00780007803C0
F80F80007C07C0
FC1F80007E0FC0
FFFF80007FFFC0
FFFF80007FFFC0
FFFF80007FFFC0
FFFF80007FFFC0
FFFF80007FFFC0
7FFF00003FFF80
7FFF00003FFF00
3FFE00001FFF00
1FFC00000FFC00
07E0000003F000
ENDCHAR
STARTCHAR F002
ENCODING 61442
SWIDTH 750 0
DWIDTH 48 0
BBX 49 60 0 -11
BITMAP
0003FC0007F000
001FFF801FFC00
007FFFE03FFE00
01FFFFF87FFF00
03FC03FC7C1F00
07E000FEF80F80
0FC0003FF00780
1F00001FF00780
3E00000FF00780
3E000007F00780
7C000003F00780
78000003F00780
7800F001F00780
F803FC01F00780
F003FC01F00780
F007FE00F00780
F007FE00F00780
F007FE00F00780
F007FE00F00780
F007FE01F00780
F007FF01F00780
F007FF83F00780
F007FFFFF00780
F007FFFFF00780
F007FFFFF00780
F007FFFFF00780
F0000003F00780
F0000001F00780
F0000001F00780
F0000000F00780
F0000000F00780
F0000000F00780
F0000000F00780
F0000000F00780
F0000001F00780
F0000003F00780
F007FFFFF00780
F007FFFFF00780
F007FFFFF00780
F007FFFFF00780
F007FFFFF00780
F007FFFFF00780
F007FFFFF00780
F007FFFFF00780
F007FFFFF00780
F007FFFEF00780
F0078000F00780
F0078000F00780
F80F8000F80F80
FC1F8000FC1F80
FFFF8000FFFF80
FFFF8000FFFF80
FFFF8000FFFF80
FFFF8000FFFF80
FFFF8000FFFF80
7FFF00007FFF00
7FFF00007FFF00
3FFE00003FFE00
1FFC00001FF800
07E0000007E000
ENDCHAR
ENDFONT
